  0
SECTION
  2
HEADER
  9
$ACADVER
  1
AC1009
  9
$DWGCODEPAGE
  3
undefined
  9
$INSBASE
 10
0.0
 20
0.0
 30
0.0
  9
$EXTMIN
 10
1.000000000000000E+20
 20
1.000000000000000E+20
 30
1.000000000000000E+20
  9
$EXTMAX
 10
-1.000000000000000E+20
 20
-1.000000000000000E+20
 30
-1.000000000000000E+20
  9
$LIMMIN
 10
0.0
 20
0.0
  9
$LIMMAX
 10
12.0
 20
9.0
  9
$ORTHOMODE
 70
     0
  9
$REGENMODE
 70
     1
  9
$FILLMODE
 70
     1
  9
$QTEXTMODE
 70
     0
  9
$MIRRTEXT
 70
     1
  9
$DRAGMODE
 70
     2
  9
$LTSCALE
 40
1.0
  9
$OSMODE
 70
    37
  9
$ATTMODE
 70
     1
  9
$TEXTSIZE
 40
0.2
  9
$TRACEWID
 40
0.05
  9
$TEXTSTYLE
  7
STANDARD
  9
$CLAYER
  8
0
  9
$CELTYPE
  6
BYLAYER
  9
$CECOLOR
 62
   256
  9
$DIMSCALE
 40
1.0
  9
$DIMASZ
 40
0.18
  9
$DIMEXO
 40
0.0625
  9
$DIMDLI
 40
0.38
  9
$DIMRND
 40
0.0
  9
$DIMDLE
 40
0.0
  9
$DIMEXE
 40
0.18
  9
$DIMTP
 40
0.0
  9
$DIMTM
 40
0.0
  9
$DIMTXT
 40
0.18
  9
$DIMCEN
 40
0.09
  9
$DIMTSZ
 40
0.0
  9
$DIMTOL
 70
     0
  9
$DIMLIM
 70
     0
  9
$DIMTIH
 70
     1
  9
$DIMTOH
 70
     1
  9
$DIMSE1
 70
     0
  9
$DIMSE2
 70
     0
  9
$DIMTAD
 70
     0
  9
$DIMZIN
 70
     0
  9
$DIMBLK
  1

  9
$DIMASO
 70
     1
  9
$DIMSHO
 70
     1
  9
$DIMPOST
  1

  9
$DIMAPOST
  1

  9
$DIMALT
 70
     0
  9
$DIMALTD
 70
     2
  9
$DIMALTF
 40
25.4
  9
$DIMLFAC
 40
1.0
  9
$DIMTOFL
 70
     0
  9
$DIMTVP
 40
0.0
  9
$DIMTIX
 70
     0
  9
$DIMSOXD
 70
     0
  9
$DIMSAH
 70
     0
  9
$DIMBLK1
  1

  9
$DIMBLK2
  1

  9
$DIMSTYLE
  2
STANDARD
  9
$DIMCLRD
 70
     0
  9
$DIMCLRE
 70
     0
  9
$DIMCLRT
 70
     0
  9
$DIMTFAC
 40
1.0
  9
$DIMGAP
 40
0.09
  9
$LUNITS
 70
     2
  9
$LUPREC
 70
     4
  9
$SKETCHINC
 40
0.1
  9
$FILLETRAD
 40
0.5
  9
$AUNITS
 70
     0
  9
$AUPREC
 70
     0
  9
$MENU
  1
.
  9
$ELEVATION
 40
0.0
  9
$PELEVATION
 40
0.0
  9
$THICKNESS
 40
0.0
  9
$LIMCHECK
 70
     0
  9
$CHAMFERA
 40
0.5
  9
$CHAMFERB
 40
0.5
  9
$SKPOLY
 70
     0
  9
$TDCREATE
 40
2457085.774432859
  9
$TDUPDATE
 40
2457085.774432871
  9
$TDINDWG
 40
0.0000000116
  9
$TDUSRTIMER
 40
0.0000000116
  9
$USRTIMER
 70
     1
  9
$ANGBASE
 50
0.0
  9
$ANGDIR
 70
     0
  9
$PDMODE
 70
     0
  9
$PDSIZE
 40
0.0
  9
$PLINEWID
 40
0.0
  9
$COORDS
 70
     1
  9
$SPLFRAME
 70
     0
  9
$SPLINETYPE
 70
     6
  9
$SPLINESEGS
 70
     8
  9
$ATTDIA
 70
     0
  9
$ATTREQ
 70
     1
  9
$HANDLING
 70
     1
  9
$HANDSEED
  5
AE
  9
$SURFTAB1
 70
     6
  9
$SURFTAB2
 70
     6
  9
$SURFTYPE
 70
     6
  9
$SURFU
 70
     6
  9
$SURFV
 70
     6
  9
$UCSNAME
  2

  9
$UCSORG
 10
0.0
 20
0.0
 30
0.0
  9
$UCSXDIR
 10
1.0
 20
0.0
 30
0.0
  9
$UCSYDIR
 10
0.0
 20
1.0
 30
0.0
  9
$PUCSNAME
  2

  9
$PUCSORG
 10
0.0
 20
0.0
 30
0.0
  9
$PUCSXDIR
 10
1.0
 20
0.0
 30
0.0
  9
$PUCSYDIR
 10
0.0
 20
1.0
 30
0.0
  9
$USERI1
 70
     0
  9
$USERI2
 70
     0
  9
$USERI3
 70
     0
  9
$USERI4
 70
     0
  9
$USERI5
 70
     0
  9
$USERR1
 40
0.0
  9
$USERR2
 40
0.0
  9
$USERR3
 40
0.0
  9
$USERR4
 40
0.0
  9
$USERR5
 40
0.0
  9
$WORLDVIEW
 70
     1
  9
$SHADEDGE
 70
     3
  9
$SHADEDIF
 70
    70
  9
$TILEMODE
 70
     1
  9
$MAXACTVP
 70
    64
  9
$PLIMCHECK
 70
     0
  9
$PEXTMIN
 10
1.000000000000000E+20
 20
1.000000000000000E+20
 30
1.000000000000000E+20
  9
$PEXTMAX
 10
-1.000000000000000E+20
 20
-1.000000000000000E+20
 30
-1.000000000000000E+20
  9
$PLIMMIN
 10
0.0
 20
0.0
  9
$PLIMMAX
 10
12.0
 20
9.0
  9
$UNITMODE
 70
     0
  9
$VISRETAIN
 70
     1
  9
$PLINEGEN
 70
     0
  9
$PSLTSCALE
 70
     1
  0
ENDSEC
  0
SECTION
  2
TABLES
  0
TABLE
  2
VPORT
 70
     1
  0
VPORT
  2
*ACTIVE
 70
     0
 10
0.0
 20
0.0
 11
1.0
 21
1.0
 12
0.0
 22
0.0
 13
0.0
 23
0.0
 14
0.5
 24
0.5
 15
0.5
 25
0.5
 16
0.0
 26
0.0
 36
1.0
 17
0.0
 27
0.0
 37
-1000.0
 40
921.3283325038345
 41
1.505511811023622
 42
50.0
 43
5914.409087713548
 44
7256.662218316575
 50
0.0
 51
0.0
 71
     0
 72
   100
 73
     1
 74
     3
 75
     0
 76
     0
 77
     0
 78
     0
  0
ENDTAB
  0
TABLE
  2
LTYPE
 70
     1
  0
LTYPE
  2
CONTINUOUS
 70
     0
  3
Solid line
 72
    65
 73
     0
 40
0.0
  0
ENDTAB
  0
TABLE
  2
LAYER
 70
     3
  0
LAYER
  2
0
 70
     0
 62
     7
  6
CONTINUOUS
  0
LAYER
  2
PROFILEEDGES
 70
     0
 62
     7
  6
CONTINUOUS
  0
LAYER
  2
SECTIONCUTEDGES
 70
     0
 62
     7
  6
CONTINUOUS
  0
ENDTAB
  0
TABLE
  2
STYLE
 70
     1
  0
STYLE
  2
STANDARD
 70
     0
 40
0.0
 41
1.0
 50
0.0
 71
     0
 42
0.2
  3
txt
  4

  0
ENDTAB
  0
TABLE
  2
VIEW
 70
     0
  0
ENDTAB
  0
TABLE
  2
UCS
 70
     0
  0
ENDTAB
  0
TABLE
  2
APPID
 70
     1
  0
APPID
  2
ACAD
 70
     0
  0
ENDTAB
  0
TABLE
  2
DIMSTYLE
 70
     1
  0
DIMSTYLE
  2
STANDARD
 70
     0
  3

  4

  5

  6

  7

 40
1.0
 41
0.18
 42
0.0625
 43
0.38
 44
0.18
 45
0.0
 46
0.0
 47
0.0
 48
0.0
140
0.18
141
0.09
142
0.0
143
25.4
144
1.0
145
0.0
146
1.0
147
0.09
 71
     0
 72
     0
 73
     1
 74
     1
 75
     0
 76
     0
 77
     0
 78
     0
170
     0
171
     2
172
     0
173
     0
174
     0
175
     0
176
     0
177
     0
178
     0
  0
ENDTAB
  0
ENDSEC
  0
SECTION
  2
BLOCKS
  0
BLOCK
  8
0
  2
$MODEL_SPACE
 70
     0
 10
0.0
 20
0.0
 30
0.0
  3
$MODEL_SPACE
  1

  0
ENDBLK
  5
21
  8
0
  0
BLOCK
 67
     1
  8
0
  2
$PAPER_SPACE
 70
     0
 10
0.0
 20
0.0
 30
0.0
  3
$PAPER_SPACE
  1

  0
ENDBLK
  5
1D
 67
     1
  8
0
  0
ENDSEC
  0
SECTION
  2
ENTITIES
  0
LINE
  5
41
  8
0
 10
-51.89502560247331
 20
197.8444438010652
 30
0.0
 11
-51.89502560247331
 21
201.3444438010653
 31
0.0
  0
LINE
  5
42
  8
0
 10
-52.24502560247323
 20
134.194443801065
 30
0.0
 11
-52.24502560247323
 21
127.844443801065
 31
0.0
  0
LINE
  5
43
  8
0
 10
-335.0579162750132
 20
94.68929940214393
 30
0.0
 11
-335.0579162750132
 21
88.33929940214394
 31
0.0
  0
LINE
  5
44
  8
0
 10
-298.566343666986
 20
-131.8791900119031
 30
0.0
 11
-298.566343666986
 21
-31.87919001190314
 31
0.0
  0
LINE
  5
45
  8
0
 10
-48.56634366698579
 20
83.12080998809705
 30
0.0
 11
51.43365633301348
 21
83.12080998809705
 31
0.0
  0
LINE
  5
46
  8
0
 10
369.1521687161518
 20
48.33122797754707
 30
0.0
 11
369.1521687161518
 21
-181.6687720224524
 31
0.0
  0
LINE
  5
47
  8
0
 10
-394.7079162750134
 20
-228.9607005978565
 30
0.0
 11
-394.7079162750134
 21
-120.6607005978562
 31
0.0
  0
LINE
  5
48
  8
0
 10
-335.0579162750132
 20
88.33929940214394
 30
0.0
 11
-324.7079162750134
 21
88.33929940214394
 31
0.0
  0
LINE
  5
49
  8
0
 10
298.1049743975265
 20
187.8444438010651
 30
0.0
 11
291.7549743975265
 21
187.8444438010651
 31
0.0
  0
LINE
  5
4A
  8
0
 10
48.10497439752668
 20
197.8444438010652
 30
0.0
 11
248.1049743975263
 21
197.8444438010652
 31
0.0
  0
LINE
  5
4B
  8
0
 10
248.1049743975263
 20
201.3444438010653
 30
0.0
 11
48.10497439752668
 21
201.3444438010653
 31
0.0
  0
LINE
  5
4C
  8
0
 10
48.45497439752661
 20
127.844443801065
 30
0.0
 11
48.45497439752661
 21
134.194443801065
 31
0.0
  0
LINE
  5
4D
  8
0
 10
-374.3579162750136
 20
-228.9607005978565
 30
0.0
 11
-394.7079162750134
 21
-228.9607005978565
 31
0.0
  0
LINE
  5
4E
  8
0
 10
524.5284631524365
 20
-191.6781333770324
 30
0.0
 11
524.5284631524365
 21
48.32186662296702
 31
0.0
  0
LINE
  5
4F
  8
0
 10
474.5284631524385
 20
-191.6781333770324
 30
0.0
 11
524.5284631524365
 21
-191.6781333770324
 31
0.0
  0
LINE
  5
50
  8
0
 10
474.5284631524385
 20
48.32186662296702
 30
0.0
 11
474.5284631524385
 21
-191.6781333770324
 31
0.0
  0
LINE
  5
51
  8
0
 10
524.5284631524365
 20
48.32186662296702
 30
0.0
 11
474.5284631524385
 21
48.32186662296702
 31
0.0
  0
LINE
  5
52
  8
0
 10
365.6521687161526
 20
48.33122797754707
 30
0.0
 11
369.1521687161518
 21
48.33122797754707
 31
0.0
  0
LINE
  5
53
  8
0
 10
-292.5663436669859
 20
-240.5291900119033
 30
0.0
 11
-292.5663436669859
 21
-131.8791900119031
 31
0.0
  0
LINE
  5
54
  8
0
 10
-335.0579162750132
 20
-235.3107005978565
 30
0.0
 11
-335.0579162750132
 21
-228.9607005978565
 31
0.0
  0
LINE
  5
55
  8
0
 10
379.5021687161523
 20
-231.6687720224528
 30
0.0
 11
379.5021687161523
 21
-225.3187720224528
 31
0.0
  0
LINE
  5
56
  8
0
 10
-394.7079162750134
 20
88.33929940214394
 30
0.0
 11
-374.3579162750136
 21
88.33929940214394
 31
0.0
  0
LINE
  5
57
  8
0
 10
-374.3579162750136
 20
94.68929940214393
 30
0.0
 11
-374.3579162750136
 21
88.33929940214394
 31
0.0
  0
LINE
  5
58
  8
0
 10
-452.0175311713571
 20
-186.3412610774503
 30
0.0
 11
-452.0175311713571
 21
101.6587389225499
 31
0.0
  0
LINE
  5
59
  8
0
 10
418.802168716152
 20
-231.6687720224528
 30
0.0
 11
418.802168716152
 21
-225.3187720224528
 31
0.0
  0
LINE
  5
5A
  8
0
 10
-324.7079162750134
 20
-228.9607005978565
 30
0.0
 11
-335.0579162750132
 21
-228.9607005978565
 31
0.0
  0
LINE
  5
5B
  8
0
 10
-48.56634366698579
 20
-240.5291900119033
 30
0.0
 11
-292.5663436669859
 21
-240.5291900119033
 31
0.0
  0
LINE
  5
5C
  8
0
 10
-48.56634366698579
 20
-246.8791900119033
 30
0.0
 11
-48.56634366698579
 21
-240.5291900119033
 31
0.0
  0
LINE
  5
5D
  8
0
 10
51.43365633301348
 20
-246.8791900119033
 30
0.0
 11
-48.56634366698579
 21
-246.8791900119033
 31
0.0
  0
LINE
  5
5E
  8
0
 10
51.43365633301348
 20
-246.8791900119033
 30
0.0
 11
51.43365633301348
 21
-240.5291900119033
 31
0.0
  0
LINE
  5
5F
  8
0
 10
295.083656333014
 20
-240.5291900119033
 30
0.0
 11
51.43365633301348
 21
-240.5291900119033
 31
0.0
  0
LINE
  5
60
  8
0
 10
295.083656333014
 20
-131.8791900119031
 30
0.0
 11
295.083656333014
 21
-240.5291900119033
 31
0.0
  0
LINE
  5
61
  8
0
 10
301.433656333014
 20
-131.8791900119031
 30
0.0
 11
295.083656333014
 21
-131.8791900119031
 31
0.0
  0
LINE
  5
62
  8
0
 10
301.433656333014
 20
-31.87919001190314
 30
0.0
 11
301.433656333014
 21
-131.8791900119031
 31
0.0
  0
LINE
  5
63
  8
0
 10
301.433656333014
 20
-31.87919001190314
 30
0.0
 11
295.083656333014
 21
-31.87919001190314
 31
0.0
  0
LINE
  5
64
  8
0
 10
295.083656333014
 20
76.77080998809706
 30
0.0
 11
295.083656333014
 21
-31.87919001190314
 31
0.0
  0
LINE
  5
65
  8
0
 10
51.43365633301348
 20
76.77080998809706
 30
0.0
 11
295.083656333014
 21
76.77080998809706
 31
0.0
  0
LINE
  5
66
  8
0
 10
51.43365633301348
 20
83.12080998809705
 30
0.0
 11
51.43365633301348
 21
76.77080998809706
 31
0.0
  0
LINE
  5
67
  8
0
 10
-48.56634366698579
 20
83.12080998809705
 30
0.0
 11
-48.56634366698579
 21
77.12080998809698
 31
0.0
  0
LINE
  5
68
  8
0
 10
-292.5663436669859
 20
77.12080998809698
 30
0.0
 11
-48.56634366698579
 21
77.12080998809698
 31
0.0
  0
LINE
  5
69
  8
0
 10
-292.5663436669859
 20
-31.87919001190314
 30
0.0
 11
-292.5663436669859
 21
77.12080998809698
 31
0.0
  0
LINE
  5
6A
  8
0
 10
-298.566343666986
 20
-31.87919001190314
 30
0.0
 11
-292.5663436669859
 21
-31.87919001190314
 31
0.0
  0
LINE
  5
6B
  8
0
 10
-298.566343666986
 20
-131.8791900119031
 30
0.0
 11
-292.5663436669859
 21
-131.8791900119031
 31
0.0
  0
LINE
  5
6C
  8
0
 10
-272.5663436669857
 20
57.12080998809684
 30
0.0
 11
-222.5663436669859
 21
57.12080998809684
 31
0.0
  0
LINE
  5
6D
  8
0
 10
-222.5663436669859
 20
57.12080998809684
 30
0.0
 11
-222.5663436669859
 21
-220.8791900119035
 31
0.0
  0
LINE
  5
6E
  8
0
 10
-222.5663436669859
 20
-220.8791900119035
 30
0.0
 11
-272.5663436669857
 21
-220.8791900119035
 31
0.0
  0
LINE
  5
6F
  8
0
 10
-272.5663436669857
 20
-220.8791900119035
 30
0.0
 11
-272.5663436669857
 21
57.12080998809684
 31
0.0
  0
LINE
  5
70
  8
0
 10
-374.3579162750136
 20
-235.3107005978565
 30
0.0
 11
-374.3579162750136
 21
-228.9607005978565
 31
0.0
  0
LINE
  5
71
  8
0
 10
439.1521687161503
 20
91.98122797754725
 30
0.0
 11
418.802168716152
 21
91.98122797754725
 31
0.0
  0
LINE
  5
72
  8
0
 10
419.1521687161498
 20
-181.6687720224524
 30
0.0
 11
379.1521687161524
 21
-181.6687720224524
 31
0.0
  0
LINE
  5
73
  8
0
 10
379.5021687161523
 20
98.33122797754726
 30
0.0
 11
379.5021687161523
 21
91.98122797754725
 31
0.0
  0
LINE
  5
74
  8
0
 10
439.1521687161503
 20
-225.3187720224528
 30
0.0
 11
439.1521687161503
 21
-117.0187720224527
 31
0.0
  0
LINE
  5
75
  8
0
 10
-295.5450256024735
 20
147.844443801065
 30
0.0
 11
-295.5450256024735
 21
187.8444438010651
 31
0.0
  0
LINE
  5
76
  8
0
 10
298.1049743975265
 20
147.844443801065
 30
0.0
 11
291.7549743975265
 21
147.844443801065
 31
0.0
  0
LINE
  5
77
  8
0
 10
48.10497439752668
 20
201.3444438010653
 30
0.0
 11
48.10497439752668
 21
197.8444438010652
 31
0.0
  0
LINE
  5
78
  8
0
 10
291.7549743975265
 20
187.8444438010651
 30
0.0
 11
291.7549743975265
 21
147.844443801065
 31
0.0
  0
LINE
  5
79
  8
0
 10
-324.7079162750134
 20
88.33929940214394
 30
0.0
 11
-324.7079162750134
 21
-228.9607005978565
 31
0.0
  0
LINE
  5
7A
  8
0
 10
379.1521687161524
 20
48.33122797754707
 30
0.0
 11
419.1521687161498
 21
48.33122797754707
 31
0.0
  0
LINE
  5
7B
  8
0
 10
379.5021687161523
 20
-231.6687720224528
 30
0.0
 11
418.802168716152
 21
-231.6687720224528
 31
0.0
  0
LINE
  5
7C
  8
0
 10
418.802168716152
 20
98.33122797754726
 30
0.0
 11
379.5021687161523
 21
98.33122797754726
 31
0.0
  0
LINE
  5
7D
  8
0
 10
439.1521687161503
 20
-117.0187720224527
 30
0.0
 11
432.802168716151
 21
-117.0187720224527
 31
0.0
  0
LINE
  5
7E
  8
0
 10
-394.7079162750134
 20
-19.96070059785634
 30
0.0
 11
-394.7079162750134
 21
88.33929940214394
 31
0.0
  0
LINE
  5
7F
  8
0
 10
365.6521687161526
 20
-181.6687720224524
 30
0.0
 11
365.6521687161526
 21
48.33122797754707
 31
0.0
  0
LINE
  5
80
  8
0
 10
-394.7079162750134
 20
-120.6607005978562
 30
0.0
 11
-388.3579162750133
 21
-120.6607005978562
 31
0.0
  0
LINE
  5
81
  8
0
 10
-452.0175311713571
 20
101.6587389225499
 30
0.0
 11
-512.0175311713568
 21
101.6587389225499
 31
0.0
  0
LINE
  5
82
  8
0
 10
359.1521687161547
 20
91.98122797754725
 30
0.0
 11
359.1521687161547
 21
-225.3187720224528
 31
0.0
  0
LINE
  5
83
  8
0
 10
432.802168716151
 20
-117.0187720224527
 30
0.0
 11
432.802168716151
 21
-16.31877202245249
 31
0.0
  0
LINE
  5
84
  8
0
 10
298.1049743975265
 20
127.844443801065
 30
0.0
 11
48.45497439752661
 21
127.844443801065
 31
0.0
  0
LINE
  5
85
  8
0
 10
-301.8950256024735
 20
207.8444438010649
 30
0.0
 11
298.1049743975265
 21
207.8444438010649
 31
0.0
  0
LINE
  5
86
  8
0
 10
-301.8950256024735
 20
187.8444438010651
 30
0.0
 11
-301.8950256024735
 21
207.8444438010649
 31
0.0
  0
LINE
  5
87
  8
0
 10
-301.8950256024735
 20
187.8444438010651
 30
0.0
 11
-295.5450256024735
 21
187.8444438010651
 31
0.0
  0
LINE
  5
88
  8
0
 10
-301.8950256024735
 20
147.844443801065
 30
0.0
 11
-295.5450256024735
 21
147.844443801065
 31
0.0
  0
LINE
  5
89
  8
0
 10
-301.8950256024735
 20
127.844443801065
 30
0.0
 11
-301.8950256024735
 21
147.844443801065
 31
0.0
  0
LINE
  5
8A
  8
0
 10
-52.24502560247323
 20
127.844443801065
 30
0.0
 11
-301.8950256024735
 21
127.844443801065
 31
0.0
  0
LINE
  5
8B
  8
0
 10
48.45497439752661
 20
134.194443801065
 30
0.0
 11
-52.24502560247323
 21
134.194443801065
 31
0.0
  0
LINE
  5
8C
  8
0
 10
298.1049743975265
 20
147.844443801065
 30
0.0
 11
298.1049743975265
 21
127.844443801065
 31
0.0
  0
LINE
  5
8D
  8
0
 10
298.1049743975265
 20
207.8444438010649
 30
0.0
 11
298.1049743975265
 21
187.8444438010651
 31
0.0
  0
LINE
  5
8E
  8
0
 10
-251.8950256024737
 20
197.8444438010652
 30
0.0
 11
-51.89502560247331
 21
197.8444438010652
 31
0.0
  0
LINE
  5
8F
  8
0
 10
-251.8950256024737
 20
201.3444438010653
 30
0.0
 11
-251.8950256024737
 21
197.8444438010652
 31
0.0
  0
LINE
  5
90
  8
0
 10
-51.89502560247331
 20
201.3444438010653
 30
0.0
 11
-251.8950256024737
 21
201.3444438010653
 31
0.0
  0
LINE
  5
91
  8
0
 10
248.1049743975263
 20
197.8444438010652
 30
0.0
 11
248.1049743975263
 21
201.3444438010653
 31
0.0
  0
LINE
  5
92
  8
0
 10
432.802168716151
 20
-16.31877202245249
 30
0.0
 11
439.1521687161503
 21
-16.31877202245248
 31
0.0
  0
LINE
  5
93
  8
0
 10
439.1521687161503
 20
-16.31877202245248
 30
0.0
 11
439.1521687161503
 21
91.98122797754725
 31
0.0
  0
LINE
  5
94
  8
0
 10
418.802168716152
 20
98.33122797754726
 30
0.0
 11
418.802168716152
 21
91.98122797754725
 31
0.0
  0
LINE
  5
95
  8
0
 10
379.5021687161523
 20
91.98122797754725
 30
0.0
 11
359.1521687161547
 21
91.98122797754725
 31
0.0
  0
LINE
  5
96
  8
0
 10
359.1521687161547
 20
-225.3187720224528
 30
0.0
 11
379.5021687161523
 21
-225.3187720224528
 31
0.0
  0
LINE
  5
97
  8
0
 10
418.802168716152
 20
-225.3187720224528
 30
0.0
 11
439.1521687161503
 21
-225.3187720224528
 31
0.0
  0
LINE
  5
98
  8
0
 10
369.1521687161518
 20
-181.6687720224524
 30
0.0
 11
365.6521687161526
 21
-181.6687720224524
 31
0.0
  0
LINE
  5
99
  8
0
 10
379.1521687161524
 20
-181.6687720224524
 30
0.0
 11
379.1521687161524
 21
48.33122797754707
 31
0.0
  0
LINE
  5
9A
  8
0
 10
419.1521687161498
 20
48.33122797754707
 30
0.0
 11
419.1521687161498
 21
-181.6687720224524
 31
0.0
  0
LINE
  5
9B
  8
0
 10
-335.0579162750132
 20
-235.3107005978565
 30
0.0
 11
-374.3579162750136
 21
-235.3107005978565
 31
0.0
  0
LINE
  5
9C
  8
0
 10
-388.3579162750133
 20
-19.96070059785634
 30
0.0
 11
-394.7079162750134
 21
-19.96070059785634
 31
0.0
  0
LINE
  5
9D
  8
0
 10
-388.3579162750133
 20
-120.6607005978562
 30
0.0
 11
-388.3579162750133
 21
-19.96070059785634
 31
0.0
  0
LINE
  5
9E
  8
0
 10
-374.3579162750136
 20
94.68929940214393
 30
0.0
 11
-335.0579162750132
 21
94.68929940214393
 31
0.0
  0
LINE
  5
9F
  8
0
 10
-512.0175311713568
 20
-186.3412610774503
 30
0.0
 11
-452.0175311713571
 21
-186.3412610774503
 31
0.0
  0
LINE
  5
A0
  8
0
 10
-512.0175311713568
 20
101.6587389225499
 30
0.0
 11
-512.0175311713568
 21
-186.3412610774503
 31
0.0
  0
LINE
  5
A1
  8
0
 10
-586.1950694799358
 20
343.2995316998167
 30
0.0
 11
-586.1950694799358
 21
349.7995316998166
 31
0.0
  0
LINE
  5
A2
  8
0
 10
-586.1950694799358
 20
349.7995316998166
 30
0.0
 11
-542.6950694799357
 21
349.7995316998166
 31
0.0
  0
LINE
  5
A3
  8
0
 10
-551.1950694799351
 20
368.2995316998167
 30
0.0
 11
-551.1950694799351
 21
460.6641662519173
 31
0.0
  0
LINE
  5
A4
  8
0
 10
-693.5353432076109
 20
368.2995316998167
 30
0.0
 11
-551.1950694799351
 21
368.2995316998167
 31
0.0
  0
LINE
  5
A5
  8
0
 10
-693.5353432076109
 20
343.2995316998167
 30
0.0
 11
-586.1950694799358
 21
343.2995316998167
 31
0.0
  0
LINE
  5
A6
  8
0
 10
-536.1950694799357
 20
393.2995316998168
 30
0.0
 11
-536.1950694799357
 21
460.6641662519173
 31
0.0
  0
LINE
  5
A7
  8
0
 10
-542.6950694799357
 20
349.7995316998166
 30
0.0
 11
-542.6950694799357
 21
393.2995316998168
 31
0.0
  0
LINE
  5
A8
  8
0
 10
-536.1950694799357
 20
393.2995316998168
 30
0.0
 11
-542.6950694799357
 21
393.2995316998168
 31
0.0
  0
ENDSEC
  0
EOF
