  0
SECTION
  2
HEADER
  9
$ACADVER
  1
AC1009
  9
$DWGCODEPAGE
  3
undefined
  9
$INSBASE
 10
0.0
 20
0.0
 30
0.0
  9
$EXTMIN
 10
1.000000000000000E+20
 20
1.000000000000000E+20
 30
1.000000000000000E+20
  9
$EXTMAX
 10
-1.000000000000000E+20
 20
-1.000000000000000E+20
 30
-1.000000000000000E+20
  9
$LIMMIN
 10
0.0
 20
0.0
  9
$LIMMAX
 10
12.0
 20
9.0
  9
$ORTHOMODE
 70
     0
  9
$REGENMODE
 70
     1
  9
$FILLMODE
 70
     1
  9
$QTEXTMODE
 70
     0
  9
$MIRRTEXT
 70
     1
  9
$DRAGMODE
 70
     2
  9
$LTSCALE
 40
1.0
  9
$OSMODE
 70
    37
  9
$ATTMODE
 70
     1
  9
$TEXTSIZE
 40
0.2
  9
$TRACEWID
 40
0.05
  9
$TEXTSTYLE
  7
STANDARD
  9
$CLAYER
  8
0
  9
$CELTYPE
  6
BYLAYER
  9
$CECOLOR
 62
   256
  9
$DIMSCALE
 40
1.0
  9
$DIMASZ
 40
0.18
  9
$DIMEXO
 40
0.0625
  9
$DIMDLI
 40
0.38
  9
$DIMRND
 40
0.0
  9
$DIMDLE
 40
0.0
  9
$DIMEXE
 40
0.18
  9
$DIMTP
 40
0.0
  9
$DIMTM
 40
0.0
  9
$DIMTXT
 40
0.18
  9
$DIMCEN
 40
0.09
  9
$DIMTSZ
 40
0.0
  9
$DIMTOL
 70
     0
  9
$DIMLIM
 70
     0
  9
$DIMTIH
 70
     1
  9
$DIMTOH
 70
     1
  9
$DIMSE1
 70
     0
  9
$DIMSE2
 70
     0
  9
$DIMTAD
 70
     0
  9
$DIMZIN
 70
     0
  9
$DIMBLK
  1

  9
$DIMASO
 70
     1
  9
$DIMSHO
 70
     1
  9
$DIMPOST
  1

  9
$DIMAPOST
  1

  9
$DIMALT
 70
     0
  9
$DIMALTD
 70
     2
  9
$DIMALTF
 40
25.4
  9
$DIMLFAC
 40
1.0
  9
$DIMTOFL
 70
     0
  9
$DIMTVP
 40
0.0
  9
$DIMTIX
 70
     0
  9
$DIMSOXD
 70
     0
  9
$DIMSAH
 70
     0
  9
$DIMBLK1
  1

  9
$DIMBLK2
  1

  9
$DIMSTYLE
  2
STANDARD
  9
$DIMCLRD
 70
     0
  9
$DIMCLRE
 70
     0
  9
$DIMCLRT
 70
     0
  9
$DIMTFAC
 40
1.0
  9
$DIMGAP
 40
0.09
  9
$LUNITS
 70
     2
  9
$LUPREC
 70
     4
  9
$SKETCHINC
 40
0.1
  9
$FILLETRAD
 40
0.5
  9
$AUNITS
 70
     0
  9
$AUPREC
 70
     0
  9
$MENU
  1
.
  9
$ELEVATION
 40
0.0
  9
$PELEVATION
 40
0.0
  9
$THICKNESS
 40
0.0
  9
$LIMCHECK
 70
     0
  9
$CHAMFERA
 40
0.5
  9
$CHAMFERB
 40
0.5
  9
$SKPOLY
 70
     0
  9
$TDCREATE
 40
2457085.774768507
  9
$TDUPDATE
 40
2457085.774768519
  9
$TDINDWG
 40
0.0000000116
  9
$TDUSRTIMER
 40
0.0000000116
  9
$USRTIMER
 70
     1
  9
$ANGBASE
 50
0.0
  9
$ANGDIR
 70
     0
  9
$PDMODE
 70
     0
  9
$PDSIZE
 40
0.0
  9
$PLINEWID
 40
0.0
  9
$COORDS
 70
     1
  9
$SPLFRAME
 70
     0
  9
$SPLINETYPE
 70
     6
  9
$SPLINESEGS
 70
     8
  9
$ATTDIA
 70
     0
  9
$ATTREQ
 70
     1
  9
$HANDLING
 70
     1
  9
$HANDSEED
  5
66
  9
$SURFTAB1
 70
     6
  9
$SURFTAB2
 70
     6
  9
$SURFTYPE
 70
     6
  9
$SURFU
 70
     6
  9
$SURFV
 70
     6
  9
$UCSNAME
  2

  9
$UCSORG
 10
0.0
 20
0.0
 30
0.0
  9
$UCSXDIR
 10
1.0
 20
0.0
 30
0.0
  9
$UCSYDIR
 10
0.0
 20
1.0
 30
0.0
  9
$PUCSNAME
  2

  9
$PUCSORG
 10
0.0
 20
0.0
 30
0.0
  9
$PUCSXDIR
 10
1.0
 20
0.0
 30
0.0
  9
$PUCSYDIR
 10
0.0
 20
1.0
 30
0.0
  9
$USERI1
 70
     0
  9
$USERI2
 70
     0
  9
$USERI3
 70
     0
  9
$USERI4
 70
     0
  9
$USERI5
 70
     0
  9
$USERR1
 40
0.0
  9
$USERR2
 40
0.0
  9
$USERR3
 40
0.0
  9
$USERR4
 40
0.0
  9
$USERR5
 40
0.0
  9
$WORLDVIEW
 70
     1
  9
$SHADEDGE
 70
     3
  9
$SHADEDIF
 70
    70
  9
$TILEMODE
 70
     1
  9
$MAXACTVP
 70
    64
  9
$PLIMCHECK
 70
     0
  9
$PEXTMIN
 10
1.000000000000000E+20
 20
1.000000000000000E+20
 30
1.000000000000000E+20
  9
$PEXTMAX
 10
-1.000000000000000E+20
 20
-1.000000000000000E+20
 30
-1.000000000000000E+20
  9
$PLIMMIN
 10
0.0
 20
0.0
  9
$PLIMMAX
 10
12.0
 20
9.0
  9
$UNITMODE
 70
     0
  9
$VISRETAIN
 70
     1
  9
$PLINEGEN
 70
     0
  9
$PSLTSCALE
 70
     1
  0
ENDSEC
  0
SECTION
  2
TABLES
  0
TABLE
  2
VPORT
 70
     1
  0
VPORT
  2
*ACTIVE
 70
     0
 10
0.0
 20
0.0
 11
1.0
 21
1.0
 12
0.0
 22
0.0
 13
0.0
 23
0.0
 14
0.5
 24
0.5
 15
0.5
 25
0.5
 16
0.0
 26
0.0
 36
1.0
 17
0.0
 27
0.0
 37
-1000.0
 40
916.2481811057902
 41
1.505511811023622
 42
50.0
 43
5914.409087713548
 44
7256.662218316575
 50
0.0
 51
0.0
 71
     0
 72
   100
 73
     1
 74
     3
 75
     0
 76
     0
 77
     0
 78
     0
  0
ENDTAB
  0
TABLE
  2
LTYPE
 70
     1
  0
LTYPE
  2
CONTINUOUS
 70
     0
  3
Solid line
 72
    65
 73
     0
 40
0.0
  0
ENDTAB
  0
TABLE
  2
LAYER
 70
     3
  0
LAYER
  2
0
 70
     0
 62
     7
  6
CONTINUOUS
  0
LAYER
  2
PROFILEEDGES
 70
     0
 62
     7
  6
CONTINUOUS
  0
LAYER
  2
SECTIONCUTEDGES
 70
     0
 62
     7
  6
CONTINUOUS
  0
ENDTAB
  0
TABLE
  2
STYLE
 70
     1
  0
STYLE
  2
STANDARD
 70
     0
 40
0.0
 41
1.0
 50
0.0
 71
     0
 42
0.2
  3
txt
  4

  0
ENDTAB
  0
TABLE
  2
VIEW
 70
     0
  0
ENDTAB
  0
TABLE
  2
UCS
 70
     0
  0
ENDTAB
  0
TABLE
  2
APPID
 70
     1
  0
APPID
  2
ACAD
 70
     0
  0
ENDTAB
  0
TABLE
  2
DIMSTYLE
 70
     1
  0
DIMSTYLE
  2
STANDARD
 70
     0
  3

  4

  5

  6

  7

 40
1.0
 41
0.18
 42
0.0625
 43
0.38
 44
0.18
 45
0.0
 46
0.0
 47
0.0
 48
0.0
140
0.18
141
0.09
142
0.0
143
25.4
144
1.0
145
0.0
146
1.0
147
0.09
 71
     0
 72
     0
 73
     1
 74
     1
 75
     0
 76
     0
 77
     0
 78
     0
170
     0
171
     2
172
     0
173
     0
174
     0
175
     0
176
     0
177
     0
178
     0
  0
ENDTAB
  0
ENDSEC
  0
SECTION
  2
BLOCKS
  0
BLOCK
  8
0
  2
$MODEL_SPACE
 70
     0
 10
0.0
 20
0.0
 30
0.0
  3
$MODEL_SPACE
  1

  0
ENDBLK
  5
21
  8
0
  0
BLOCK
 67
     1
  8
0
  2
$PAPER_SPACE
 70
     0
 10
0.0
 20
0.0
 30
0.0
  3
$PAPER_SPACE
  1

  0
ENDBLK
  5
1D
 67
     1
  8
0
  0
ENDSEC
  0
SECTION
  2
ENTITIES
  0
LINE
  5
41
  8
0
 10
351.0547134224079
 20
-63.59243096356342
 30
0.0
 11
351.0547134224079
 21
-20.09243096356321
 31
0.0
  0
LINE
  5
42
  8
0
 10
-242.4452865775918
 20
-337.0924309635637
 30
0.0
 11
-192.4452865775916
 21
-337.0924309635637
 31
0.0
  0
LINE
  5
43
  8
0
 10
307.5547134224076
 20
-343.5924309635636
 30
0.0
 11
307.5547134224076
 21
-337.0924309635637
 31
0.0
  0
LINE
  5
44
  8
0
 10
107.5547134224084
 20
-343.5924309635636
 30
0.0
 11
107.5547134224084
 21
-337.0924309635637
 31
0.0
  0
LINE
  5
45
  8
0
 10
307.5547134224076
 20
-337.0924309635637
 30
0.0
 11
351.0547134224079
 21
-337.0924309635637
 31
0.0
  0
LINE
  5
46
  8
0
 10
-192.4452865775916
 20
-343.5924309635636
 30
0.0
 11
7.554713422408379
 21
-343.5924309635636
 31
0.0
  0
LINE
  5
47
  8
0
 10
45.5863768686846
 20
43.87873533916505
 30
0.0
 11
368.5863768686851
 21
43.87873533916505
 31
0.0
  0
LINE
  5
48
  8
0
 10
368.5863768686851
 20
43.87873533916505
 30
0.0
 11
368.5863768686851
 21
360.8787353391651
 31
0.0
  0
LINE
  5
49
  8
0
 10
368.5863768686851
 20
360.8787353391651
 30
0.0
 11
45.5863768686846
 21
360.8787353391651
 31
0.0
  0
LINE
  5
4A
  8
0
 10
45.5863768686846
 20
360.8787353391651
 30
0.0
 11
45.5863768686846
 21
43.87873533916505
 31
0.0
  0
LINE
  5
4B
  8
0
 10
342.5547134224083
 20
-38.59243096356298
 30
0.0
 11
47.55471342240831
 21
-38.59243096356298
 31
0.0
  0
LINE
  5
4C
  8
0
 10
342.5547134224083
 20
-318.5924309635635
 30
0.0
 11
342.5547134224083
 21
-38.59243096356298
 31
0.0
  0
LINE
  5
4D
  8
0
 10
-242.4452865775918
 20
-20.09243096356321
 30
0.0
 11
-242.4452865775918
 21
-337.0924309635637
 31
0.0
  0
LINE
  5
4E
  8
0
 10
47.55471342240831
 20
-318.5924309635635
 30
0.0
 11
342.5547134224083
 21
-318.5924309635635
 31
0.0
  0
LINE
  5
4F
  8
0
 10
-192.4452865775916
 20
-343.5924309635636
 30
0.0
 11
-192.4452865775916
 21
-337.0924309635637
 31
0.0
  0
LINE
  5
50
  8
0
 10
47.55471342240831
 20
-38.59243096356298
 30
0.0
 11
47.55471342240831
 21
-318.5924309635635
 31
0.0
  0
LINE
  5
51
  8
0
 10
-192.445286577592
 20
-20.09243096356321
 30
0.0
 11
-242.4452865775918
 21
-20.09243096356321
 31
0.0
  0
LINE
  5
52
  8
0
 10
357.5547134224078
 20
-63.59243096356342
 30
0.0
 11
351.0547134224079
 21
-63.59243096356342
 31
0.0
  0
LINE
  5
53
  8
0
 10
-192.445286577592
 20
-13.59243096356325
 30
0.0
 11
-192.445286577592
 21
-20.09243096356321
 31
0.0
  0
LINE
  5
54
  8
0
 10
7.554713422408379
 20
-13.59243096356325
 30
0.0
 11
7.554713422408379
 21
-20.09243096356321
 31
0.0
  0
LINE
  5
55
  8
0
 10
107.5547134224084
 20
-343.5924309635636
 30
0.0
 11
307.5547134224076
 21
-343.5924309635636
 31
0.0
  0
LINE
  5
56
  8
0
 10
351.0547134224079
 20
-20.09243096356321
 30
0.0
 11
307.5547134224084
 21
-20.09243096356321
 31
0.0
  0
LINE
  5
57
  8
0
 10
307.5547134224084
 20
-13.59243096356325
 30
0.0
 11
307.5547134224084
 21
-20.09243096356321
 31
0.0
  0
LINE
  5
58
  8
0
 10
7.554713422408379
 20
-13.59243096356325
 30
0.0
 11
-192.445286577592
 21
-13.59243096356325
 31
0.0
  0
LINE
  5
59
  8
0
 10
357.5547134224078
 20
-293.5924309635635
 30
0.0
 11
357.5547134224078
 21
-63.59243096356342
 31
0.0
  0
LINE
  5
5A
  8
0
 10
7.554713422408379
 20
-343.5924309635636
 30
0.0
 11
7.554713422408379
 21
-337.0924309635637
 31
0.0
  0
LINE
  5
5B
  8
0
 10
107.5547134224084
 20
-13.59243096356325
 30
0.0
 11
107.5547134224084
 21
-20.09243096356321
 31
0.0
  0
LINE
  5
5C
  8
0
 10
307.5547134224084
 20
-13.59243096356325
 30
0.0
 11
107.5547134224084
 21
-13.59243096356325
 31
0.0
  0
LINE
  5
5D
  8
0
 10
351.0547134224079
 20
-337.0924309635637
 30
0.0
 11
351.0547134224079
 21
-293.5924309635635
 31
0.0
  0
LINE
  5
5E
  8
0
 10
7.554713422408379
 20
-337.0924309635637
 30
0.0
 11
107.5547134224084
 21
-337.0924309635637
 31
0.0
  0
LINE
  5
5F
  8
0
 10
357.5547134224078
 20
-293.5924309635635
 30
0.0
 11
351.0547134224079
 21
-293.5924309635635
 31
0.0
  0
LINE
  5
60
  8
0
 10
107.5547134224084
 20
-20.09243096356321
 30
0.0
 11
7.554713422408379
 21
-20.09243096356321
 31
0.0
  0
ENDSEC
  0
EOF
