  0
SECTION
  2
HEADER
  9
$ACADVER
  1
AC1014
  9
$ACADMAINTVER
 70
     9
  9
$DWGCODEPAGE
  3
MAC-ROMAN
  9
$INSBASE
 10
0.0
 20
0.0
 30
0.0
  9
$EXTMIN
 10
1.000000000000000E+20
 20
1.000000000000000E+20
 30
1.000000000000000E+20
  9
$EXTMAX
 10
-1.000000000000000E+20
 20
-1.000000000000000E+20
 30
-1.000000000000000E+20
  9
$LIMMIN
 10
0.0
 20
0.0
  9
$LIMMAX
 10
12.0
 20
9.0
  9
$ORTHOMODE
 70
     0
  9
$REGENMODE
 70
     1
  9
$FILLMODE
 70
     1
  9
$QTEXTMODE
 70
     0
  9
$MIRRTEXT
 70
     1
  9
$DRAGMODE
 70
     2
  9
$LTSCALE
 40
1.0
  9
$OSMODE
 70
    37
  9
$ATTMODE
 70
     1
  9
$TEXTSIZE
 40
0.2
  9
$TRACEWID
 40
0.05
  9
$TEXTSTYLE
  7
STANDARD
  9
$CLAYER
  8
0
  9
$CELTYPE
  6
BYLAYER
  9
$CECOLOR
 62
   256
  9
$CELTSCALE
 40
1.0
  9
$DELOBJ
 70
     1
  9
$DISPSILH
 70
     0
  9
$DIMSCALE
 40
1.0
  9
$DIMASZ
 40
0.18
  9
$DIMEXO
 40
0.0625
  9
$DIMDLI
 40
0.38
  9
$DIMRND
 40
0.0
  9
$DIMDLE
 40
0.0
  9
$DIMEXE
 40
0.18
  9
$DIMTP
 40
0.0
  9
$DIMTM
 40
0.0
  9
$DIMTXT
 40
0.18
  9
$DIMCEN
 40
0.09
  9
$DIMTSZ
 40
0.0
  9
$DIMTOL
 70
     0
  9
$DIMLIM
 70
     0
  9
$DIMTIH
 70
     1
  9
$DIMTOH
 70
     1
  9
$DIMSE1
 70
     0
  9
$DIMSE2
 70
     0
  9
$DIMTAD
 70
     0
  9
$DIMZIN
 70
     0
  9
$DIMBLK
  1

  9
$DIMASO
 70
     1
  9
$DIMSHO
 70
     1
  9
$DIMPOST
  1

  9
$DIMAPOST
  1

  9
$DIMALT
 70
     0
  9
$DIMALTD
 70
     2
  9
$DIMALTF
 40
25.4
  9
$DIMLFAC
 40
1.0
  9
$DIMTOFL
 70
     0
  9
$DIMTVP
 40
0.0
  9
$DIMTIX
 70
     0
  9
$DIMSOXD
 70
     0
  9
$DIMSAH
 70
     0
  9
$DIMBLK1
  1

  9
$DIMBLK2
  1

  9
$DIMSTYLE
  2
STANDARD
  9
$DIMCLRD
 70
     0
  9
$DIMCLRE
 70
     0
  9
$DIMCLRT
 70
     0
  9
$DIMTFAC
 40
1.0
  9
$DIMGAP
 40
0.09
  9
$DIMJUST
 70
     0
  9
$DIMSD1
 70
     0
  9
$DIMSD2
 70
     0
  9
$DIMTOLJ
 70
     1
  9
$DIMTZIN
 70
     0
  9
$DIMALTZ
 70
     0
  9
$DIMALTTZ
 70
     0
  9
$DIMFIT
 70
     3
  9
$DIMUPT
 70
     0
  9
$DIMUNIT
 70
     2
  9
$DIMDEC
 70
     4
  9
$DIMTDEC
 70
     4
  9
$DIMALTU
 70
     2
  9
$DIMALTTD
 70
     2
  9
$DIMTXSTY
  7
STANDARD
  9
$DIMAUNIT
 70
     0
  9
$LUNITS
 70
     2
  9
$LUPREC
 70
     4
  9
$SKETCHINC
 40
0.1
  9
$FILLETRAD
 40
0.5
  9
$AUNITS
 70
     0
  9
$AUPREC
 70
     0
  9
$MENU
  1
.
  9
$ELEVATION
 40
0.0
  9
$PELEVATION
 40
0.0
  9
$THICKNESS
 40
0.0
  9
$LIMCHECK
 70
     0
  9
$CHAMFERA
 40
0.0
  9
$CHAMFERB
 40
0.0
  9
$CHAMFERC
 40
0.0
  9
$CHAMFERD
 40
0.0
  9
$SKPOLY
 70
     0
  9
$TDCREATE
 40
2457093.447453704
  9
$TDUPDATE
 40
2457093.447453704
  9
$TDINDWG
 40
0.0000000116
  9
$TDUSRTIMER
 40
0.0000000116
  9
$USRTIMER
 70
     1
  9
$ANGBASE
 50
0.0
  9
$ANGDIR
 70
     0
  9
$PDMODE
 70
     0
  9
$PDSIZE
 40
0.0
  9
$PLINEWID
 40
0.0
  9
$COORDS
 70
     1
  9
$SPLFRAME
 70
     0
  9
$SPLINETYPE
 70
     6
  9
$SPLINESEGS
 70
     8
  9
$ATTDIA
 70
     0
  9
$ATTREQ
 70
     1
  9
$HANDLING
 70
     1
  9
$HANDSEED
  5
1F2
  9
$SURFTAB1
 70
     6
  9
$SURFTAB2
 70
     6
  9
$SURFTYPE
 70
     6
  9
$SURFU
 70
     6
  9
$SURFV
 70
     6
  9
$UCSNAME
  2

  9
$UCSORG
 10
0.0
 20
0.0
 30
0.0
  9
$UCSXDIR
 10
1.0
 20
0.0
 30
0.0
  9
$UCSYDIR
 10
0.0
 20
1.0
 30
0.0
  9
$PUCSNAME
  2

  9
$PUCSORG
 10
0.0
 20
0.0
 30
0.0
  9
$PUCSXDIR
 10
1.0
 20
0.0
 30
0.0
  9
$PUCSYDIR
 10
0.0
 20
1.0
 30
0.0
  9
$USERI1
 70
     0
  9
$USERI2
 70
     0
  9
$USERI3
 70
     0
  9
$USERI4
 70
     0
  9
$USERI5
 70
     0
  9
$USERR1
 40
0.0
  9
$USERR2
 40
0.0
  9
$USERR3
 40
0.0
  9
$USERR4
 40
0.0
  9
$USERR5
 40
0.0
  9
$WORLDVIEW
 70
     1
  9
$SHADEDGE
 70
     3
  9
$SHADEDIF
 70
    70
  9
$TILEMODE
 70
     1
  9
$MAXACTVP
 70
    64
  9
$PINSBASE
 10
0.0
 20
0.0
 30
0.0
  9
$PLIMCHECK
 70
     0
  9
$PEXTMIN
 10
1.000000000000000E+20
 20
1.000000000000000E+20
 30
1.000000000000000E+20
  9
$PEXTMAX
 10
-1.000000000000000E+20
 20
-1.000000000000000E+20
 30
-1.000000000000000E+20
  9
$PLIMMIN
 10
0.0
 20
0.0
  9
$PLIMMAX
 10
12.0
 20
9.0
  9
$UNITMODE
 70
     0
  9
$VISRETAIN
 70
     1
  9
$PLINEGEN
 70
     0
  9
$PSLTSCALE
 70
     1
  9
$TREEDEPTH
 70
  3020
  9
$PICKSTYLE
 70
     1
  9
$CMLSTYLE
  2
STANDARD
  9
$CMLJUST
 70
     0
  9
$CMLSCALE
 40
1.0
  9
$PROXYGRAPHICS
 70
     1
  9
$MEASUREMENT
 70
     1
  0
ENDSEC
  0
SECTION
  2
CLASSES
  0
CLASS
  1
ACDBDICTIONARYWDFLT
  2
AcDbDictionaryWithDefault
  3
ObjectDBX Classes
 90
        0
280
     0
281
     0
  0
CLASS
  1
VISUALSTYLE
  2
AcDbVisualStyle
  3
ObjectDBX Classes
 90
     4095
280
     0
281
     0
  0
CLASS
  1
MATERIAL
  2
AcDbMaterial
  3
ObjectDBX Classes
 90
     1153
280
     0
281
     0
  0
CLASS
  1
SCALE
  2
AcDbScale
  3
ObjectDBX Classes
 90
     1153
280
     0
281
     0
  0
CLASS
  1
SUN
  2
AcDbSun
  3
SCENEOE
 90
     1153
280
     0
281
     0
  0
CLASS
  1
DICTIONARYVAR
  2
AcDbDictionaryVar
  3
ObjectDBX Classes
 90
        0
280
     0
281
     0
  0
CLASS
  1
XRECORD
  2
AcDbXrecord
  3
ObjectDBX Classes
 90
        0
280
     0
281
     0
  0
CLASS
  1
LWPOLYLINE
  2
AcDbPolyline
  3
ObjectDBX Classes
 90
        0
280
     0
281
     1
  0
CLASS
  1
HATCH
  2
AcDbHatch
  3
ObjectDBX Classes
 90
        0
280
     0
281
     1
  0
CLASS
  1
ACDBPLACEHOLDER
  2
AcDbPlaceHolder
  3
ObjectDBX Classes
 90
        0
280
     0
281
     0
  0
CLASS
  1
LAYOUT
  2
AcDbLayout
  3
ObjectDBX Classes
 90
        0
280
     0
281
     0
  0
ENDSEC
  0
SECTION
  2
TABLES
  0
TABLE
  2
VPORT
  5
8
102
{ACAD_XDICTIONARY
360
1E8
102
}
330
0
100
AcDbSymbolTable
 70
     1
  0
VPORT
  5
29
330
8
100
AcDbSymbolTableRecord
100
AcDbViewportTableRecord
  2
*ACTIVE
 70
     0
 10
0.0
 20
0.0
 11
1.0
 21
1.0
 12
0.0
 22
0.0
 13
0.0
 23
0.0
 14
0.5
 24
0.5
 15
0.5
 25
0.5
 16
0.0
 26
0.0
 36
1.0
 17
0.0
 27
0.0
 37
-1000.0
 40
507.0344648623031
 41
2.038216560509555
 42
50.0
 43
2384.818909172939
 44
3000.358666766926
 50
0.0
 51
0.0
 71
     0
 72
   100
 73
     1
 74
     3
 75
     0
 76
     0
 77
     0
 78
     0
  0
ENDTAB
  0
TABLE
  2
LTYPE
  5
5
330
0
100
AcDbSymbolTable
 70
     1
  0
LTYPE
  5
14
330
5
100
AcDbSymbolTableRecord
100
AcDbLinetypeTableRecord
  2
BYBLOCK
 70
     0
  3

 72
    65
 73
     0
 40
0.0
  0
LTYPE
  5
15
330
5
100
AcDbSymbolTableRecord
100
AcDbLinetypeTableRecord
  2
BYLAYER
 70
     0
  3

 72
    65
 73
     0
 40
0.0
  0
LTYPE
  5
16
330
5
100
AcDbSymbolTableRecord
100
AcDbLinetypeTableRecord
  2
CONTINUOUS
 70
     0
  3
Solid line
 72
    65
 73
     0
 40
0.0
  0
ENDTAB
  0
TABLE
  2
LAYER
  5
2
330
0
100
AcDbSymbolTable
 70
     3
  0
LAYER
  5
10
330
2
100
AcDbSymbolTableRecord
100
AcDbLayerTableRecord
  2
0
 70
     0
 62
     7
  6
CONTINUOUS
  0
LAYER
  5
6A
330
2
100
AcDbSymbolTableRecord
100
AcDbLayerTableRecord
  2
PROFILEEDGES
 70
     0
 62
     7
  6
CONTINUOUS
  0
LAYER
  5
6B
330
2
100
AcDbSymbolTableRecord
100
AcDbLayerTableRecord
  2
SECTIONCUTEDGES
 70
     0
 62
     7
  6
CONTINUOUS
  0
ENDTAB
  0
TABLE
  2
STYLE
  5
3
330
0
100
AcDbSymbolTable
 70
     2
  0
STYLE
  5
11
330
3
100
AcDbSymbolTableRecord
100
AcDbTextStyleTableRecord
  2
STANDARD
 70
     0
 40
0.0
 41
1.0
 50
0.0
 71
     0
 42
0.2
  3
txt
  4

  0
STYLE
  5
1BE
330
3
100
AcDbSymbolTableRecord
100
AcDbTextStyleTableRecord
  2
TAHOMA
 70
     0
 40
0.0
 41
1.0
 50
0.0
 71
     0
 42
0.2
  3
Tahoma
  4

1001
ACAD
1000
Tahoma
1071
       34
  0
ENDTAB
  0
TABLE
  2
VIEW
  5
6
330
0
100
AcDbSymbolTable
 70
     0
  0
ENDTAB
  0
TABLE
  2
UCS
  5
7
330
0
100
AcDbSymbolTable
 70
     0
  0
ENDTAB
  0
TABLE
  2
APPID
  5
9
330
0
100
AcDbSymbolTable
 70
     1
  0
APPID
  5
12
330
9
100
AcDbSymbolTableRecord
100
AcDbRegAppTableRecord
  2
ACAD
 70
     0
  0
ENDTAB
  0
TABLE
  2
DIMSTYLE
  5
A
330
0
100
AcDbSymbolTable
 70
     1
  0
DIMSTYLE
105
27
330
A
100
AcDbSymbolTableRecord
100
AcDbDimStyleTableRecord
  2
STANDARD
 70
     0
  3

  4

  5

  6

  7

 40
1.0
 41
0.18
 42
0.0625
 43
0.38
 44
0.18
 45
0.0
 46
0.0
 47
0.0
 48
0.0
140
0.18
141
0.09
142
0.0
143
25.4
144
1.0
145
0.0
146
1.0
147
0.09
 71
     0
 72
     0
 73
     1
 74
     1
 75
     0
 76
     0
 77
     0
 78
     0
170
     0
171
     2
172
     0
173
     0
174
     0
175
     0
176
     0
177
     0
178
     0
270
     2
271
     4
272
     4
273
     2
274
     2
340
11
275
     0
280
     0
281
     0
282
     0
283
     1
284
     0
285
     0
286
     0
287
     3
288
     0
  0
ENDTAB
  0
TABLE
  2
BLOCK_RECORD
  5
1
330
0
100
AcDbSymbolTable
 70
     1
  0
BLOCK_RECORD
  5
1F
330
1
100
AcDbSymbolTableRecord
100
AcDbBlockTableRecord
  2
*MODEL_SPACE
  0
BLOCK_RECORD
  5
1B
330
1
100
AcDbSymbolTableRecord
100
AcDbBlockTableRecord
  2
*PAPER_SPACE
  0
ENDTAB
  0
ENDSEC
  0
SECTION
  2
BLOCKS
  0
BLOCK
  5
20
330
1F
100
AcDbEntity
  8
0
100
AcDbBlockBegin
  2
*MODEL_SPACE
 70
     0
 10
0.0
 20
0.0
 30
0.0
  3
*MODEL_SPACE
  1

  0
ENDBLK
  5
21
330
1F
100
AcDbEntity
  8
0
100
AcDbBlockEnd
  0
BLOCK
  5
1C
330
1B
100
AcDbEntity
 67
     1
  8
0
100
AcDbBlockBegin
  2
*PAPER_SPACE
 70
     0
 10
0.0
 20
0.0
 30
0.0
  3
*PAPER_SPACE
  1

  0
ENDBLK
  5
1D
330
1B
100
AcDbEntity
 67
     1
  8
0
100
AcDbBlockEnd
  0
ENDSEC
  0
SECTION
  2
ENTITIES
  0
LINE
  5
6C
330
1F
100
AcDbEntity
  8
0
100
AcDbLine
 10
84.16968400134071
 20
-15.42978387307931
 30
0.0
 11
84.1696840013407
 21
55.9702161269207
 31
0.0
  0
LINE
  5
6D
330
1F
100
AcDbEntity
  8
0
100
AcDbLine
 10
160.1696840013408
 20
-91.42978387307934
 30
0.0
 11
160.1696840013408
 21
-20.02978387307934
 31
0.0
  0
LINE
  5
6E
330
1F
100
AcDbEntity
  8
0
100
AcDbLine
 10
88.76968400134075
 20
-91.42978387307934
 30
0.0
 11
160.1696840013408
 21
-91.42978387307934
 31
0.0
  0
LINE
  5
6F
330
1F
100
AcDbEntity
  8
0
100
AcDbLine
 10
236.1696840013408
 20
-15.42978387307931
 30
0.0
 11
236.1696840013408
 21
55.97021612692073
 31
0.0
  0
LINE
  5
70
330
1F
100
AcDbEntity
  8
0
100
AcDbLine
 10
316.9696840013409
 20
-96.2297838730793
 30
0.0
 11
7.969684001340723
 21
-96.22978387307934
 31
0.0
  0
LINE
  5
71
330
1F
100
AcDbEntity
  8
0
100
AcDbLine
 10
164.7696840013408
 20
136.5702161269206
 30
0.0
 11
236.1696840013408
 21
136.5702161269206
 31
0.0
  0
LINE
  5
72
330
1F
100
AcDbEntity
  8
0
100
AcDbLine
 10
240.7696840013409
 20
-91.42978387307934
 30
0.0
 11
312.1696840013408
 21
-91.4297838730793
 31
0.0
  0
LINE
  5
73
330
1F
100
AcDbEntity
  8
0
100
AcDbLine
 10
7.969684001340723
 20
-96.22978387307934
 30
0.0
 11
7.969684001340698
 21
212.7702161269206
 31
0.0
  0
LINE
  5
74
330
1F
100
AcDbEntity
  8
0
100
AcDbLine
 10
316.9696840013405
 20
212.7702161269206
 30
0.0
 11
316.9696840013409
 21
-96.2297838730793
 31
0.0
  0
LINE
  5
75
330
1F
100
AcDbEntity
  8
0
100
AcDbLine
 10
7.969684001340698
 20
212.7702161269206
 30
0.0
 11
316.9696840013405
 21
212.7702161269206
 31
0.0
  0
LINE
  5
76
330
1F
100
AcDbEntity
  8
0
100
AcDbLine
 10
84.1696840013407
 20
207.9702161269206
 30
0.0
 11
12.76968400134069
 21
207.9702161269206
 31
0.0
  0
LINE
  5
77
330
1F
100
AcDbEntity
  8
0
100
AcDbLine
 10
84.1696840013407
 20
136.5702161269206
 30
0.0
 11
84.1696840013407
 21
207.9702161269206
 31
0.0
  0
LINE
  5
78
330
1F
100
AcDbEntity
  8
0
100
AcDbLine
 10
12.76968400134069
 20
136.5702161269206
 30
0.0
 11
84.1696840013407
 21
136.5702161269206
 31
0.0
  0
LINE
  5
79
330
1F
100
AcDbEntity
  8
0
100
AcDbLine
 10
12.76968400134069
 20
207.9702161269206
 30
0.0
 11
12.76968400134069
 21
136.5702161269206
 31
0.0
  0
LINE
  5
7A
330
1F
100
AcDbEntity
  8
0
100
AcDbLine
 10
312.1696840013408
 20
-20.0297838730793
 30
0.0
 11
240.7696840013408
 21
-20.02978387307934
 31
0.0
  0
LINE
  5
7B
330
1F
100
AcDbEntity
  8
0
100
AcDbLine
 10
312.1696840013408
 20
-91.4297838730793
 30
0.0
 11
312.1696840013408
 21
-20.0297838730793
 31
0.0
  0
LINE
  5
7C
330
1F
100
AcDbEntity
  8
0
100
AcDbLine
 10
240.7696840013408
 20
-20.02978387307934
 30
0.0
 11
240.7696840013409
 21
-91.42978387307934
 31
0.0
  0
LINE
  5
7D
330
1F
100
AcDbEntity
  8
0
100
AcDbLine
 10
160.1696840013408
 20
-20.02978387307934
 30
0.0
 11
88.76968400134075
 21
-20.02978387307934
 31
0.0
  0
LINE
  5
7E
330
1F
100
AcDbEntity
  8
0
100
AcDbLine
 10
88.76968400134075
 20
-20.02978387307934
 30
0.0
 11
88.76968400134075
 21
-91.42978387307934
 31
0.0
  0
LINE
  5
7F
330
1F
100
AcDbEntity
  8
0
100
AcDbLine
 10
236.1696840013408
 20
-20.02978387307934
 30
0.0
 11
164.7696840013408
 21
-20.02978387307934
 31
0.0
  0
LINE
  5
80
330
1F
100
AcDbEntity
  8
0
100
AcDbLine
 10
236.1696840013408
 20
-91.42978387307934
 30
0.0
 11
236.1696840013408
 21
-20.02978387307934
 31
0.0
  0
LINE
  5
81
330
1F
100
AcDbEntity
  8
0
100
AcDbLine
 10
164.7696840013408
 20
-91.42978387307934
 30
0.0
 11
236.1696840013408
 21
-91.42978387307934
 31
0.0
  0
LINE
  5
82
330
1F
100
AcDbEntity
  8
0
100
AcDbLine
 10
164.7696840013408
 20
-20.02978387307934
 30
0.0
 11
164.7696840013408
 21
-91.42978387307934
 31
0.0
  0
LINE
  5
83
330
1F
100
AcDbEntity
  8
0
100
AcDbLine
 10
160.1696840013407
 20
131.9702161269205
 30
0.0
 11
88.76968400134074
 21
131.9702161269205
 31
0.0
  0
LINE
  5
84
330
1F
100
AcDbEntity
  8
0
100
AcDbLine
 10
160.1696840013408
 20
60.57021612692058
 30
0.0
 11
160.1696840013407
 21
131.9702161269205
 31
0.0
  0
LINE
  5
85
330
1F
100
AcDbEntity
  8
0
100
AcDbLine
 10
88.76968400134074
 20
60.57021612692056
 30
0.0
 11
160.1696840013408
 21
60.57021612692058
 31
0.0
  0
LINE
  5
86
330
1F
100
AcDbEntity
  8
0
100
AcDbLine
 10
88.76968400134074
 20
131.9702161269205
 30
0.0
 11
88.76968400134074
 21
60.57021612692056
 31
0.0
  0
LINE
  5
87
330
1F
100
AcDbEntity
  8
0
100
AcDbLine
 10
84.1696840013407
 20
131.9702161269205
 30
0.0
 11
12.76968400134069
 21
131.9702161269205
 31
0.0
  0
LINE
  5
88
330
1F
100
AcDbEntity
  8
0
100
AcDbLine
 10
84.1696840013407
 20
60.57021612692056
 30
0.0
 11
84.1696840013407
 21
131.9702161269205
 31
0.0
  0
LINE
  5
89
330
1F
100
AcDbEntity
  8
0
100
AcDbLine
 10
12.7696840013407
 20
60.57021612692056
 30
0.0
 11
84.1696840013407
 21
60.57021612692056
 31
0.0
  0
LINE
  5
8A
330
1F
100
AcDbEntity
  8
0
100
AcDbLine
 10
12.76968400134069
 20
131.9702161269205
 30
0.0
 11
12.7696840013407
 21
60.57021612692056
 31
0.0
  0
LINE
  5
8B
330
1F
100
AcDbEntity
  8
0
100
AcDbLine
 10
84.16968400134071
 20
-20.02978387307934
 30
0.0
 11
12.76968400134071
 21
-20.02978387307934
 31
0.0
  0
LINE
  5
8C
330
1F
100
AcDbEntity
  8
0
100
AcDbLine
 10
84.16968400134071
 20
-91.42978387307934
 30
0.0
 11
84.16968400134071
 21
-20.02978387307934
 31
0.0
  0
LINE
  5
8D
330
1F
100
AcDbEntity
  8
0
100
AcDbLine
 10
12.76968400134071
 20
-91.42978387307934
 30
0.0
 11
84.16968400134071
 21
-91.42978387307934
 31
0.0
  0
LINE
  5
8E
330
1F
100
AcDbEntity
  8
0
100
AcDbLine
 10
12.76968400134071
 20
-20.02978387307934
 30
0.0
 11
12.76968400134071
 21
-91.42978387307934
 31
0.0
  0
LINE
  5
8F
330
1F
100
AcDbEntity
  8
0
100
AcDbLine
 10
236.1696840013408
 20
131.9702161269206
 30
0.0
 11
164.7696840013408
 21
131.9702161269205
 31
0.0
  0
LINE
  5
90
330
1F
100
AcDbEntity
  8
0
100
AcDbLine
 10
236.1696840013408
 20
60.57021612692058
 30
0.0
 11
236.1696840013408
 21
131.9702161269206
 31
0.0
  0
LINE
  5
91
330
1F
100
AcDbEntity
  8
0
100
AcDbLine
 10
164.7696840013408
 20
60.57021612692058
 30
0.0
 11
236.1696840013408
 21
60.57021612692058
 31
0.0
  0
LINE
  5
92
330
1F
100
AcDbEntity
  8
0
100
AcDbLine
 10
164.7696840013408
 20
131.9702161269205
 30
0.0
 11
164.7696840013408
 21
60.57021612692058
 31
0.0
  0
LINE
  5
93
330
1F
100
AcDbEntity
  8
0
100
AcDbLine
 10
84.1696840013407
 20
55.9702161269207
 30
0.0
 11
12.7696840013407
 21
55.9702161269207
 31
0.0
  0
LINE
  5
94
330
1F
100
AcDbEntity
  8
0
100
AcDbLine
 10
12.76968400134071
 20
-15.42978387307931
 30
0.0
 11
84.16968400134071
 21
-15.42978387307931
 31
0.0
  0
LINE
  5
95
330
1F
100
AcDbEntity
  8
0
100
AcDbLine
 10
12.7696840013407
 20
55.9702161269207
 30
0.0
 11
12.76968400134071
 21
-15.42978387307931
 31
0.0
  0
LINE
  5
96
330
1F
100
AcDbEntity
  8
0
100
AcDbLine
 10
160.1696840013408
 20
55.97021612692073
 30
0.0
 11
88.76968400134074
 21
55.9702161269207
 31
0.0
  0
LINE
  5
97
330
1F
100
AcDbEntity
  8
0
100
AcDbLine
 10
160.1696840013408
 20
-15.42978387307931
 30
0.0
 11
160.1696840013408
 21
55.97021612692073
 31
0.0
  0
LINE
  5
98
330
1F
100
AcDbEntity
  8
0
100
AcDbLine
 10
88.76968400134075
 20
-15.42978387307931
 30
0.0
 11
160.1696840013408
 21
-15.42978387307931
 31
0.0
  0
LINE
  5
99
330
1F
100
AcDbEntity
  8
0
100
AcDbLine
 10
88.76968400134074
 20
55.9702161269207
 30
0.0
 11
88.76968400134075
 21
-15.42978387307931
 31
0.0
  0
LINE
  5
9A
330
1F
100
AcDbEntity
  8
0
100
AcDbLine
 10
236.1696840013408
 20
55.97021612692073
 30
0.0
 11
164.7696840013408
 21
55.97021612692073
 31
0.0
  0
LINE
  5
9B
330
1F
100
AcDbEntity
  8
0
100
AcDbLine
 10
164.7696840013408
 20
-15.42978387307931
 30
0.0
 11
236.1696840013408
 21
-15.42978387307931
 31
0.0
  0
LINE
  5
9C
330
1F
100
AcDbEntity
  8
0
100
AcDbLine
 10
164.7696840013408
 20
55.97021612692073
 30
0.0
 11
164.7696840013408
 21
-15.42978387307931
 31
0.0
  0
LINE
  5
9D
330
1F
100
AcDbEntity
  8
0
100
AcDbLine
 10
312.1696840013408
 20
55.97021612692073
 30
0.0
 11
240.7696840013408
 21
55.97021612692073
 31
0.0
  0
LINE
  5
9E
330
1F
100
AcDbEntity
  8
0
100
AcDbLine
 10
312.1696840013408
 20
-15.42978387307926
 30
0.0
 11
312.1696840013408
 21
55.97021612692073
 31
0.0
  0
LINE
  5
9F
330
1F
100
AcDbEntity
  8
0
100
AcDbLine
 10
240.7696840013408
 20
-15.42978387307931
 30
0.0
 11
312.1696840013408
 21
-15.42978387307926
 31
0.0
  0
LINE
  5
A0
330
1F
100
AcDbEntity
  8
0
100
AcDbLine
 10
240.7696840013408
 20
55.97021612692073
 30
0.0
 11
240.7696840013408
 21
-15.42978387307931
 31
0.0
  0
LINE
  5
A1
330
1F
100
AcDbEntity
  8
0
100
AcDbLine
 10
312.1696840013408
 20
131.9702161269206
 30
0.0
 11
240.7696840013408
 21
131.9702161269206
 31
0.0
  0
LINE
  5
A2
330
1F
100
AcDbEntity
  8
0
100
AcDbLine
 10
312.1696840013408
 20
60.57021612692058
 30
0.0
 11
312.1696840013408
 21
131.9702161269206
 31
0.0
  0
LINE
  5
A3
330
1F
100
AcDbEntity
  8
0
100
AcDbLine
 10
240.7696840013408
 20
60.57021612692058
 30
0.0
 11
312.1696840013408
 21
60.57021612692058
 31
0.0
  0
LINE
  5
A4
330
1F
100
AcDbEntity
  8
0
100
AcDbLine
 10
240.7696840013408
 20
131.9702161269206
 30
0.0
 11
240.7696840013408
 21
60.57021612692058
 31
0.0
  0
LINE
  5
A5
330
1F
100
AcDbEntity
  8
0
100
AcDbLine
 10
236.1696840013408
 20
207.9702161269206
 30
0.0
 11
164.7696840013408
 21
207.9702161269206
 31
0.0
  0
LINE
  5
A6
330
1F
100
AcDbEntity
  8
0
100
AcDbLine
 10
236.1696840013408
 20
136.5702161269206
 30
0.0
 11
236.1696840013408
 21
207.9702161269206
 31
0.0
  0
LINE
  5
A7
330
1F
100
AcDbEntity
  8
0
100
AcDbLine
 10
164.7696840013408
 20
207.9702161269206
 30
0.0
 11
164.7696840013408
 21
136.5702161269206
 31
0.0
  0
LINE
  5
A8
330
1F
100
AcDbEntity
  8
0
100
AcDbLine
 10
160.1696840013407
 20
207.9702161269206
 30
0.0
 11
88.76968400134074
 21
207.9702161269206
 31
0.0
  0
LINE
  5
A9
330
1F
100
AcDbEntity
  8
0
100
AcDbLine
 10
160.1696840013407
 20
136.5702161269206
 30
0.0
 11
160.1696840013407
 21
207.9702161269206
 31
0.0
  0
LINE
  5
AA
330
1F
100
AcDbEntity
  8
0
100
AcDbLine
 10
88.76968400134074
 20
136.5702161269206
 30
0.0
 11
160.1696840013407
 21
136.5702161269206
 31
0.0
  0
LINE
  5
AB
330
1F
100
AcDbEntity
  8
0
100
AcDbLine
 10
88.76968400134074
 20
207.9702161269206
 30
0.0
 11
88.76968400134074
 21
136.5702161269206
 31
0.0
  0
LINE
  5
AC
330
1F
100
AcDbEntity
  8
0
100
AcDbLine
 10
312.1696840013408
 20
207.9702161269206
 30
0.0
 11
240.7696840013408
 21
207.9702161269206
 31
0.0
  0
LINE
  5
AD
330
1F
100
AcDbEntity
  8
0
100
AcDbLine
 10
312.1696840013408
 20
136.5702161269206
 30
0.0
 11
312.1696840013408
 21
207.9702161269206
 31
0.0
  0
LINE
  5
AE
330
1F
100
AcDbEntity
  8
0
100
AcDbLine
 10
240.7696840013408
 20
136.5702161269206
 30
0.0
 11
312.1696840013408
 21
136.5702161269206
 31
0.0
  0
LINE
  5
AF
330
1F
100
AcDbEntity
  8
0
100
AcDbLine
 10
240.7696840013408
 20
207.9702161269206
 30
0.0
 11
240.7696840013408
 21
136.5702161269206
 31
0.0
  0
LINE
  5
B0
330
1F
100
AcDbEntity
  8
0
100
AcDbLine
 10
325.5676757117766
 20
221.9752770229985
 30
0.0
 11
325.5676757117766
 21
-228.0247229770015
 31
0.0
  0
LINE
  5
B1
330
1F
100
AcDbEntity
  8
0
100
AcDbLine
 10
-274.4323242882233
 20
221.9752770229984
 30
0.0
 11
325.5676757117766
 21
221.9752770229985
 31
0.0
  0
LINE
  5
B2
330
1F
100
AcDbEntity
  8
0
100
AcDbLine
 10
-274.4323242882233
 20
-228.0247229770015
 30
0.0
 11
-274.4323242882233
 21
221.9752770229984
 31
0.0
  0
LINE
  5
B3
330
1F
100
AcDbEntity
  8
0
100
AcDbLine
 10
325.5676757117766
 20
-228.0247229770015
 30
0.0
 11
-274.4323242882233
 21
-228.0247229770015
 31
0.0
  0
LINE
  5
B4
330
1F
100
AcDbEntity
  8
0
100
AcDbLine
 10
84.49331751741985
 20
-146.7269586392808
 30
0.0
 11
77.09331751741992
 21
-146.7269586392808
 31
0.0
  0
LINE
  5
B5
330
1F
100
AcDbEntity
  8
0
100
AcDbLine
 10
26.09331751741997
 20
-170.2269586392809
 30
0.0
 11
26.09331751741997
 21
-163.326958639281
 31
0.0
  0
LINE
  5
B6
330
1F
100
AcDbEntity
  8
0
100
AcDbLine
 10
77.09331751741992
 20
-146.7269586392808
 30
0.0
 11
77.09331751741992
 21
-163.326958639281
 31
0.0
  0
LINE
  5
B7
330
1F
100
AcDbEntity
  8
0
100
AcDbLine
 10
176.8933175174198
 20
-163.326958639281
 30
0.0
 11
159.8933175174199
 21
-163.326958639281
 31
0.0
  0
LINE
  5
B8
330
1F
100
AcDbEntity
  8
0
100
AcDbLine
 10
1.693317517419922
 20
-124.2269586392809
 30
0.0
 11
1.693317517419924
 21
-146.7269586392808
 31
0.0
  0
LINE
  5
B9
330
1F
100
AcDbEntity
  8
0
100
AcDbLine
 10
9.093317517419864
 20
-146.7269586392808
 30
0.0
 11
1.693317517419924
 21
-146.7269586392808
 31
0.0
  0
LINE
  5
BA
330
1F
100
AcDbEntity
  8
0
100
AcDbLine
 10
9.093317517419866
 20
-163.326958639281
 30
0.0
 11
9.093317517419864
 21
-146.7269586392808
 31
0.0
  0
LINE
  5
BB
330
1F
100
AcDbEntity
  8
0
100
AcDbLine
 10
9.093317517419866
 20
-163.326958639281
 30
0.0
 11
26.09331751741997
 21
-163.326958639281
 31
0.0
  0
LINE
  5
BC
330
1F
100
AcDbEntity
  8
0
100
AcDbLine
 10
26.09331751741997
 20
-170.2269586392809
 30
0.0
 11
60.09331751742
 21
-170.2269586392809
 31
0.0
  0
LINE
  5
BD
330
1F
100
AcDbEntity
  8
0
100
AcDbLine
 10
60.09331751742
 20
-170.2269586392809
 30
0.0
 11
60.09331751742
 21
-163.326958639281
 31
0.0
  0
LINE
  5
BE
330
1F
100
AcDbEntity
  8
0
100
AcDbLine
 10
60.09331751742
 20
-163.326958639281
 30
0.0
 11
77.09331751741992
 21
-163.326958639281
 31
0.0
  0
LINE
  5
BF
330
1F
100
AcDbEntity
  8
0
100
AcDbLine
 10
84.49331751741985
 20
-163.326958639281
 30
0.0
 11
84.49331751741985
 21
-146.7269586392808
 31
0.0
  0
LINE
  5
C0
330
1F
100
AcDbEntity
  8
0
100
AcDbLine
 10
84.49331751741985
 20
-163.326958639281
 30
0.0
 11
101.49331751742
 21
-163.326958639281
 31
0.0
  0
LINE
  5
C1
330
1F
100
AcDbEntity
  8
0
100
AcDbLine
 10
101.4933175174198
 20
-170.2269586392809
 30
0.0
 11
101.49331751742
 21
-163.326958639281
 31
0.0
  0
LINE
  5
C2
330
1F
100
AcDbEntity
  8
0
100
AcDbLine
 10
101.4933175174198
 20
-170.2269586392809
 30
0.0
 11
135.4933175174198
 21
-170.2269586392812
 31
0.0
  0
LINE
  5
C3
330
1F
100
AcDbEntity
  8
0
100
AcDbLine
 10
135.4933175174198
 20
-170.2269586392812
 30
0.0
 11
135.4933175174198
 21
-163.326958639281
 31
0.0
  0
LINE
  5
C4
330
1F
100
AcDbEntity
  8
0
100
AcDbLine
 10
135.4933175174198
 20
-163.326958639281
 30
0.0
 11
152.4933175174199
 21
-163.326958639281
 31
0.0
  0
LINE
  5
C5
330
1F
100
AcDbEntity
  8
0
100
AcDbLine
 10
152.4933175174199
 20
-146.7269586392812
 30
0.0
 11
152.4933175174199
 21
-163.326958639281
 31
0.0
  0
LINE
  5
C6
330
1F
100
AcDbEntity
  8
0
100
AcDbLine
 10
159.8933175174199
 20
-146.7269586392812
 30
0.0
 11
152.4933175174199
 21
-146.7269586392812
 31
0.0
  0
LINE
  5
C7
330
1F
100
AcDbEntity
  8
0
100
AcDbLine
 10
159.8933175174199
 20
-163.326958639281
 30
0.0
 11
159.8933175174199
 21
-146.7269586392812
 31
0.0
  0
LINE
  5
C8
330
1F
100
AcDbEntity
  8
0
100
AcDbLine
 10
176.8933175174198
 20
-170.2269586392812
 30
0.0
 11
176.8933175174198
 21
-163.326958639281
 31
0.0
  0
LINE
  5
C9
330
1F
100
AcDbEntity
  8
0
100
AcDbLine
 10
176.8933175174198
 20
-170.2269586392812
 30
0.0
 11
210.8933175174198
 21
-170.2269586392812
 31
0.0
  0
LINE
  5
CA
330
1F
100
AcDbEntity
  8
0
100
AcDbLine
 10
210.8933175174198
 20
-170.2269586392812
 30
0.0
 11
210.8933175174198
 21
-163.3269586392813
 31
0.0
  0
LINE
  5
CB
330
1F
100
AcDbEntity
  8
0
100
AcDbLine
 10
210.8933175174198
 20
-163.3269586392813
 30
0.0
 11
227.8933175174197
 21
-163.3269586392813
 31
0.0
  0
LINE
  5
CC
330
1F
100
AcDbEntity
  8
0
100
AcDbLine
 10
227.8933175174197
 20
-146.7269586392812
 30
0.0
 11
227.8933175174197
 21
-163.3269586392813
 31
0.0
  0
LINE
  5
CD
330
1F
100
AcDbEntity
  8
0
100
AcDbLine
 10
235.2933175174199
 20
-146.7269586392812
 30
0.0
 11
227.8933175174197
 21
-146.7269586392812
 31
0.0
  0
LINE
  5
CE
330
1F
100
AcDbEntity
  8
0
100
AcDbLine
 10
235.2933175174199
 20
-163.3269586392813
 30
0.0
 11
235.2933175174199
 21
-146.7269586392812
 31
0.0
  0
LINE
  5
CF
330
1F
100
AcDbEntity
  8
0
100
AcDbLine
 10
252.2933175174198
 20
-163.3269586392813
 30
0.0
 11
235.2933175174199
 21
-163.3269586392813
 31
0.0
  0
LINE
  5
D0
330
1F
100
AcDbEntity
  8
0
100
AcDbLine
 10
252.2933175174198
 20
-170.2269586392812
 30
0.0
 11
252.2933175174198
 21
-163.3269586392813
 31
0.0
  0
LINE
  5
D1
330
1F
100
AcDbEntity
  8
0
100
AcDbLine
 10
252.2933175174198
 20
-170.2269586392812
 30
0.0
 11
286.2933175174198
 21
-170.2269586392812
 31
0.0
  0
LINE
  5
D2
330
1F
100
AcDbEntity
  8
0
100
AcDbLine
 10
286.2933175174198
 20
-170.2269586392812
 30
0.0
 11
286.2933175174198
 21
-163.3269586392813
 31
0.0
  0
LINE
  5
D3
330
1F
100
AcDbEntity
  8
0
100
AcDbLine
 10
286.2933175174198
 20
-163.3269586392813
 30
0.0
 11
303.2933175174197
 21
-163.3269586392813
 31
0.0
  0
LINE
  5
D4
330
1F
100
AcDbEntity
  8
0
100
AcDbLine
 10
303.2933175174197
 20
-146.7269586392812
 30
0.0
 11
303.2933175174197
 21
-163.3269586392813
 31
0.0
  0
LINE
  5
D5
330
1F
100
AcDbEntity
  8
0
100
AcDbLine
 10
310.6933175174196
 20
-146.7269586392812
 30
0.0
 11
303.2933175174197
 21
-146.7269586392812
 31
0.0
  0
LINE
  5
D6
330
1F
100
AcDbEntity
  8
0
100
AcDbLine
 10
310.6933175174196
 20
-146.7269586392812
 30
0.0
 11
310.6933175174196
 21
-124.2269586392812
 31
0.0
  0
LINE
  5
D7
330
1F
100
AcDbEntity
  8
0
100
AcDbLine
 10
310.6933175174196
 20
-124.2269586392812
 30
0.0
 11
1.693317517419922
 21
-124.2269586392809
 31
0.0
  0
LINE
  5
D8
330
1F
100
AcDbEntity
  8
0
100
AcDbLine
 10
-37.47735147628014
 20
-15.12713599219356
 30
0.0
 11
-37.47735147628014
 21
-22.5271359921935
 31
0.0
  0
LINE
  5
D9
330
1F
100
AcDbEntity
  8
0
100
AcDbLine
 10
-13.97735147628007
 20
-73.52713599219345
 30
0.0
 11
-20.87735147627994
 21
-73.52713599219345
 31
0.0
  0
LINE
  5
DA
330
1F
100
AcDbEntity
  8
0
100
AcDbLine
 10
-37.47735147628014
 20
-22.5271359921935
 30
0.0
 11
-20.87735147627994
 21
-22.5271359921935
 31
0.0
  0
LINE
  5
DB
330
1F
100
AcDbEntity
  8
0
100
AcDbLine
 10
-20.87735147627994
 20
77.27286400780636
 30
0.0
 11
-20.87735147627994
 21
60.27286400780644
 31
0.0
  0
LINE
  5
DC
330
1F
100
AcDbEntity
  8
0
100
AcDbLine
 10
-59.97735147628008
 20
-97.9271359921935
 30
0.0
 11
-37.47735147628014
 21
-97.9271359921935
 31
0.0
  0
LINE
  5
DD
330
1F
100
AcDbEntity
  8
0
100
AcDbLine
 10
-37.47735147628014
 20
-90.52713599219355
 30
0.0
 11
-37.47735147628014
 21
-97.9271359921935
 31
0.0
  0
LINE
  5
DE
330
1F
100
AcDbEntity
  8
0
100
AcDbLine
 10
-20.87735147627994
 20
-90.52713599219355
 30
0.0
 11
-37.47735147628014
 21
-90.52713599219355
 31
0.0
  0
LINE
  5
DF
330
1F
100
AcDbEntity
  8
0
100
AcDbLine
 10
-20.87735147627994
 20
-90.52713599219355
 30
0.0
 11
-20.87735147627994
 21
-73.52713599219345
 31
0.0
  0
LINE
  5
E0
330
1F
100
AcDbEntity
  8
0
100
AcDbLine
 10
-13.97735147628007
 20
-73.52713599219345
 30
0.0
 11
-13.97735147628007
 21
-39.52713599219342
 31
0.0
  0
LINE
  5
E1
330
1F
100
AcDbEntity
  8
0
100
AcDbLine
 10
-13.97735147628007
 20
-39.52713599219342
 30
0.0
 11
-20.87735147627994
 21
-39.52713599219342
 31
0.0
  0
LINE
  5
E2
330
1F
100
AcDbEntity
  8
0
100
AcDbLine
 10
-20.87735147627994
 20
-39.52713599219342
 30
0.0
 11
-20.87735147627994
 21
-22.5271359921935
 31
0.0
  0
LINE
  5
E3
330
1F
100
AcDbEntity
  8
0
100
AcDbLine
 10
-20.87735147627994
 20
-15.12713599219356
 30
0.0
 11
-37.47735147628014
 21
-15.12713599219356
 31
0.0
  0
LINE
  5
E4
330
1F
100
AcDbEntity
  8
0
100
AcDbLine
 10
-20.87735147627994
 20
-15.12713599219356
 30
0.0
 11
-20.87735147627994
 21
1.872864007806548
 31
0.0
  0
LINE
  5
E5
330
1F
100
AcDbEntity
  8
0
100
AcDbLine
 10
-13.97735147628007
 20
1.872864007806368
 30
0.0
 11
-20.87735147627994
 21
1.872864007806548
 31
0.0
  0
LINE
  5
E6
330
1F
100
AcDbEntity
  8
0
100
AcDbLine
 10
-13.97735147628007
 20
1.872864007806368
 30
0.0
 11
-13.97735147627971
 21
35.8728640078064
 31
0.0
  0
LINE
  5
E7
330
1F
100
AcDbEntity
  8
0
100
AcDbLine
 10
-13.97735147627971
 20
35.8728640078064
 30
0.0
 11
-20.87735147627994
 21
35.8728640078064
 31
0.0
  0
LINE
  5
E8
330
1F
100
AcDbEntity
  8
0
100
AcDbLine
 10
-20.87735147627994
 20
35.8728640078064
 30
0.0
 11
-20.87735147627994
 21
52.8728640078065
 31
0.0
  0
LINE
  5
E9
330
1F
100
AcDbEntity
  8
0
100
AcDbLine
 10
-37.47735147627978
 20
52.8728640078065
 30
0.0
 11
-20.87735147627994
 21
52.8728640078065
 31
0.0
  0
LINE
  5
EA
330
1F
100
AcDbEntity
  8
0
100
AcDbLine
 10
-37.47735147627978
 20
60.27286400780644
 30
0.0
 11
-37.47735147627978
 21
52.8728640078065
 31
0.0
  0
LINE
  5
EB
330
1F
100
AcDbEntity
  8
0
100
AcDbLine
 10
-20.87735147627994
 20
60.27286400780644
 30
0.0
 11
-37.47735147627978
 21
60.27286400780644
 31
0.0
  0
LINE
  5
EC
330
1F
100
AcDbEntity
  8
0
100
AcDbLine
 10
-13.97735147627971
 20
77.27286400780636
 30
0.0
 11
-20.87735147627994
 21
77.27286400780636
 31
0.0
  0
LINE
  5
ED
330
1F
100
AcDbEntity
  8
0
100
AcDbLine
 10
-13.97735147627971
 20
77.27286400780636
 30
0.0
 11
-13.97735147627971
 21
111.2728640078064
 31
0.0
  0
LINE
  5
EE
330
1F
100
AcDbEntity
  8
0
100
AcDbLine
 10
-13.97735147627971
 20
111.2728640078064
 30
0.0
 11
-20.87735147627959
 21
111.2728640078064
 31
0.0
  0
LINE
  5
EF
330
1F
100
AcDbEntity
  8
0
100
AcDbLine
 10
-20.87735147627959
 20
111.2728640078064
 30
0.0
 11
-20.87735147627959
 21
128.2728640078063
 31
0.0
  0
LINE
  5
F0
330
1F
100
AcDbEntity
  8
0
100
AcDbLine
 10
-37.47735147627978
 20
128.2728640078063
 30
0.0
 11
-20.87735147627959
 21
128.2728640078063
 31
0.0
  0
LINE
  5
F1
330
1F
100
AcDbEntity
  8
0
100
AcDbLine
 10
-37.47735147627978
 20
135.6728640078064
 30
0.0
 11
-37.47735147627978
 21
128.2728640078063
 31
0.0
  0
LINE
  5
F2
330
1F
100
AcDbEntity
  8
0
100
AcDbLine
 10
-20.87735147627959
 20
135.6728640078064
 30
0.0
 11
-37.47735147627978
 21
135.6728640078064
 31
0.0
  0
LINE
  5
F3
330
1F
100
AcDbEntity
  8
0
100
AcDbLine
 10
-20.87735147627959
 20
152.6728640078064
 30
0.0
 11
-20.87735147627959
 21
135.6728640078064
 31
0.0
  0
LINE
  5
F4
330
1F
100
AcDbEntity
  8
0
100
AcDbLine
 10
-13.97735147627971
 20
152.6728640078064
 30
0.0
 11
-20.87735147627959
 21
152.6728640078064
 31
0.0
  0
LINE
  5
F5
330
1F
100
AcDbEntity
  8
0
100
AcDbLine
 10
-13.97735147627971
 20
152.6728640078064
 30
0.0
 11
-13.97735147627971
 21
186.6728640078064
 31
0.0
  0
LINE
  5
F6
330
1F
100
AcDbEntity
  8
0
100
AcDbLine
 10
-13.97735147627971
 20
186.6728640078064
 30
0.0
 11
-20.87735147627959
 21
186.6728640078064
 31
0.0
  0
LINE
  5
F7
330
1F
100
AcDbEntity
  8
0
100
AcDbLine
 10
-20.87735147627959
 20
186.6728640078064
 30
0.0
 11
-20.87735147627959
 21
203.6728640078063
 31
0.0
  0
LINE
  5
F8
330
1F
100
AcDbEntity
  8
0
100
AcDbLine
 10
-37.47735147627978
 20
203.6728640078063
 30
0.0
 11
-20.87735147627959
 21
203.6728640078063
 31
0.0
  0
LINE
  5
F9
330
1F
100
AcDbEntity
  8
0
100
AcDbLine
 10
-37.47735147627978
 20
211.0728640078063
 30
0.0
 11
-37.47735147627978
 21
203.6728640078063
 31
0.0
  0
LINE
  5
FA
330
1F
100
AcDbEntity
  8
0
100
AcDbLine
 10
-37.47735147627978
 20
211.0728640078063
 30
0.0
 11
-59.97735147627971
 21
211.0728640078063
 31
0.0
  0
LINE
  5
FB
330
1F
100
AcDbEntity
  8
0
100
AcDbLine
 10
-59.97735147627971
 20
211.0728640078063
 30
0.0
 11
-59.97735147628008
 21
-97.9271359921935
 31
0.0
  0
LINE
  5
FC
330
1F
100
AcDbEntity
  8
0
100
AcDbLine
 10
-97.37735147628024
 20
-15.12713599219301
 30
0.0
 11
-97.37735147628024
 21
-22.52713599219296
 31
0.0
  0
LINE
  5
FD
330
1F
100
AcDbEntity
  8
0
100
AcDbLine
 10
-73.87735147628017
 20
-73.52713599219291
 30
0.0
 11
-80.77735147628003
 21
-73.52713599219291
 31
0.0
  0
LINE
  5
FE
330
1F
100
AcDbEntity
  8
0
100
AcDbLine
 10
-97.37735147628024
 20
-22.52713599219296
 30
0.0
 11
-80.77735147628003
 21
-22.52713599219296
 31
0.0
  0
LINE
  5
FF
330
1F
100
AcDbEntity
  8
0
100
AcDbLine
 10
-80.77735147628003
 20
77.2728640078069
 30
0.0
 11
-80.77735147628003
 21
60.27286400780698
 31
0.0
  0
LINE
  5
100
330
1F
100
AcDbEntity
  8
0
100
AcDbLine
 10
-119.8773514762802
 20
-97.92713599219296
 30
0.0
 11
-97.37735147628024
 21
-97.92713599219296
 31
0.0
  0
LINE
  5
101
330
1F
100
AcDbEntity
  8
0
100
AcDbLine
 10
-97.37735147628024
 20
-90.52713599219301
 30
0.0
 11
-97.37735147628024
 21
-97.92713599219296
 31
0.0
  0
LINE
  5
102
330
1F
100
AcDbEntity
  8
0
100
AcDbLine
 10
-80.77735147628003
 20
-90.52713599219301
 30
0.0
 11
-97.37735147628024
 21
-90.52713599219301
 31
0.0
  0
LINE
  5
103
330
1F
100
AcDbEntity
  8
0
100
AcDbLine
 10
-80.77735147628003
 20
-90.52713599219301
 30
0.0
 11
-80.77735147628003
 21
-73.52713599219291
 31
0.0
  0
LINE
  5
104
330
1F
100
AcDbEntity
  8
0
100
AcDbLine
 10
-73.87735147628017
 20
-73.52713599219291
 30
0.0
 11
-73.87735147628017
 21
-39.52713599219288
 31
0.0
  0
LINE
  5
105
330
1F
100
AcDbEntity
  8
0
100
AcDbLine
 10
-73.87735147628017
 20
-39.52713599219288
 30
0.0
 11
-80.77735147628003
 21
-39.52713599219288
 31
0.0
  0
LINE
  5
106
330
1F
100
AcDbEntity
  8
0
100
AcDbLine
 10
-80.77735147628003
 20
-39.52713599219288
 30
0.0
 11
-80.77735147628003
 21
-22.52713599219296
 31
0.0
  0
LINE
  5
107
330
1F
100
AcDbEntity
  8
0
100
AcDbLine
 10
-80.77735147628003
 20
-15.12713599219301
 30
0.0
 11
-97.37735147628024
 21
-15.12713599219301
 31
0.0
  0
LINE
  5
108
330
1F
100
AcDbEntity
  8
0
100
AcDbLine
 10
-80.77735147628003
 20
-15.12713599219301
 30
0.0
 11
-80.77735147628003
 21
1.87286400780709
 31
0.0
  0
LINE
  5
109
330
1F
100
AcDbEntity
  8
0
100
AcDbLine
 10
-73.87735147628017
 20
1.872864007806909
 30
0.0
 11
-80.77735147628003
 21
1.87286400780709
 31
0.0
  0
LINE
  5
10A
330
1F
100
AcDbEntity
  8
0
100
AcDbLine
 10
-73.87735147628017
 20
1.872864007806909
 30
0.0
 11
-73.8773514762798
 21
35.87286400780694
 31
0.0
  0
LINE
  5
10B
330
1F
100
AcDbEntity
  8
0
100
AcDbLine
 10
-73.8773514762798
 20
35.87286400780694
 30
0.0
 11
-80.77735147628003
 21
35.87286400780694
 31
0.0
  0
LINE
  5
10C
330
1F
100
AcDbEntity
  8
0
100
AcDbLine
 10
-80.77735147628003
 20
35.87286400780694
 30
0.0
 11
-80.77735147628003
 21
52.87286400780704
 31
0.0
  0
LINE
  5
10D
330
1F
100
AcDbEntity
  8
0
100
AcDbLine
 10
-97.37735147627987
 20
52.87286400780704
 30
0.0
 11
-80.77735147628003
 21
52.87286400780704
 31
0.0
  0
LINE
  5
10E
330
1F
100
AcDbEntity
  8
0
100
AcDbLine
 10
-97.37735147627987
 20
60.27286400780698
 30
0.0
 11
-97.37735147627987
 21
52.87286400780704
 31
0.0
  0
LINE
  5
10F
330
1F
100
AcDbEntity
  8
0
100
AcDbLine
 10
-80.77735147628003
 20
60.27286400780698
 30
0.0
 11
-97.37735147627987
 21
60.27286400780698
 31
0.0
  0
LINE
  5
110
330
1F
100
AcDbEntity
  8
0
100
AcDbLine
 10
-73.8773514762798
 20
77.2728640078069
 30
0.0
 11
-80.77735147628003
 21
77.2728640078069
 31
0.0
  0
LINE
  5
111
330
1F
100
AcDbEntity
  8
0
100
AcDbLine
 10
-73.8773514762798
 20
77.2728640078069
 30
0.0
 11
-73.8773514762798
 21
111.2728640078069
 31
0.0
  0
LINE
  5
112
330
1F
100
AcDbEntity
  8
0
100
AcDbLine
 10
-73.8773514762798
 20
111.2728640078069
 30
0.0
 11
-80.77735147627968
 21
111.2728640078069
 31
0.0
  0
LINE
  5
113
330
1F
100
AcDbEntity
  8
0
100
AcDbLine
 10
-80.77735147627968
 20
111.2728640078069
 30
0.0
 11
-80.77735147627968
 21
128.2728640078068
 31
0.0
  0
LINE
  5
114
330
1F
100
AcDbEntity
  8
0
100
AcDbLine
 10
-97.37735147627987
 20
128.2728640078068
 30
0.0
 11
-80.77735147627968
 21
128.2728640078068
 31
0.0
  0
LINE
  5
115
330
1F
100
AcDbEntity
  8
0
100
AcDbLine
 10
-97.37735147627987
 20
135.672864007807
 30
0.0
 11
-97.37735147627987
 21
128.2728640078068
 31
0.0
  0
LINE
  5
116
330
1F
100
AcDbEntity
  8
0
100
AcDbLine
 10
-80.77735147627968
 20
135.672864007807
 30
0.0
 11
-97.37735147627987
 21
135.672864007807
 31
0.0
  0
LINE
  5
117
330
1F
100
AcDbEntity
  8
0
100
AcDbLine
 10
-80.77735147627968
 20
152.6728640078069
 30
0.0
 11
-80.77735147627968
 21
135.672864007807
 31
0.0
  0
LINE
  5
118
330
1F
100
AcDbEntity
  8
0
100
AcDbLine
 10
-73.8773514762798
 20
152.6728640078069
 30
0.0
 11
-80.77735147627968
 21
152.6728640078069
 31
0.0
  0
LINE
  5
119
330
1F
100
AcDbEntity
  8
0
100
AcDbLine
 10
-73.8773514762798
 20
152.6728640078069
 30
0.0
 11
-73.8773514762798
 21
186.6728640078069
 31
0.0
  0
LINE
  5
11A
330
1F
100
AcDbEntity
  8
0
100
AcDbLine
 10
-73.8773514762798
 20
186.6728640078069
 30
0.0
 11
-80.77735147627968
 21
186.6728640078069
 31
0.0
  0
LINE
  5
11B
330
1F
100
AcDbEntity
  8
0
100
AcDbLine
 10
-80.77735147627968
 20
186.6728640078069
 30
0.0
 11
-80.77735147627968
 21
203.6728640078069
 31
0.0
  0
LINE
  5
11C
330
1F
100
AcDbEntity
  8
0
100
AcDbLine
 10
-97.37735147627987
 20
203.6728640078069
 30
0.0
 11
-80.77735147627968
 21
203.6728640078069
 31
0.0
  0
LINE
  5
11D
330
1F
100
AcDbEntity
  8
0
100
AcDbLine
 10
-97.37735147627987
 20
211.0728640078068
 30
0.0
 11
-97.37735147627987
 21
203.6728640078069
 31
0.0
  0
LINE
  5
11E
330
1F
100
AcDbEntity
  8
0
100
AcDbLine
 10
-97.37735147627987
 20
211.0728640078068
 30
0.0
 11
-119.8773514762798
 21
211.0728640078068
 31
0.0
  0
LINE
  5
11F
330
1F
100
AcDbEntity
  8
0
100
AcDbLine
 10
-119.8773514762798
 20
211.0728640078068
 30
0.0
 11
-119.8773514762802
 21
-97.92713599219296
 31
0.0
  0
LINE
  5
120
330
1F
100
AcDbEntity
  8
0
100
AcDbLine
 10
-157.2773514762796
 20
-15.12713599219301
 30
0.0
 11
-157.2773514762796
 21
-22.52713599219296
 31
0.0
  0
LINE
  5
121
330
1F
100
AcDbEntity
  8
0
100
AcDbLine
 10
-133.7773514762795
 20
-73.52713599219291
 30
0.0
 11
-140.6773514762794
 21
-73.52713599219291
 31
0.0
  0
LINE
  5
122
330
1F
100
AcDbEntity
  8
0
100
AcDbLine
 10
-157.2773514762796
 20
-22.52713599219296
 30
0.0
 11
-140.6773514762794
 21
-22.52713599219296
 31
0.0
  0
LINE
  5
123
330
1F
100
AcDbEntity
  8
0
100
AcDbLine
 10
-140.6773514762794
 20
77.2728640078069
 30
0.0
 11
-140.6773514762794
 21
60.27286400780698
 31
0.0
  0
LINE
  5
124
330
1F
100
AcDbEntity
  8
0
100
AcDbLine
 10
-179.7773514762795
 20
-97.92713599219296
 30
0.0
 11
-157.2773514762796
 21
-97.92713599219296
 31
0.0
  0
LINE
  5
125
330
1F
100
AcDbEntity
  8
0
100
AcDbLine
 10
-157.2773514762796
 20
-90.52713599219301
 30
0.0
 11
-157.2773514762796
 21
-97.92713599219296
 31
0.0
  0
LINE
  5
126
330
1F
100
AcDbEntity
  8
0
100
AcDbLine
 10
-140.6773514762794
 20
-90.52713599219301
 30
0.0
 11
-157.2773514762796
 21
-90.52713599219301
 31
0.0
  0
LINE
  5
127
330
1F
100
AcDbEntity
  8
0
100
AcDbLine
 10
-140.6773514762794
 20
-90.52713599219301
 30
0.0
 11
-140.6773514762794
 21
-73.52713599219291
 31
0.0
  0
LINE
  5
128
330
1F
100
AcDbEntity
  8
0
100
AcDbLine
 10
-133.7773514762795
 20
-73.52713599219291
 30
0.0
 11
-133.7773514762795
 21
-39.52713599219288
 31
0.0
  0
LINE
  5
129
330
1F
100
AcDbEntity
  8
0
100
AcDbLine
 10
-133.7773514762795
 20
-39.52713599219288
 30
0.0
 11
-140.6773514762794
 21
-39.52713599219288
 31
0.0
  0
LINE
  5
12A
330
1F
100
AcDbEntity
  8
0
100
AcDbLine
 10
-140.6773514762794
 20
-39.52713599219288
 30
0.0
 11
-140.6773514762794
 21
-22.52713599219296
 31
0.0
  0
LINE
  5
12B
330
1F
100
AcDbEntity
  8
0
100
AcDbLine
 10
-140.6773514762794
 20
-15.12713599219301
 30
0.0
 11
-157.2773514762796
 21
-15.12713599219301
 31
0.0
  0
LINE
  5
12C
330
1F
100
AcDbEntity
  8
0
100
AcDbLine
 10
-140.6773514762794
 20
-15.12713599219301
 30
0.0
 11
-140.6773514762794
 21
1.87286400780709
 31
0.0
  0
LINE
  5
12D
330
1F
100
AcDbEntity
  8
0
100
AcDbLine
 10
-133.7773514762795
 20
1.872864007806909
 30
0.0
 11
-140.6773514762794
 21
1.87286400780709
 31
0.0
  0
LINE
  5
12E
330
1F
100
AcDbEntity
  8
0
100
AcDbLine
 10
-133.7773514762795
 20
1.872864007806909
 30
0.0
 11
-133.7773514762792
 21
35.87286400780694
 31
0.0
  0
LINE
  5
12F
330
1F
100
AcDbEntity
  8
0
100
AcDbLine
 10
-133.7773514762792
 20
35.87286400780694
 30
0.0
 11
-140.6773514762794
 21
35.87286400780694
 31
0.0
  0
LINE
  5
130
330
1F
100
AcDbEntity
  8
0
100
AcDbLine
 10
-140.6773514762794
 20
35.87286400780694
 30
0.0
 11
-140.6773514762794
 21
52.87286400780704
 31
0.0
  0
LINE
  5
131
330
1F
100
AcDbEntity
  8
0
100
AcDbLine
 10
-157.2773514762793
 20
52.87286400780704
 30
0.0
 11
-140.6773514762794
 21
52.87286400780704
 31
0.0
  0
LINE
  5
132
330
1F
100
AcDbEntity
  8
0
100
AcDbLine
 10
-157.2773514762793
 20
60.27286400780698
 30
0.0
 11
-157.2773514762793
 21
52.87286400780704
 31
0.0
  0
LINE
  5
133
330
1F
100
AcDbEntity
  8
0
100
AcDbLine
 10
-140.6773514762794
 20
60.27286400780698
 30
0.0
 11
-157.2773514762793
 21
60.27286400780698
 31
0.0
  0
LINE
  5
134
330
1F
100
AcDbEntity
  8
0
100
AcDbLine
 10
-133.7773514762792
 20
77.2728640078069
 30
0.0
 11
-140.6773514762794
 21
77.2728640078069
 31
0.0
  0
LINE
  5
135
330
1F
100
AcDbEntity
  8
0
100
AcDbLine
 10
-133.7773514762792
 20
77.2728640078069
 30
0.0
 11
-133.7773514762792
 21
111.2728640078069
 31
0.0
  0
LINE
  5
136
330
1F
100
AcDbEntity
  8
0
100
AcDbLine
 10
-133.7773514762792
 20
111.2728640078069
 30
0.0
 11
-140.6773514762791
 21
111.2728640078069
 31
0.0
  0
LINE
  5
137
330
1F
100
AcDbEntity
  8
0
100
AcDbLine
 10
-140.6773514762791
 20
111.2728640078069
 30
0.0
 11
-140.6773514762791
 21
128.2728640078068
 31
0.0
  0
LINE
  5
138
330
1F
100
AcDbEntity
  8
0
100
AcDbLine
 10
-157.2773514762793
 20
128.2728640078068
 30
0.0
 11
-140.6773514762791
 21
128.2728640078068
 31
0.0
  0
LINE
  5
139
330
1F
100
AcDbEntity
  8
0
100
AcDbLine
 10
-157.2773514762793
 20
135.672864007807
 30
0.0
 11
-157.2773514762793
 21
128.2728640078068
 31
0.0
  0
LINE
  5
13A
330
1F
100
AcDbEntity
  8
0
100
AcDbLine
 10
-140.6773514762791
 20
135.672864007807
 30
0.0
 11
-157.2773514762793
 21
135.672864007807
 31
0.0
  0
LINE
  5
13B
330
1F
100
AcDbEntity
  8
0
100
AcDbLine
 10
-140.6773514762791
 20
152.6728640078069
 30
0.0
 11
-140.6773514762791
 21
135.672864007807
 31
0.0
  0
LINE
  5
13C
330
1F
100
AcDbEntity
  8
0
100
AcDbLine
 10
-133.7773514762792
 20
152.6728640078069
 30
0.0
 11
-140.6773514762791
 21
152.6728640078069
 31
0.0
  0
LINE
  5
13D
330
1F
100
AcDbEntity
  8
0
100
AcDbLine
 10
-133.7773514762792
 20
152.6728640078069
 30
0.0
 11
-133.7773514762792
 21
186.6728640078069
 31
0.0
  0
LINE
  5
13E
330
1F
100
AcDbEntity
  8
0
100
AcDbLine
 10
-133.7773514762792
 20
186.6728640078069
 30
0.0
 11
-140.6773514762791
 21
186.6728640078069
 31
0.0
  0
LINE
  5
13F
330
1F
100
AcDbEntity
  8
0
100
AcDbLine
 10
-140.6773514762791
 20
186.6728640078069
 30
0.0
 11
-140.6773514762791
 21
203.6728640078069
 31
0.0
  0
LINE
  5
140
330
1F
100
AcDbEntity
  8
0
100
AcDbLine
 10
-157.2773514762793
 20
203.6728640078069
 30
0.0
 11
-140.6773514762791
 21
203.6728640078069
 31
0.0
  0
LINE
  5
141
330
1F
100
AcDbEntity
  8
0
100
AcDbLine
 10
-157.2773514762793
 20
211.0728640078068
 30
0.0
 11
-157.2773514762793
 21
203.6728640078069
 31
0.0
  0
LINE
  5
142
330
1F
100
AcDbEntity
  8
0
100
AcDbLine
 10
-157.2773514762793
 20
211.0728640078068
 30
0.0
 11
-179.7773514762792
 21
211.0728640078068
 31
0.0
  0
LINE
  5
143
330
1F
100
AcDbEntity
  8
0
100
AcDbLine
 10
-179.7773514762792
 20
211.0728640078068
 30
0.0
 11
-179.7773514762795
 21
-97.92713599219296
 31
0.0
  0
LINE
  5
144
330
1F
100
AcDbEntity
  8
0
100
AcDbLine
 10
-217.1773514762804
 20
-15.12713599219356
 30
0.0
 11
-217.1773514762804
 21
-22.5271359921935
 31
0.0
  0
LINE
  5
145
330
1F
100
AcDbEntity
  8
0
100
AcDbLine
 10
-193.6773514762804
 20
-73.52713599219345
 30
0.0
 11
-200.5773514762802
 21
-73.52713599219345
 31
0.0
  0
LINE
  5
146
330
1F
100
AcDbEntity
  8
0
100
AcDbLine
 10
-217.1773514762804
 20
-22.5271359921935
 30
0.0
 11
-200.5773514762802
 21
-22.5271359921935
 31
0.0
  0
LINE
  5
147
330
1F
100
AcDbEntity
  8
0
100
AcDbLine
 10
-200.5773514762802
 20
77.27286400780636
 30
0.0
 11
-200.5773514762802
 21
60.27286400780644
 31
0.0
  0
LINE
  5
148
330
1F
100
AcDbEntity
  8
0
100
AcDbLine
 10
-239.6773514762804
 20
-97.9271359921935
 30
0.0
 11
-217.1773514762804
 21
-97.9271359921935
 31
0.0
  0
LINE
  5
149
330
1F
100
AcDbEntity
  8
0
100
AcDbLine
 10
-217.1773514762804
 20
-90.52713599219355
 30
0.0
 11
-217.1773514762804
 21
-97.9271359921935
 31
0.0
  0
LINE
  5
14A
330
1F
100
AcDbEntity
  8
0
100
AcDbLine
 10
-200.5773514762802
 20
-90.52713599219355
 30
0.0
 11
-217.1773514762804
 21
-90.52713599219355
 31
0.0
  0
LINE
  5
14B
330
1F
100
AcDbEntity
  8
0
100
AcDbLine
 10
-200.5773514762802
 20
-90.52713599219355
 30
0.0
 11
-200.5773514762802
 21
-73.52713599219345
 31
0.0
  0
LINE
  5
14C
330
1F
100
AcDbEntity
  8
0
100
AcDbLine
 10
-193.6773514762804
 20
-73.52713599219345
 30
0.0
 11
-193.6773514762804
 21
-39.52713599219342
 31
0.0
  0
LINE
  5
14D
330
1F
100
AcDbEntity
  8
0
100
AcDbLine
 10
-193.6773514762804
 20
-39.52713599219342
 30
0.0
 11
-200.5773514762802
 21
-39.52713599219342
 31
0.0
  0
LINE
  5
14E
330
1F
100
AcDbEntity
  8
0
100
AcDbLine
 10
-200.5773514762802
 20
-39.52713599219342
 30
0.0
 11
-200.5773514762802
 21
-22.5271359921935
 31
0.0
  0
LINE
  5
14F
330
1F
100
AcDbEntity
  8
0
100
AcDbLine
 10
-200.5773514762802
 20
-15.12713599219356
 30
0.0
 11
-217.1773514762804
 21
-15.12713599219356
 31
0.0
  0
LINE
  5
150
330
1F
100
AcDbEntity
  8
0
100
AcDbLine
 10
-200.5773514762802
 20
-15.12713599219356
 30
0.0
 11
-200.5773514762802
 21
1.872864007806548
 31
0.0
  0
LINE
  5
151
330
1F
100
AcDbEntity
  8
0
100
AcDbLine
 10
-193.6773514762804
 20
1.872864007806368
 30
0.0
 11
-200.5773514762802
 21
1.872864007806548
 31
0.0
  0
LINE
  5
152
330
1F
100
AcDbEntity
  8
0
100
AcDbLine
 10
-193.6773514762804
 20
1.872864007806368
 30
0.0
 11
-193.67735147628
 21
35.8728640078064
 31
0.0
  0
LINE
  5
153
330
1F
100
AcDbEntity
  8
0
100
AcDbLine
 10
-193.67735147628
 20
35.8728640078064
 30
0.0
 11
-200.5773514762802
 21
35.8728640078064
 31
0.0
  0
LINE
  5
154
330
1F
100
AcDbEntity
  8
0
100
AcDbLine
 10
-200.5773514762802
 20
35.8728640078064
 30
0.0
 11
-200.5773514762802
 21
52.8728640078065
 31
0.0
  0
LINE
  5
155
330
1F
100
AcDbEntity
  8
0
100
AcDbLine
 10
-217.1773514762801
 20
52.8728640078065
 30
0.0
 11
-200.5773514762802
 21
52.8728640078065
 31
0.0
  0
LINE
  5
156
330
1F
100
AcDbEntity
  8
0
100
AcDbLine
 10
-217.1773514762801
 20
60.27286400780644
 30
0.0
 11
-217.1773514762801
 21
52.8728640078065
 31
0.0
  0
LINE
  5
157
330
1F
100
AcDbEntity
  8
0
100
AcDbLine
 10
-200.5773514762802
 20
60.27286400780644
 30
0.0
 11
-217.1773514762801
 21
60.27286400780644
 31
0.0
  0
LINE
  5
158
330
1F
100
AcDbEntity
  8
0
100
AcDbLine
 10
-193.67735147628
 20
77.27286400780636
 30
0.0
 11
-200.5773514762802
 21
77.27286400780636
 31
0.0
  0
LINE
  5
159
330
1F
100
AcDbEntity
  8
0
100
AcDbLine
 10
-193.67735147628
 20
77.27286400780636
 30
0.0
 11
-193.67735147628
 21
111.2728640078064
 31
0.0
  0
LINE
  5
15A
330
1F
100
AcDbEntity
  8
0
100
AcDbLine
 10
-193.67735147628
 20
111.2728640078064
 30
0.0
 11
-200.5773514762799
 21
111.2728640078064
 31
0.0
  0
LINE
  5
15B
330
1F
100
AcDbEntity
  8
0
100
AcDbLine
 10
-200.5773514762799
 20
111.2728640078064
 30
0.0
 11
-200.5773514762799
 21
128.2728640078063
 31
0.0
  0
LINE
  5
15C
330
1F
100
AcDbEntity
  8
0
100
AcDbLine
 10
-217.1773514762801
 20
128.2728640078063
 30
0.0
 11
-200.5773514762799
 21
128.2728640078063
 31
0.0
  0
LINE
  5
15D
330
1F
100
AcDbEntity
  8
0
100
AcDbLine
 10
-217.1773514762801
 20
135.6728640078064
 30
0.0
 11
-217.1773514762801
 21
128.2728640078063
 31
0.0
  0
LINE
  5
15E
330
1F
100
AcDbEntity
  8
0
100
AcDbLine
 10
-200.5773514762799
 20
135.6728640078064
 30
0.0
 11
-217.1773514762801
 21
135.6728640078064
 31
0.0
  0
LINE
  5
15F
330
1F
100
AcDbEntity
  8
0
100
AcDbLine
 10
-200.5773514762799
 20
152.6728640078064
 30
0.0
 11
-200.5773514762799
 21
135.6728640078064
 31
0.0
  0
LINE
  5
160
330
1F
100
AcDbEntity
  8
0
100
AcDbLine
 10
-193.67735147628
 20
152.6728640078064
 30
0.0
 11
-200.5773514762799
 21
152.6728640078064
 31
0.0
  0
LINE
  5
161
330
1F
100
AcDbEntity
  8
0
100
AcDbLine
 10
-193.67735147628
 20
152.6728640078064
 30
0.0
 11
-193.67735147628
 21
186.6728640078064
 31
0.0
  0
LINE
  5
162
330
1F
100
AcDbEntity
  8
0
100
AcDbLine
 10
-193.67735147628
 20
186.6728640078064
 30
0.0
 11
-200.5773514762799
 21
186.6728640078064
 31
0.0
  0
LINE
  5
163
330
1F
100
AcDbEntity
  8
0
100
AcDbLine
 10
-200.5773514762799
 20
186.6728640078064
 30
0.0
 11
-200.5773514762799
 21
203.6728640078063
 31
0.0
  0
LINE
  5
164
330
1F
100
AcDbEntity
  8
0
100
AcDbLine
 10
-217.1773514762801
 20
203.6728640078063
 30
0.0
 11
-200.5773514762799
 21
203.6728640078063
 31
0.0
  0
LINE
  5
165
330
1F
100
AcDbEntity
  8
0
100
AcDbLine
 10
-217.1773514762801
 20
211.0728640078063
 30
0.0
 11
-217.1773514762801
 21
203.6728640078063
 31
0.0
  0
LINE
  5
166
330
1F
100
AcDbEntity
  8
0
100
AcDbLine
 10
-217.1773514762801
 20
211.0728640078063
 30
0.0
 11
-239.67735147628
 21
211.0728640078063
 31
0.0
  0
LINE
  5
167
330
1F
100
AcDbEntity
  8
0
100
AcDbLine
 10
-239.67735147628
 20
211.0728640078063
 30
0.0
 11
-239.6773514762804
 21
-97.9271359921935
 31
0.0
  0
LINE
  5
168
330
1F
100
AcDbEntity
  8
0
100
AcDbLine
 10
-165.888187898426
 20
-213.6871813578214
 30
0.0
 11
-65.88818789842638
 21
-213.6871813578212
 31
0.0
  0
LINE
  5
169
330
1F
100
AcDbEntity
  8
0
100
AcDbLine
 10
-65.88818789842638
 20
-213.6871813578212
 30
0.0
 11
-65.88818789842638
 21
-113.687181357821
 31
0.0
  0
LINE
  5
16A
330
1F
100
AcDbEntity
  8
0
100
AcDbLine
 10
-65.88818789842638
 20
-113.687181357821
 30
0.0
 11
-165.888187898426
 21
-113.6871813578212
 31
0.0
  0
LINE
  5
16B
330
1F
100
AcDbEntity
  8
0
100
AcDbLine
 10
-165.888187898426
 20
-113.6871813578212
 30
0.0
 11
-165.888187898426
 21
-213.6871813578214
 31
0.0
  0
LINE
  5
16C
330
1F
100
AcDbEntity
  8
0
100
AcDbLine
 10
-232.1411149278397
 20
-139.6628575484139
 30
0.0
 11
-246.8656705048743
 21
-210.222137293398
 31
0.0
  0
LINE
  5
16D
330
1F
100
AcDbEntity
  8
0
100
AcDbLine
 10
-246.8656705048743
 20
-210.222137293398
 30
0.0
 11
-234.0187428202132
 21
-210.222137293398
 31
0.0
  0
LINE
  5
16E
330
1F
100
AcDbEntity
  8
0
100
AcDbLine
 10
-234.0187428202132
 20
-210.222137293398
 30
0.0
 11
-232.3387599691422
 21
-202.2175131206477
 31
0.0
  0
LINE
  5
16F
330
1F
100
AcDbEntity
  8
0
100
AcDbLine
 10
-232.3387599691422
 20
-202.2175131206477
 30
0.0
 11
-232.1411149278397
 21
-202.2175131206477
 31
0.0
  0
LINE
  5
170
330
1F
100
AcDbEntity
  8
0
100
AcDbLine
 10
-232.1411149278397
 20
-202.2175131206477
 30
0.0
 11
-229.6334966162824
 21
-206.7139420102362
 31
0.0
  0
LINE
  5
171
330
1F
100
AcDbEntity
  8
0
100
AcDbLine
 10
-229.6334966162824
 20
-206.7139420102362
 30
0.0
 11
-225.8658848664861
 21
-209.5303796488393
 31
0.0
  0
LINE
  5
172
330
1F
100
AcDbEntity
  8
0
100
AcDbLine
 10
-225.8658848664861
 20
-209.5303796488393
 30
0.0
 11
-221.2335803844768
 21
-211.0127199291709
 31
0.0
  0
LINE
  5
173
330
1F
100
AcDbEntity
  8
0
100
AcDbLine
 10
-221.2335803844768
 20
-211.0127199291709
 30
0.0
 11
-216.1318665823391
 21
-211.5068300618641
 31
0.0
  0
LINE
  5
174
330
1F
100
AcDbEntity
  8
0
100
AcDbLine
 10
-216.1318665823391
 20
-211.5068300618641
 30
0.0
 11
-210.004868325512
 21
-210.8150758760936
 31
0.0
  0
LINE
  5
175
330
1F
100
AcDbEntity
  8
0
100
AcDbLine
 10
-210.004868325512
 20
-210.8150758760936
 30
0.0
 11
-204.6684541867955
 21
-208.7397994836294
 31
0.0
  0
LINE
  5
176
330
1F
100
AcDbEntity
  8
0
100
AcDbLine
 10
-204.6684541867955
 20
-208.7397994836294
 30
0.0
 11
-200.1226162603882
 21
-205.5404225392882
 31
0.0
  0
LINE
  5
177
330
1F
100
AcDbEntity
  8
0
100
AcDbLine
 10
-200.1226162603882
 20
-205.5404225392882
 30
0.0
 11
-196.3673624520915
 21
-201.4763442157634
 31
0.0
  0
LINE
  5
178
330
1F
100
AcDbEntity
  8
0
100
AcDbLine
 10
-196.3673624520915
 20
-201.4763442157634
 30
0.0
 11
-193.4273903627386
 21
-196.6587479398815
 31
0.0
  0
LINE
  5
179
330
1F
100
AcDbEntity
  8
0
100
AcDbLine
 10
-193.4273903627386
 20
-196.6587479398815
 30
0.0
 11
-191.3274138988783
 21
-191.1988020680346
 31
0.0
  0
LINE
  5
17A
330
1F
100
AcDbEntity
  8
0
100
AcDbLine
 10
-191.3274138988783
 20
-191.1988020680346
 30
0.0
 11
-190.0674246605965
 21
-185.3806263499852
 31
0.0
  0
LINE
  5
17B
330
1F
100
AcDbEntity
  8
0
100
AcDbLine
 10
-190.0674246605965
 20
-185.3806263499852
 30
0.0
 11
-189.6474310478073
 21
-179.4883333708629
 31
0.0
  0
LINE
  5
17C
330
1F
100
AcDbEntity
  8
0
100
AcDbLine
 10
-189.6474310478073
 20
-179.4883333708629
 30
0.0
 11
-190.6850675146453
 21
-171.0884191155076
 31
0.0
  0
LINE
  5
17D
330
1F
100
AcDbEntity
  8
0
100
AcDbLine
 10
-190.6850675146453
 20
-171.0884191155076
 30
0.0
 11
-192.0191700610992
 21
-167.3825733558047
 31
0.0
  0
LINE
  5
17E
330
1F
100
AcDbEntity
  8
0
100
AcDbLine
 10
-192.0191700610992
 20
-167.3825733558047
 30
0.0
 11
-193.9462106961361
 21
-164.1708426699209
 31
0.0
  0
LINE
  5
17F
330
1F
100
AcDbEntity
  8
0
100
AcDbLine
 10
-193.9462106961361
 20
-164.1708426699209
 30
0.0
 11
-196.4785362437223
 21
-161.5149858833171
 31
0.0
  0
LINE
  5
180
330
1F
100
AcDbEntity
  8
0
100
AcDbLine
 10
-196.4785362437223
 20
-161.5149858833171
 30
0.0
 11
-199.6285056335824
 21
-159.4767729389872
 31
0.0
  0
LINE
  5
181
330
1F
100
AcDbEntity
  8
0
100
AcDbLine
 10
-199.6285056335824
 20
-159.4767729389872
 30
0.0
 11
-203.4578764558956
 21
-158.179725193697
 31
0.0
  0
LINE
  5
182
330
1F
100
AcDbEntity
  8
0
100
AcDbLine
 10
-203.4578764558956
 20
-158.179725193697
 30
0.0
 11
-208.0284198889376
 21
-157.7473788275905
 31
0.0
  0
LINE
  5
183
330
1F
100
AcDbEntity
  8
0
100
AcDbLine
 10
-208.0284198889376
 20
-157.7473788275905
 30
0.0
 11
-212.6607275826789
 21
-158.1550196870623
 31
0.0
  0
LINE
  5
184
330
1F
100
AcDbEntity
  8
0
100
AcDbLine
 10
-212.6607275826789
 20
-158.1550196870623
 30
0.0
 11
-216.4777454046185
 21
-159.3779504183359
 31
0.0
  0
LINE
  5
185
330
1F
100
AcDbEntity
  8
0
100
AcDbLine
 10
-216.4777454046185
 20
-159.3779504183359
 30
0.0
 11
-219.8500641071342
 21
-161.4902793884572
 31
0.0
  0
LINE
  5
186
330
1F
100
AcDbEntity
  8
0
100
AcDbLine
 10
-219.8500641071342
 20
-161.4902793884572
 30
0.0
 11
-223.1482655485771
 21
-164.5661327525259
 31
0.0
  0
LINE
  5
187
330
1F
100
AcDbEntity
  8
0
100
AcDbLine
 10
-223.1482655485771
 20
-164.5661327525259
 30
0.0
 11
-223.3459105898796
 21
-164.5661327525259
 31
0.0
  0
LINE
  5
188
330
1F
100
AcDbEntity
  8
0
100
AcDbLine
 10
-223.3459105898796
 20
-164.5661327525259
 30
0.0
 11
-218.1083169953639
 21
-139.6628575484139
 31
0.0
  0
LINE
  5
189
330
1F
100
AcDbEntity
  8
0
100
AcDbLine
 10
-218.1083169953639
 20
-139.6628575484139
 30
0.0
 11
-232.1411149278397
 21
-139.6628575484139
 31
0.0
  0
LINE
  5
18A
330
1F
100
AcDbEntity
  8
0
100
AcDbLine
 10
-213.6613035660582
 20
-168.321388537273
 30
0.0
 11
-209.0166411425492
 21
-169.1366702562167
 31
0.0
  0
LINE
  5
18B
330
1F
100
AcDbEntity
  8
0
100
AcDbLine
 10
-209.0166411425492
 20
-169.1366702562167
 30
0.0
 11
-205.9531469552616
 21
-171.5825317187638
 31
0.0
  0
LINE
  5
18C
330
1F
100
AcDbEntity
  8
0
100
AcDbLine
 10
-205.9531469552616
 20
-171.5825317187638
 30
0.0
 11
-204.2484556328803
 21
-175.2389630064092
 31
0.0
  0
LINE
  5
18D
330
1F
100
AcDbEntity
  8
0
100
AcDbLine
 10
-204.2484556328803
 20
-175.2389630064092
 30
0.0
 11
-203.6802289802831
 21
-179.6859784121654
 31
0.0
  0
LINE
  5
18E
330
1F
100
AcDbEntity
  8
0
100
AcDbLine
 10
-203.6802289802831
 20
-179.6859784121654
 30
0.0
 11
-204.5202204058186
 21
-186.7023773784033
 31
0.0
  0
LINE
  5
18F
330
1F
100
AcDbEntity
  8
0
100
AcDbLine
 10
-204.5202204058186
 20
-186.7023773784033
 30
0.0
 11
-207.1884284634021
 21
-193.6693650843156
 31
0.0
  0
LINE
  5
190
330
1F
100
AcDbEntity
  8
0
100
AcDbLine
 10
-207.1884284634021
 20
-193.6693650843156
 30
0.0
 11
-209.2637001617966
 21
-196.5969836791822
 31
0.0
  0
LINE
  5
191
330
1F
100
AcDbEntity
  8
0
100
AcDbLine
 10
-209.2637001617966
 20
-196.5969836791822
 30
0.0
 11
-211.8330869340103
 21
-198.9563699391568
 31
0.0
  0
LINE
  5
192
330
1F
100
AcDbEntity
  8
0
100
AcDbLine
 10
-211.8330869340103
 20
-198.9563699391568
 30
0.0
 11
-214.9583476055038
 21
-200.512827233505
 31
0.0
  0
LINE
  5
193
330
1F
100
AcDbEntity
  8
0
100
AcDbLine
 10
-214.9583476055038
 20
-200.512827233505
 30
0.0
 11
-218.7012521192713
 21
-201.0316428728328
 31
0.0
  0
LINE
  5
194
330
1F
100
AcDbEntity
  8
0
100
AcDbLine
 10
-218.7012521192713
 20
-201.0316428728328
 30
0.0
 11
-223.0000344852195
 21
-200.2781249204757
 31
0.0
  0
LINE
  5
195
330
1F
100
AcDbEntity
  8
0
100
AcDbLine
 10
-223.0000344852195
 20
-200.2781249204757
 30
0.0
 11
-226.2117636887655
 21
-198.01755599297
 31
0.0
  0
LINE
  5
196
330
1F
100
AcDbEntity
  8
0
100
AcDbLine
 10
-226.2117636887655
 20
-198.01755599297
 30
0.0
 11
-228.2129230672131
 21
-194.5711227470008
 31
0.0
  0
LINE
  5
197
330
1F
100
AcDbEntity
  8
0
100
AcDbLine
 10
-228.2129230672131
 20
-194.5711227470008
 30
0.0
 11
-228.8799717463489
 21
-190.2599881218479
 31
0.0
  0
LINE
  5
198
330
1F
100
AcDbEntity
  8
0
100
AcDbLine
 10
-228.8799717463489
 20
-190.2599881218479
 30
0.0
 11
-228.0399803208134
 21
-183.0459441143075
 31
0.0
  0
LINE
  5
199
330
1F
100
AcDbEntity
  8
0
100
AcDbLine
 10
-228.0399803208134
 20
-183.0459441143075
 30
0.0
 11
-225.3717722632299
 21
-175.9307226274183
 31
0.0
  0
LINE
  5
19A
330
1F
100
AcDbEntity
  8
0
100
AcDbLine
 10
-225.3717722632299
 20
-175.9307226274183
 30
0.0
 11
-223.2841478115181
 21
-172.9413400189087
 31
0.0
  0
LINE
  5
19B
330
1F
100
AcDbEntity
  8
0
100
AcDbLine
 10
-223.2841478115181
 20
-172.9413400189087
 30
0.0
 11
-220.6777025322961
 21
-170.4954839916002
 31
0.0
  0
LINE
  5
19C
330
1F
100
AcDbEntity
  8
0
100
AcDbLine
 10
-220.6777025322961
 20
-170.4954839916002
 30
0.0
 11
-217.4906778471596
 21
-168.8649096832355
 31
0.0
  0
LINE
  5
19D
330
1F
100
AcDbEntity
  8
0
100
AcDbLine
 10
-217.4906778471596
 20
-168.8649096832355
 30
0.0
 11
-213.6613035660582
 21
-168.321388537273
 31
0.0
  0
LINE
  5
19E
330
1F
100
AcDbEntity
  8
0
 62
    49
100
AcDbLine
 10
-161.8512892928344
 20
-213.6871813578214
 30
0.0
 11
-134.0250337056406
 21
-213.6871813578214
 31
0.0
  0
LINE
  5
19F
330
1F
100
AcDbEntity
  8
0
 62
    49
100
AcDbLine
 10
-161.8512892928345
 20
-113.6871813578212
 30
0.0
 11
-134.0250337056406
 21
-113.6871813578212
 31
0.0
  0
LINE
  5
1A0
330
1F
100
AcDbEntity
  8
0
 62
    49
100
AcDbLine
 10
-138.8693120323505
 20
-213.6871813578214
 30
0.0
 11
-138.8693120323505
 21
-172.1646684295636
 31
0.0
  0
LINE
  5
1A1
330
1F
100
AcDbEntity
  8
0
 62
    49
100
AcDbLine
 10
-138.8693120323505
 20
-155.209694286079
 30
0.0
 11
-138.8693120323505
 21
-113.6871813578212
 31
0.0
  0
LINE
  5
1A2
330
1F
100
AcDbEntity
  8
0
 62
    49
100
AcDbLine
 10
-165.888187898426
 20
-117.7240799634128
 30
0.0
 11
-165.888187898426
 21
-150.1726281280068
 31
0.0
  0
LINE
  5
1A3
330
1F
100
AcDbEntity
  8
0
 62
    49
100
AcDbLine
 10
-65.88818789842638
 20
-117.7240799634126
 30
0.0
 11
-65.88818789842638
 21
-150.1726281280068
 31
0.0
  0
LINE
  5
1A4
330
1F
100
AcDbEntity
  8
0
 62
    49
100
AcDbLine
 10
-165.888187898426
 20
-145.3283498012969
 30
0.0
 11
-137.2837505080615
 21
-145.3283498012967
 31
0.0
  0
LINE
  5
1A5
330
1F
100
AcDbEntity
  8
0
 62
    49
100
AcDbLine
 10
-94.4926252887909
 20
-145.3283498012967
 30
0.0
 11
-65.88818789842638
 21
-145.3283498012969
 31
0.0
  0
POLYLINE
  5
1A6
330
1F
100
AcDbEntity
  8
0
 62
    49
100
AcDbPolyFaceMesh
 66
     1
 10
0.0
 20
0.0
 30
0.0
 70
    64
 71
     3
 72
     1
  0
VERTEX
  5
1A7
330
1A6
100
AcDbEntity
  8
0
100
AcDbVertex
100
AcDbPolyFaceMeshVertex
 10
-134.0250337056406
 20
-199.1543463776917
 30
0.0
 70
   192
  0
VERTEX
  5
1A8
330
1A6
100
AcDbEntity
  8
0
100
AcDbVertex
100
AcDbPolyFaceMeshVertex
 10
-138.8693120323505
 20
-213.6871813578214
 30
0.0
 70
   192
  0
VERTEX
  5
1A9
330
1A6
100
AcDbEntity
  8
0
100
AcDbVertex
100
AcDbPolyFaceMeshVertex
 10
-143.7135903590604
 20
-199.1543463776917
 30
0.0
 70
   192
  0
VERTEX
  5
1AA
330
1A6
100
AcDbEntity
  8
0
 62
    49
100
AcDbFaceRecord
 10
0.0
 20
0.0
 30
0.0
 70
   128
 71
     1
 72
     2
 73
     3
  0
SEQEND
  5
1AB
330
1A6
100
AcDbEntity
  8
0
 62
    49
  0
POLYLINE
  5
1AC
330
1F
100
AcDbEntity
  8
0
 62
    49
100
AcDbPolyFaceMesh
 66
     1
 10
0.0
 20
0.0
 30
0.0
 70
    64
 71
     3
 72
     1
  0
VERTEX
  5
1AD
330
1AC
100
AcDbEntity
  8
0
100
AcDbVertex
100
AcDbPolyFaceMeshVertex
 10
-134.0250337056406
 20
-128.2200163379509
 30
0.0
 70
   192
  0
VERTEX
  5
1AE
330
1AC
100
AcDbEntity
  8
0
100
AcDbVertex
100
AcDbPolyFaceMeshVertex
 10
-143.7135903590604
 20
-128.2200163379509
 30
0.0
 70
   192
  0
VERTEX
  5
1AF
330
1AC
100
AcDbEntity
  8
0
100
AcDbVertex
100
AcDbPolyFaceMeshVertex
 10
-138.8693120323505
 20
-113.6871813578212
 30
0.0
 70
   192
  0
VERTEX
  5
1B0
330
1AC
100
AcDbEntity
  8
0
 62
    49
100
AcDbFaceRecord
 10
0.0
 20
0.0
 30
0.0
 70
   128
 71
     1
 72
     2
 73
     3
  0
SEQEND
  5
1B1
330
1AC
100
AcDbEntity
  8
0
 62
    49
  0
POLYLINE
  5
1B2
330
1F
100
AcDbEntity
  8
0
 62
    49
100
AcDbPolyFaceMesh
 66
     1
 10
0.0
 20
0.0
 30
0.0
 70
    64
 71
     3
 72
     1
  0
VERTEX
  5
1B3
330
1B2
100
AcDbEntity
  8
0
100
AcDbVertex
100
AcDbPolyFaceMeshVertex
 10
-151.3553529182963
 20
-150.1726281280068
 30
0.0
 70
   192
  0
VERTEX
  5
1B4
330
1B2
100
AcDbEntity
  8
0
100
AcDbVertex
100
AcDbPolyFaceMeshVertex
 10
-165.888187898426
 20
-145.3283498012969
 30
0.0
 70
   192
  0
VERTEX
  5
1B5
330
1B2
100
AcDbEntity
  8
0
100
AcDbVertex
100
AcDbPolyFaceMeshVertex
 10
-151.3553529182963
 20
-140.484071474587
 30
0.0
 70
   192
  0
VERTEX
  5
1B6
330
1B2
100
AcDbEntity
  8
0
 62
    49
100
AcDbFaceRecord
 10
0.0
 20
0.0
 30
0.0
 70
   128
 71
     1
 72
     2
 73
     3
  0
SEQEND
  5
1B7
330
1B2
100
AcDbEntity
  8
0
 62
    49
  0
POLYLINE
  5
1B8
330
1F
100
AcDbEntity
  8
0
 62
    49
100
AcDbPolyFaceMesh
 66
     1
 10
0.0
 20
0.0
 30
0.0
 70
    64
 71
     3
 72
     1
  0
VERTEX
  5
1B9
330
1B8
100
AcDbEntity
  8
0
100
AcDbVertex
100
AcDbPolyFaceMeshVertex
 10
-65.88818789842638
 20
-145.3283498012969
 30
0.0
 70
   192
  0
VERTEX
  5
1BA
330
1B8
100
AcDbEntity
  8
0
100
AcDbVertex
100
AcDbPolyFaceMeshVertex
 10
-80.42102287855607
 20
-150.1726281280068
 30
0.0
 70
   192
  0
VERTEX
  5
1BB
330
1B8
100
AcDbEntity
  8
0
100
AcDbVertex
100
AcDbPolyFaceMeshVertex
 10
-80.42102287855607
 20
-140.484071474587
 30
0.0
 70
   192
  0
VERTEX
  5
1BC
330
1B8
100
AcDbEntity
  8
0
 62
    49
100
AcDbFaceRecord
 10
0.0
 20
0.0
 30
0.0
 70
   128
 71
     1
 72
     2
 73
     3
  0
SEQEND
  5
1BD
330
1B8
100
AcDbEntity
  8
0
 62
    49
  0
MTEXT
  5
1BF
330
1F
100
AcDbEntity
  8
0
 62
    49
100
AcDbMText
 10
-159.0538050603085
 20
-168.1558827858613
 30
0.0
 40
8.983035957917771
 41
0.0
 71
     7
 72
     1
  1
100.0mm
  7
TAHOMA
  0
MTEXT
  5
1C0
330
1F
100
AcDbEntity
  8
0
 62
    49
100
AcDbMText
 10
-136.0726809263842
 20
-149.797051229337
 30
0.0
 40
8.983035957917771
 41
0.0
 71
     7
 72
     1
  1
100.0mm
  7
TAHOMA
  0
ENDSEC
  0
SECTION
  2
OBJECTS
  0
DICTIONARY
  5
C
330
0
100
AcDbDictionary
  3
ACAD_GROUP
350
D
  3
ACAD_LAYOUT
350
1A
  3
ACAD_MATERIAL
350
43
  3
ACAD_MLEADERSTYLE
350
1E3
  3
ACAD_MLINESTYLE
350
17
  3
ACAD_PLOTSETTINGS
350
19
  3
ACAD_SCALELIST
350
47
  3
ACAD_VISUALSTYLE
350
2A
  3
ACDBHEADERROUNDTRIPXREC
350
1C1
  3
ACDBVARIABLEDICTIONARY
350
1E1
  0
DICTIONARY
  5
1E8
330
8
100
AcDbDictionary
280
     1
  3
ACAD_XREC_ROUNDTRIP
360
1E9
  0
DICTIONARY
  5
D
102
{ACAD_REACTORS
330
C
102
}
330
C
100
AcDbDictionary
  0
DICTIONARY
  5
1A
102
{ACAD_REACTORS
330
C
102
}
330
C
100
AcDbDictionary
  0
DICTIONARY
  5
43
102
{ACAD_REACTORS
330
C
102
}
330
C
100
AcDbDictionary
  3
BYBLOCK
350
45
  3
BYLAYER
350
44
  3
GLOBAL
350
46
  0
DICTIONARY
  5
1E3
102
{ACAD_REACTORS
330
C
102
}
330
C
100
AcDbDictionary
  0
DICTIONARY
  5
17
102
{ACAD_REACTORS
330
C
102
}
330
C
100
AcDbDictionary
  3
STANDARD
350
18
  0
DICTIONARY
  5
19
102
{ACAD_REACTORS
330
C
102
}
330
C
100
AcDbDictionary
  0
DICTIONARY
  5
47
102
{ACAD_REACTORS
330
C
102
}
330
C
100
AcDbDictionary
  3
A0
350
48
  3
A1
350
49
  3
A2
350
4A
  3
A3
350
4B
  3
A4
350
4C
  3
A5
350
4D
  3
A6
350
4E
  3
A7
350
4F
  3
A8
350
50
  3
A9
350
51
  3
B0
350
52
  3
B1
350
53
  3
B2
350
54
  3
B3
350
55
  3
B4
350
56
  3
B5
350
57
  3
B6
350
58
  3
B7
350
59
  3
B8
350
5A
  3
B9
350
5B
  3
C0
350
5C
  3
C1
350
5D
  3
C2
350
5E
  3
C3
350
5F
  3
C4
350
60
  3
C5
350
61
  3
C6
350
62
  3
C7
350
63
  3
C8
350
64
  3
C9
350
65
  3
D0
350
66
  3
D1
350
67
  3
D2
350
68
  0
DICTIONARY
  5
2A
102
{ACAD_REACTORS
330
C
102
}
330
C
100
AcDbDictionary
  3
2DWIREFRAME
350
2F
  3
BASIC
350
32
  3
BRIGHTEN
350
36
  3
COLORCHANGE
350
3A
  3
CONCEPTUAL
350
34
  3
DIM
350
35
  3
EDGECOLOROFF
350
3D
  3
FACEPATTERN
350
39
  3
FLAT
350
2B
  3
FLATWITHEDGES
350
2C
  3
GOURAUD
350
2D
  3
GOURAUDWITHEDGES
350
2E
  3
HIDDEN
350
31
  3
JITTEROFF
350
3B
  3
LINEPATTERN
350
38
  3
OVERHANGOFF
350
3C
  3
REALISTIC
350
33
  3
SHADED
350
42
  3
SHADED_WITH_EDGES
350
41
  3
SHADES_OF_GRAY
350
3E
  3
SKETCHY
350
3F
  3
THICKEN
350
37
  3
WIREFRAME
350
30
  3
X-RAY
350
40
  0
DICTIONARY
  5
1C1
102
{ACAD_REACTORS
330
C
102
}
330
C
100
AcDbDictionary
  3
CEPSNTYPE
350
1CA
  3
DIMSTYLEDATA
350
1E0
  3
FINGERPRINTGUID
350
1CB
  3
HYPERLINKBASE
350
1C4
  3
INSUNITS
350
1C9
  3
LAYOUTDICT
350
1C6
  3
LWETCUNION
350
1C8
  3
PLOTSETDICT
350
1C7
  3
PSVPSCALE
350
1CD
  3
PUCSBASE
350
1D0
  3
PUCSORGBACK
350
1D6
  3
PUCSORGBOTTOM
350
1D2
  3
PUCSORGFRONT
350
1D5
  3
PUCSORGLEFT
350
1D3
  3
PUCSORGRIGHT
350
1D4
  3
PUCSORGTOP
350
1D1
  3
PUCSORTHOREF
350
1CE
  3
PUCSORTHOVIEW
350
1CF
  3
STYLESHEET
350
1C5
  3
TSTACKALIGN
350
1C2
  3
TSTACKSIZE
350
1C3
  3
UCSBASE
350
1D9
  3
UCSORGBACK
350
1DF
  3
UCSORGBOTTOM
350
1DB
  3
UCSORGFRONT
350
1DE
  3
UCSORGLEFT
350
1DC
  3
UCSORGRIGHT
350
1DD
  3
UCSORGTOP
350
1DA
  3
UCSORTHOREF
350
1D7
  3
UCSORTHOVIEW
350
1D8
  3
VERSIONGUID
350
1CC
  0
DICTIONARY
  5
1E1
102
{ACAD_REACTORS
330
C
102
}
330
C
100
AcDbDictionary
  3
CANNOSCALE
350
1EA
  3
DIMASSOC
350
1E6
  3
HIDETEXT
350
1E7
  3
MSLTSCALE
350
1EB
  0
XRECORD
  5
1E9
102
{ACAD_REACTORS
330
1E8
102
}
330
1E8
100
AcDbXrecord
102
VTR_0.000_0.000_1.000_1.000_GRIDDISPLAY
 70
     3
102
VTR_0.000_0.000_1.000_1.000_GRIDMAJOR
 70
     5
102
VTR_0.000_0.000_1.000_1.000_DEFAULTLIGHTING
280
     1
102
VTR_0.000_0.000_1.000_1.000_DEFAULTLIGHTINGTYPE
 70
     1
102
VTR_0.000_0.000_1.000_1.000_BRIGHTNESS
141
0.0
102
VTR_0.000_0.000_1.000_1.000_CONTRAST
142
0.0
  0
MATERIAL
  5
45
102
{ACAD_REACTORS
330
43
102
}
102
{ACAD_XDICTIONARY
360
1EE
102
}
330
43
100
AcDbMaterial
  1
BYBLOCK
  0
MATERIAL
  5
44
102
{ACAD_REACTORS
330
43
102
}
102
{ACAD_XDICTIONARY
360
1EC
102
}
330
43
100
AcDbMaterial
  1
BYLAYER
  0
MATERIAL
  5
46
102
{ACAD_REACTORS
330
43
102
}
102
{ACAD_XDICTIONARY
360
1F0
102
}
330
43
100
AcDbMaterial
  1
GLOBAL
  0
MLINESTYLE
  5
18
102
{ACAD_REACTORS
330
17
102
}
330
17
100
AcDbMlineStyle
  2
Standard
 70
     0
  3

 62
   256
 51
90.0
 52
90.0
 71
     2
 49
0.5
 62
   256
  6
BYLAYER
 49
-0.5
 62
   256
  6
BYLAYER
  0
ACAD_PROXY_OBJECT
  5
48
102
{ACAD_REACTORS
330
47
102
}
330
47
100
AcDbProxyObject
 90
      499
 91
      503
 93
       41
310
903313A31580
  0
ACAD_PROXY_OBJECT
  5
49
102
{ACAD_REACTORS
330
47
102
}
330
47
100
AcDbProxyObject
 90
      499
 91
      503
 93
      105
310
903313A324000000000000004000
  0
ACAD_PROXY_OBJECT
  5
4A
102
{ACAD_REACTORS
330
47
102
}
330
47
100
AcDbProxyObject
 90
      499
 91
      503
 93
      105
310
903313A344000000000000104000
  0
ACAD_PROXY_OBJECT
  5
4B
102
{ACAD_REACTORS
330
47
102
}
330
47
100
AcDbProxyObject
 90
      499
 91
      503
 93
      105
310
903313A354000000000000144000
  0
ACAD_PROXY_OBJECT
  5
4C
102
{ACAD_REACTORS
330
47
102
}
330
47
100
AcDbProxyObject
 90
      499
 91
      503
 93
      105
310
903313A384000000000000204000
  0
ACAD_PROXY_OBJECT
  5
4D
102
{ACAD_REACTORS
330
47
102
}
330
47
100
AcDbProxyObject
 90
      499
 91
      503
 93
      113
310
904313A31304000000000000244000
  0
ACAD_PROXY_OBJECT
  5
4E
102
{ACAD_REACTORS
330
47
102
}
330
47
100
AcDbProxyObject
 90
      499
 91
      503
 93
      113
310
904313A31364000000000000304000
  0
ACAD_PROXY_OBJECT
  5
4F
102
{ACAD_REACTORS
330
47
102
}
330
47
100
AcDbProxyObject
 90
      499
 91
      503
 93
      113
310
904313A32304000000000000344000
  0
ACAD_PROXY_OBJECT
  5
50
102
{ACAD_REACTORS
330
47
102
}
330
47
100
AcDbProxyObject
 90
      499
 91
      503
 93
      113
310
904313A333040000000000003E4000
  0
ACAD_PROXY_OBJECT
  5
51
102
{ACAD_REACTORS
330
47
102
}
330
47
100
AcDbProxyObject
 90
      499
 91
      503
 93
      113
310
904313A34304000000000000444000
  0
ACAD_PROXY_OBJECT
  5
52
102
{ACAD_REACTORS
330
47
102
}
330
47
100
AcDbProxyObject
 90
      499
 91
      503
 93
      113
310
904313A35304000000000000494000
  0
ACAD_PROXY_OBJECT
  5
53
102
{ACAD_REACTORS
330
47
102
}
330
47
100
AcDbProxyObject
 90
      499
 91
      503
 93
      121
310
905313A3130304000000000000594000
  0
ACAD_PROXY_OBJECT
  5
54
102
{ACAD_REACTORS
330
47
102
}
330
47
100
AcDbProxyObject
 90
      499
 91
      503
 93
      105
310
903323A310000000000000010100
  0
ACAD_PROXY_OBJECT
  5
55
102
{ACAD_REACTORS
330
47
102
}
330
47
100
AcDbProxyObject
 90
      499
 91
      503
 93
      105
310
903343A310000000000000410100
  0
ACAD_PROXY_OBJECT
  5
56
102
{ACAD_REACTORS
330
47
102
}
330
47
100
AcDbProxyObject
 90
      499
 91
      503
 93
      105
310
903383A310000000000000810100
  0
ACAD_PROXY_OBJECT
  5
57
102
{ACAD_REACTORS
330
47
102
}
330
47
100
AcDbProxyObject
 90
      499
 91
      503
 93
      113
310
90431303A310000000000000910100
  0
ACAD_PROXY_OBJECT
  5
58
102
{ACAD_REACTORS
330
47
102
}
330
47
100
AcDbProxyObject
 90
      499
 91
      503
 93
      121
310
9053130303A310000000000001650100
  0
ACAD_PROXY_OBJECT
  5
59
102
{ACAD_REACTORS
330
47
102
}
330
47
100
AcDbProxyObject
 90
      499
 91
      503
 93
      257
310
90E312F31323822203D2031272D3022000000000000200FC000000000000284000
  0
ACAD_PROXY_OBJECT
  5
5A
102
{ACAD_REACTORS
330
47
102
}
330
47
100
AcDbProxyObject
 90
      499
 91
      503
 93
      249
310
90D312F363422203D2031272D3022000000000000240FC000000000000284000
  0
ACAD_PROXY_OBJECT
  5
5B
102
{ACAD_REACTORS
330
47
102
}
330
47
100
AcDbProxyObject
 90
      499
 91
      503
 93
      249
310
90D312F333222203D2031272D3022000000000000280FC000000000000284000
  0
ACAD_PROXY_OBJECT
  5
5C
102
{ACAD_REACTORS
330
47
102
}
330
47
100
AcDbProxyObject
 90
      499
 91
      503
 93
      249
310
90D312F313622203D2031272D30220000000000002C0FC000000000000284000
  0
ACAD_PROXY_OBJECT
  5
5D
102
{ACAD_REACTORS
330
47
102
}
330
47
100
AcDbProxyObject
 90
      499
 91
      503
 93
      249
310
90D332F333222203D2031272D30220000000000002E0FC000000000000284000
  0
ACAD_PROXY_OBJECT
  5
5E
102
{ACAD_REACTORS
330
47
102
}
330
47
100
AcDbProxyObject
 90
      499
 91
      503
 93
      241
310
90C312F3822203D2031272D3022000000000000300FC000000000000284000
  0
ACAD_PROXY_OBJECT
  5
5F
102
{ACAD_REACTORS
330
47
102
}
330
47
100
AcDbProxyObject
 90
      499
 91
      503
 93
      249
310
90D332F313622203D2031272D3022000000000000320FC000000000000284000
  0
ACAD_PROXY_OBJECT
  5
60
102
{ACAD_REACTORS
330
47
102
}
330
47
100
AcDbProxyObject
 90
      499
 91
      503
 93
      241
310
90C312F3422203D2031272D3022000000000000340FC000000000000284000
  0
ACAD_PROXY_OBJECT
  5
61
102
{ACAD_REACTORS
330
47
102
}
330
47
100
AcDbProxyObject
 90
      499
 91
      503
 93
      241
310
90C332F3822203D2031272D3022000000000000360FC000000000000284000
  0
ACAD_PROXY_OBJECT
  5
62
102
{ACAD_REACTORS
330
47
102
}
330
47
100
AcDbProxyObject
 90
      499
 91
      503
 93
      241
310
90C312F3222203D2031272D3022000000000000380FC000000000000284000
  0
ACAD_PROXY_OBJECT
  5
63
102
{ACAD_REACTORS
330
47
102
}
330
47
100
AcDbProxyObject
 90
      499
 91
      503
 93
      241
310
90C332F3422203D2031272D30220000000000003A0FC000000000000284000
  0
ACAD_PROXY_OBJECT
  5
64
102
{ACAD_REACTORS
330
47
102
}
330
47
100
AcDbProxyObject
 90
      499
 91
      503
 93
      161
310
90A3122203D2031272D30224000000000000284000
  0
ACAD_PROXY_OBJECT
  5
65
102
{ACAD_REACTORS
330
47
102
}
330
47
100
AcDbProxyObject
 90
      499
 91
      503
 93
      257
310
90E312D312F3222203D2031272D30220000000000003E0FC000000000000284000
  0
ACAD_PROXY_OBJECT
  5
66
102
{ACAD_REACTORS
330
47
102
}
330
47
100
AcDbProxyObject
 90
      499
 91
      503
 93
      225
310
90A3322203D2031272D302200000000000002100000000000000284000
  0
ACAD_PROXY_OBJECT
  5
67
102
{ACAD_REACTORS
330
47
102
}
330
47
100
AcDbProxyObject
 90
      499
 91
      503
 93
      225
310
90A3622203D2031272D302200000000000006100000000000000284000
  0
ACAD_PROXY_OBJECT
  5
68
102
{ACAD_REACTORS
330
47
102
}
330
47
100
AcDbProxyObject
 90
      499
 91
      503
 93
      249
310
90D31272D3022203D2031272D30220000000000000A100000000000000284000
  0
ACAD_PROXY_OBJECT
  5
2F
102
{ACAD_REACTORS
330
2A
102
}
330
2A
100
AcDbProxyObject
 90
      499
 91
      501
 93
      436
310
42CC9915DA5C99599C985B595049028333333333333E33F0000000000000F90107901411070040501600405405064090741402480A0340
1001
ACAD
1000
AcDbSavedByObjectVersion
1070
     0
  0
ACAD_PROXY_OBJECT
  5
32
102
{ACAD_REACTORS
330
2A
102
}
330
2A
100
AcDbProxyObject
 90
      499
 91
      501
 93
      388
310
4150985CDA58D07406404333333333333E33F0000000000000F90107A41107004050150841D405064090741402480A0350
1001
ACAD
1000
AcDbSavedByObjectVersion
1070
     0
  0
ACAD_PROXY_OBJECT
  5
36
102
{ACAD_REACTORS
330
2A
102
}
330
2A
100
AcDbProxyObject
 90
      499
 91
      501
 93
      428
310
42109C9A59DA1D195B90C409028333333333333E33F0000000000000F9010790141107004050150841D405064090741402480A029950
1001
ACAD
1000
AcDbSavedByObjectVersion
1070
     0
  0
ACAD_PROXY_OBJECT
  5
3A
102
{ACAD_REACTORS
330
2A
102
}
330
2A
100
AcDbProxyObject
 90
      499
 91
      501
 93
      452
310
42D0DBDB1BDC90DA185B99D95104090240C333333333333E33F0000000000000F90108901411070040501508421405064090741402480A0350
1001
ACAD
1000
AcDbSavedByObjectVersion
1070
     0
  0
ACAD_PROXY_OBJECT
  5
34
102
{ACAD_REACTORS
330
2A
102
}
330
2A
100
AcDbProxyObject
 90
      499
 91
      501
 93
      500
310
4290DBDB98D95C1D1D585B10940D028333333333333E33F0000000000000F90107902409070040501000000000018199010841D405064090740C02480A0340
1001
ACAD
1000
AcDbSavedByObjectVersion
1070
     0
  0
ACAD_PROXY_OBJECT
  5
35
102
{ACAD_REACTORS
330
2A
102
}
330
2A
100
AcDbProxyObject
 90
      499
 91
      501
 93
      412
310
40D11A5B50B409028333333333333E33F0000000000000F9010790141107004050150841D405064090741402480A02677FFFFFD0
1001
ACAD
1000
AcDbSavedByObjectVersion
1070
     0
  0
ACAD_PROXY_OBJECT
  5
3D
102
{ACAD_REACTORS
330
2A
102
}
330
2A
100
AcDbProxyObject
 90
      499
 91
      501
 93
      452
310
43115919D950DBDB1BDC93D999916409028333333333333E33F0000000000000F9010790141107004050150841D405064090741402480A0350
1001
ACAD
1000
AcDbSavedByObjectVersion
1070
     0
  0
ACAD_PROXY_OBJECT
  5
39
102
{ACAD_REACTORS
330
2A
102
}
330
2A
100
AcDbProxyObject
 90
      499
 91
      501
 93
      444
310
42D19858D95C185D1D195C9B90F409028333333333333E33F0000000000000F9010790141107004050150841D405064090741402480A0350
1001
ACAD
1000
AcDbSavedByObjectVersion
1070
     0
  0
ACAD_PROXY_OBJECT
  5
2B
102
{ACAD_REACTORS
330
2A
102
}
330
2A
100
AcDbProxyObject
 90
      499
 91
      501
 93
      380
310
41119B185D240901404333333333333E33F0000000000000F9010740A907004050150841D405064090741402480A1B50
1001
ACAD
1000
AcDbSavedByObjectVersion
1070
     0
  0
ACAD_PROXY_OBJECT
  5
2C
102
{ACAD_REACTORS
330
2A
102
}
330
2A
100
AcDbProxyObject
 90
      499
 91
      501
 93
      468
310
43519B185D15DA5D1A115919D95CD0140901404333333333333E33F0000000000000F90107409019070040501600405405064090741402480A1B50
1001
ACAD
1000
AcDbSavedByObjectVersion
1070
     0
  0
ACAD_PROXY_OBJECT
  5
2D
102
{ACAD_REACTORS
330
2A
102
}
330
2A
100
AcDbProxyObject
 90
      499
 91
      501
 93
      404
310
41D1DBDD5C985D5910240902404333333333333E33F0000000000000F9010740A9070040501641D405064090741402480A1B50
1001
ACAD
1000
AcDbSavedByObjectVersion
1070
     0
  0
ACAD_PROXY_OBJECT
  5
2E
102
{ACAD_REACTORS
330
2A
102
}
330
2A
100
AcDbProxyObject
 90
      499
 91
      501
 93
      492
310
4411DBDD5C985D5915DA5D1A115919D95CD0340902404333333333333E33F0000000000000F90107409019070040501600405405064090741402480A1B50
1001
ACAD
1000
AcDbSavedByObjectVersion
1070
     0
  0
ACAD_PROXY_OBJECT
  5
31
102
{ACAD_REACTORS
330
2A
102
}
330
2A
100
AcDbProxyObject
 90
      499
 91
      501
 93
      476
310
41921A5919195B90640502408333333333333E33F0000000000000F901079024090700405020000000000001110200405405064090740C02480A0340
1001
ACAD
1000
AcDbSavedByObjectVersion
1070
     0
  0
ACAD_PROXY_OBJECT
  5
3B
102
{ACAD_REACTORS
330
2A
102
}
330
2A
100
AcDbProxyObject
 90
      499
 91
      501
 93
      428
310
42529A5D1D195C93D999914409028333333333333E33F0000000000000F9010790141107004050150A41D405064090741402480A0350
1001
ACAD
1000
AcDbSavedByObjectVersion
1070
     0
  0
ACAD_PROXY_OBJECT
  5
38
102
{ACAD_REACTORS
330
2A
102
}
330
2A
100
AcDbProxyObject
 90
      499
 91
      501
 93
      444
310
42D31A5B995C185D1D195C9B90E409028333333333333E33F0000000000000F9010790141107004050750841D405064090741402483A0350
1001
ACAD
1000
AcDbSavedByObjectVersion
1070
     0
  0
ACAD_PROXY_OBJECT
  5
3C
102
{ACAD_REACTORS
330
2A
102
}
330
2A
100
AcDbProxyObject
 90
      499
 91
      501
 93
      444
310
42D3DD995C9A185B99D3D999915409028333333333333E33F0000000000000F9010790141107004050150941D405064090741402480A0350
1001
ACAD
1000
AcDbSavedByObjectVersion
1070
     0
  0
ACAD_PROXY_OBJECT
  5
33
102
{ACAD_REACTORS
330
2A
102
}
330
2A
100
AcDbProxyObject
 90
      499
 91
      501
 93
      428
310
425499585B1A5CDD1A58D08409038333333333333E33F0000000000000F9010740A907004050150800405405064090740C02480A1B40
1001
ACAD
1000
AcDbSavedByObjectVersion
1070
     0
  0
ACAD_PROXY_OBJECT
  5
42
102
{ACAD_REACTORS
330
2A
102
}
330
2A
100
AcDbProxyObject
 90
      499
 91
      501
 93
      420
310
4194DA1859195911B40902404333333333333E33F0000000000000F9010740A41107004050150800405405064090840C02480A0B40
1001
ACAD
1000
AcDbSavedByObjectVersion
1070
     0
  0
ACAD_PROXY_OBJECT
  5
41
102
{ACAD_REACTORS
330
2A
102
}
330
2A
100
AcDbProxyObject
 90
      499
 91
      501
 93
      516
310
4454DA18591959081DDA5D1A08195919D95CD1A40902404333333333333E33F0000000000000F901074090142907004050250800405405064090740C02480A0B40
1001
ACAD
1000
AcDbSavedByObjectVersion
1070
     0
  0
ACAD_PROXY_OBJECT
  5
3E
102
{ACAD_REACTORS
330
2A
102
}
330
2A
100
AcDbProxyObject
 90
      499
 91
      501
 93
      532
310
4394DA1859195CC81BD98811DC985E5174090240C333333333333E33F0000000000000F901079024090741D01000000000000111010841D405064090740C02480A0340
1001
ACAD
1000
AcDbSavedByObjectVersion
1070
     0
  0
ACAD_PROXY_OBJECT
  5
3F
102
{ACAD_REACTORS
330
2A
102
}
330
2A
100
AcDbProxyObject
 90
      499
 91
      501
 93
      476
310
41D4DAD95D18DA1E51840502408333333333333E33F0000000000000F901079024090741D01000000000000111010B41D405064090741802480A0340
1001
ACAD
1000
AcDbSavedByObjectVersion
1070
     0
  0
ACAD_PROXY_OBJECT
  5
37
102
{ACAD_REACTORS
330
2A
102
}
330
2A
100
AcDbProxyObject
 90
      499
 91
      501
 93
      412
310
41D51A1A58DAD95B90D409028333333333333E33F0000000000000F9010790141107004050150C41D405064090741402480A0350
1001
ACAD
1000
AcDbSavedByObjectVersion
1070
     0
  0
ACAD_PROXY_OBJECT
  5
30
102
{ACAD_REACTORS
330
2A
102
}
330
2A
100
AcDbProxyObject
 90
      499
 91
      501
 93
      420
310
4255DA5C99599C985B595059028333333333333E33F0000000000000F90107901411070040501600405405064090740C02480A0340
1001
ACAD
1000
AcDbSavedByObjectVersion
1070
     0
  0
ACAD_PROXY_OBJECT
  5
40
102
{ACAD_REACTORS
330
2A
102
}
330
2A
100
AcDbProxyObject
 90
      499
 91
      501
 93
      404
310
41560B54985E51940902404000000000000E03F0000000000000F9010740501907004050150841D405064090740C02480A1B40
1001
ACAD
1000
AcDbSavedByObjectVersion
1070
     0
  0
XRECORD
  5
1CA
102
{ACAD_REACTORS
330
1C1
102
}
330
1C1
100
AcDbXrecord
 90
        0
  0
XRECORD
  5
1E0
102
{ACAD_REACTORS
330
1C1
102
}
330
1C1
100
AcDbXrecord
1000
DSTYLE
1002
{
1070
   171
 70
     2
1070
   143
 40
25.4
1070
   274
 70
     2
1070
    41
 40
0.18
1070
   141
 40
0.09
1070
   271
 70
     4
1070
    43
 40
0.38
1070
   278
 70
    46
1070
    44
 40
0.18
1070
    42
 40
0.0625
1070
   147
 40
0.09
1070
    77
 70
     0
1070
   272
 70
     4
1070
    73
 70
     1
1070
   172
 70
     0
1070
    74
 70
     1
1070
   283
 70
     1
1070
   340
340
11
1070
   140
 40
0.18
1070
   284
 70
     0
1070
    78
 70
     0
1002
}
  0
XRECORD
  5
1CB
102
{ACAD_REACTORS
330
1C1
102
}
330
1C1
100
AcDbXrecord
  1
{0BD9B62F-4A43-FC4C-5BE8-49B2805C3186}
  0
XRECORD
  5
1C4
102
{ACAD_REACTORS
330
1C1
102
}
330
1C1
100
AcDbXrecord
  1

  0
XRECORD
  5
1C9
102
{ACAD_REACTORS
330
1C1
102
}
330
1C1
100
AcDbXrecord
 90
        4
  0
XRECORD
  5
1C6
102
{ACAD_REACTORS
330
1C1
102
}
330
1C1
100
AcDbXrecord
340
1A
  0
XRECORD
  5
1C8
102
{ACAD_REACTORS
330
1C1
102
}
330
1C1
100
AcDbXrecord
 90
    10781
  0
XRECORD
  5
1C7
102
{ACAD_REACTORS
330
1C1
102
}
330
1C1
100
AcDbXrecord
340
19
  0
XRECORD
  5
1CD
102
{ACAD_REACTORS
330
1C1
102
}
330
1C1
100
AcDbXrecord
 40
0.0
  0
XRECORD
  5
1D0
102
{ACAD_REACTORS
330
1C1
102
}
330
1C1
100
AcDbXrecord
340
0
  0
XRECORD
  5
1D6
102
{ACAD_REACTORS
330
1C1
102
}
330
1C1
100
AcDbXrecord
 10
0.0
 20
0.0
 30
0.0
  0
XRECORD
  5
1D2
102
{ACAD_REACTORS
330
1C1
102
}
330
1C1
100
AcDbXrecord
 10
0.0
 20
0.0
 30
0.0
  0
XRECORD
  5
1D5
102
{ACAD_REACTORS
330
1C1
102
}
330
1C1
100
AcDbXrecord
 10
0.0
 20
0.0
 30
0.0
  0
XRECORD
  5
1D3
102
{ACAD_REACTORS
330
1C1
102
}
330
1C1
100
AcDbXrecord
 10
0.0
 20
0.0
 30
0.0
  0
XRECORD
  5
1D4
102
{ACAD_REACTORS
330
1C1
102
}
330
1C1
100
AcDbXrecord
 10
0.0
 20
0.0
 30
0.0
  0
XRECORD
  5
1D1
102
{ACAD_REACTORS
330
1C1
102
}
330
1C1
100
AcDbXrecord
 10
0.0
 20
0.0
 30
0.0
  0
XRECORD
  5
1CE
102
{ACAD_REACTORS
330
1C1
102
}
330
1C1
100
AcDbXrecord
340
0
  0
XRECORD
  5
1CF
102
{ACAD_REACTORS
330
1C1
102
}
330
1C1
100
AcDbXrecord
 70
     0
  0
XRECORD
  5
1C5
102
{ACAD_REACTORS
330
1C1
102
}
330
1C1
100
AcDbXrecord
  1

  0
XRECORD
  5
1C2
102
{ACAD_REACTORS
330
1C1
102
}
330
1C1
100
AcDbXrecord
 90
        1
  0
XRECORD
  5
1C3
102
{ACAD_REACTORS
330
1C1
102
}
330
1C1
100
AcDbXrecord
 90
       70
  0
XRECORD
  5
1D9
102
{ACAD_REACTORS
330
1C1
102
}
330
1C1
100
AcDbXrecord
340
0
  0
XRECORD
  5
1DF
102
{ACAD_REACTORS
330
1C1
102
}
330
1C1
100
AcDbXrecord
 10
0.0
 20
0.0
 30
0.0
  0
XRECORD
  5
1DB
102
{ACAD_REACTORS
330
1C1
102
}
330
1C1
100
AcDbXrecord
 10
0.0
 20
0.0
 30
0.0
  0
XRECORD
  5
1DE
102
{ACAD_REACTORS
330
1C1
102
}
330
1C1
100
AcDbXrecord
 10
0.0
 20
0.0
 30
0.0
  0
XRECORD
  5
1DC
102
{ACAD_REACTORS
330
1C1
102
}
330
1C1
100
AcDbXrecord
 10
0.0
 20
0.0
 30
0.0
  0
XRECORD
  5
1DD
102
{ACAD_REACTORS
330
1C1
102
}
330
1C1
100
AcDbXrecord
 10
0.0
 20
0.0
 30
0.0
  0
XRECORD
  5
1DA
102
{ACAD_REACTORS
330
1C1
102
}
330
1C1
100
AcDbXrecord
 10
0.0
 20
0.0
 30
0.0
  0
XRECORD
  5
1D7
102
{ACAD_REACTORS
330
1C1
102
}
330
1C1
100
AcDbXrecord
340
0
  0
XRECORD
  5
1D8
102
{ACAD_REACTORS
330
1C1
102
}
330
1C1
100
AcDbXrecord
 70
     0
  0
XRECORD
  5
1CC
102
{ACAD_REACTORS
330
1C1
102
}
330
1C1
100
AcDbXrecord
  1
{FAEB1C32-E019-11D5-929B-00C0DF256EC4}
  0
DICTIONARYVAR
  5
1EA
102
{ACAD_REACTORS
330
1E1
102
}
330
1E1
100
DictionaryVariables
280
     0
  1
1:1
  0
DICTIONARYVAR
  5
1E6
102
{ACAD_REACTORS
330
1E1
102
}
330
1E1
100
DictionaryVariables
280
     0
  1
2
  0
DICTIONARYVAR
  5
1E7
102
{ACAD_REACTORS
330
1E1
102
}
330
1E1
100
DictionaryVariables
280
     0
  1
1
  0
DICTIONARYVAR
  5
1EB
102
{ACAD_REACTORS
330
1E1
102
}
330
1E1
100
DictionaryVariables
280
     0
  1
1
  0
DICTIONARY
  5
1EE
330
45
100
AcDbDictionary
280
     1
  3
ACAD_XREC_ROUNDTRIP
360
1EF
  0
DICTIONARY
  5
1EC
330
44
100
AcDbDictionary
280
     1
  3
ACAD_XREC_ROUNDTRIP
360
1ED
  0
DICTIONARY
  5
1F0
330
46
100
AcDbDictionary
280
     1
  3
ACAD_XREC_ROUNDTRIP
360
1F1
  0
XRECORD
  5
1EF
102
{ACAD_REACTORS
330
1EE
102
}
330
1EE
100
AcDbXrecord
102
MATERIAL
148
0.0
149
0.0
149
0.0
 93
        0
 94
      127
282
     0
 72
     1
 77
     1
171
     1
175
     1
179
     1
273
     0
  0
XRECORD
  5
1ED
102
{ACAD_REACTORS
330
1EC
102
}
330
1EC
100
AcDbXrecord
102
MATERIAL
148
0.0
149
0.0
149
0.0
 93
        0
 94
      127
282
     0
 72
     1
 77
     1
171
     1
175
     1
179
     1
273
     0
  0
XRECORD
  5
1F1
102
{ACAD_REACTORS
330
1F0
102
}
330
1F0
100
AcDbXrecord
102
MATERIAL
148
0.0
149
0.0
149
0.0
 93
        0
 94
      127
282
     0
 72
     1
 77
     1
171
     1
175
     1
179
     1
273
     0
  0
ENDSEC
  0
EOF
