  0
SECTION
  2
HEADER
  9
$ACADVER
  1
AC1014
  9
$ACADMAINTVER
 70
     9
  9
$DWGCODEPAGE
  3
MAC-ROMAN
  9
$INSBASE
 10
0.0
 20
0.0
 30
0.0
  9
$EXTMIN
 10
1.000000000000000E+20
 20
1.000000000000000E+20
 30
1.000000000000000E+20
  9
$EXTMAX
 10
-1.000000000000000E+20
 20
-1.000000000000000E+20
 30
-1.000000000000000E+20
  9
$LIMMIN
 10
0.0
 20
0.0
  9
$LIMMAX
 10
12.0
 20
9.0
  9
$ORTHOMODE
 70
     0
  9
$REGENMODE
 70
     1
  9
$FILLMODE
 70
     1
  9
$QTEXTMODE
 70
     0
  9
$MIRRTEXT
 70
     1
  9
$DRAGMODE
 70
     2
  9
$LTSCALE
 40
1.0
  9
$OSMODE
 70
    37
  9
$ATTMODE
 70
     1
  9
$TEXTSIZE
 40
0.2
  9
$TRACEWID
 40
0.05
  9
$TEXTSTYLE
  7
STANDARD
  9
$CLAYER
  8
0
  9
$CELTYPE
  6
BYLAYER
  9
$CECOLOR
 62
   256
  9
$CELTSCALE
 40
1.0
  9
$DELOBJ
 70
     1
  9
$DISPSILH
 70
     0
  9
$DIMSCALE
 40
1.0
  9
$DIMASZ
 40
0.18
  9
$DIMEXO
 40
0.0625
  9
$DIMDLI
 40
0.38
  9
$DIMRND
 40
0.0
  9
$DIMDLE
 40
0.0
  9
$DIMEXE
 40
0.18
  9
$DIMTP
 40
0.0
  9
$DIMTM
 40
0.0
  9
$DIMTXT
 40
0.18
  9
$DIMCEN
 40
0.09
  9
$DIMTSZ
 40
0.0
  9
$DIMTOL
 70
     0
  9
$DIMLIM
 70
     0
  9
$DIMTIH
 70
     1
  9
$DIMTOH
 70
     1
  9
$DIMSE1
 70
     0
  9
$DIMSE2
 70
     0
  9
$DIMTAD
 70
     0
  9
$DIMZIN
 70
     0
  9
$DIMBLK
  1

  9
$DIMASO
 70
     1
  9
$DIMSHO
 70
     1
  9
$DIMPOST
  1

  9
$DIMAPOST
  1

  9
$DIMALT
 70
     0
  9
$DIMALTD
 70
     2
  9
$DIMALTF
 40
25.4
  9
$DIMLFAC
 40
1.0
  9
$DIMTOFL
 70
     0
  9
$DIMTVP
 40
0.0
  9
$DIMTIX
 70
     0
  9
$DIMSOXD
 70
     0
  9
$DIMSAH
 70
     0
  9
$DIMBLK1
  1

  9
$DIMBLK2
  1

  9
$DIMSTYLE
  2
STANDARD
  9
$DIMCLRD
 70
     0
  9
$DIMCLRE
 70
     0
  9
$DIMCLRT
 70
     0
  9
$DIMTFAC
 40
1.0
  9
$DIMGAP
 40
0.09
  9
$DIMJUST
 70
     0
  9
$DIMSD1
 70
     0
  9
$DIMSD2
 70
     0
  9
$DIMTOLJ
 70
     1
  9
$DIMTZIN
 70
     0
  9
$DIMALTZ
 70
     0
  9
$DIMALTTZ
 70
     0
  9
$DIMFIT
 70
     3
  9
$DIMUPT
 70
     0
  9
$DIMUNIT
 70
     2
  9
$DIMDEC
 70
     4
  9
$DIMTDEC
 70
     4
  9
$DIMALTU
 70
     2
  9
$DIMALTTD
 70
     2
  9
$DIMTXSTY
  7
STANDARD
  9
$DIMAUNIT
 70
     0
  9
$LUNITS
 70
     2
  9
$LUPREC
 70
     4
  9
$SKETCHINC
 40
0.1
  9
$FILLETRAD
 40
0.5
  9
$AUNITS
 70
     0
  9
$AUPREC
 70
     0
  9
$MENU
  1
.
  9
$ELEVATION
 40
0.0
  9
$PELEVATION
 40
0.0
  9
$THICKNESS
 40
0.0
  9
$LIMCHECK
 70
     0
  9
$CHAMFERA
 40
0.0
  9
$CHAMFERB
 40
0.0
  9
$CHAMFERC
 40
0.0
  9
$CHAMFERD
 40
0.0
  9
$SKPOLY
 70
     0
  9
$TDCREATE
 40
2457093.445717581
  9
$TDUPDATE
 40
2457093.445717581
  9
$TDINDWG
 40
0.0000000116
  9
$TDUSRTIMER
 40
0.0000000116
  9
$USRTIMER
 70
     1
  9
$ANGBASE
 50
0.0
  9
$ANGDIR
 70
     0
  9
$PDMODE
 70
     0
  9
$PDSIZE
 40
0.0
  9
$PLINEWID
 40
0.0
  9
$COORDS
 70
     1
  9
$SPLFRAME
 70
     0
  9
$SPLINETYPE
 70
     6
  9
$SPLINESEGS
 70
     8
  9
$ATTDIA
 70
     0
  9
$ATTREQ
 70
     1
  9
$HANDLING
 70
     1
  9
$HANDSEED
  5
264
  9
$SURFTAB1
 70
     6
  9
$SURFTAB2
 70
     6
  9
$SURFTYPE
 70
     6
  9
$SURFU
 70
     6
  9
$SURFV
 70
     6
  9
$UCSNAME
  2

  9
$UCSORG
 10
0.0
 20
0.0
 30
0.0
  9
$UCSXDIR
 10
1.0
 20
0.0
 30
0.0
  9
$UCSYDIR
 10
0.0
 20
1.0
 30
0.0
  9
$PUCSNAME
  2

  9
$PUCSORG
 10
0.0
 20
0.0
 30
0.0
  9
$PUCSXDIR
 10
1.0
 20
0.0
 30
0.0
  9
$PUCSYDIR
 10
0.0
 20
1.0
 30
0.0
  9
$USERI1
 70
     0
  9
$USERI2
 70
     0
  9
$USERI3
 70
     0
  9
$USERI4
 70
     0
  9
$USERI5
 70
     0
  9
$USERR1
 40
0.0
  9
$USERR2
 40
0.0
  9
$USERR3
 40
0.0
  9
$USERR4
 40
0.0
  9
$USERR5
 40
0.0
  9
$WORLDVIEW
 70
     1
  9
$SHADEDGE
 70
     3
  9
$SHADEDIF
 70
    70
  9
$TILEMODE
 70
     1
  9
$MAXACTVP
 70
    64
  9
$PINSBASE
 10
0.0
 20
0.0
 30
0.0
  9
$PLIMCHECK
 70
     0
  9
$PEXTMIN
 10
1.000000000000000E+20
 20
1.000000000000000E+20
 30
1.000000000000000E+20
  9
$PEXTMAX
 10
-1.000000000000000E+20
 20
-1.000000000000000E+20
 30
-1.000000000000000E+20
  9
$PLIMMIN
 10
0.0
 20
0.0
  9
$PLIMMAX
 10
12.0
 20
9.0
  9
$UNITMODE
 70
     0
  9
$VISRETAIN
 70
     1
  9
$PLINEGEN
 70
     0
  9
$PSLTSCALE
 70
     1
  9
$TREEDEPTH
 70
  3020
  9
$PICKSTYLE
 70
     1
  9
$CMLSTYLE
  2
STANDARD
  9
$CMLJUST
 70
     0
  9
$CMLSCALE
 40
1.0
  9
$PROXYGRAPHICS
 70
     1
  9
$MEASUREMENT
 70
     1
  0
ENDSEC
  0
SECTION
  2
CLASSES
  0
CLASS
  1
ACDBDICTIONARYWDFLT
  2
AcDbDictionaryWithDefault
  3
ObjectDBX Classes
 90
        0
280
     0
281
     0
  0
CLASS
  1
VISUALSTYLE
  2
AcDbVisualStyle
  3
ObjectDBX Classes
 90
     4095
280
     0
281
     0
  0
CLASS
  1
MATERIAL
  2
AcDbMaterial
  3
ObjectDBX Classes
 90
     1153
280
     0
281
     0
  0
CLASS
  1
SCALE
  2
AcDbScale
  3
ObjectDBX Classes
 90
     1153
280
     0
281
     0
  0
CLASS
  1
SUN
  2
AcDbSun
  3
SCENEOE
 90
     1153
280
     0
281
     0
  0
CLASS
  1
DICTIONARYVAR
  2
AcDbDictionaryVar
  3
ObjectDBX Classes
 90
        0
280
     0
281
     0
  0
CLASS
  1
XRECORD
  2
AcDbXrecord
  3
ObjectDBX Classes
 90
        0
280
     0
281
     0
  0
CLASS
  1
LWPOLYLINE
  2
AcDbPolyline
  3
ObjectDBX Classes
 90
        0
280
     0
281
     1
  0
CLASS
  1
HATCH
  2
AcDbHatch
  3
ObjectDBX Classes
 90
        0
280
     0
281
     1
  0
CLASS
  1
ACDBPLACEHOLDER
  2
AcDbPlaceHolder
  3
ObjectDBX Classes
 90
        0
280
     0
281
     0
  0
CLASS
  1
LAYOUT
  2
AcDbLayout
  3
ObjectDBX Classes
 90
        0
280
     0
281
     0
  0
ENDSEC
  0
SECTION
  2
TABLES
  0
TABLE
  2
VPORT
  5
8
102
{ACAD_XDICTIONARY
360
25A
102
}
330
0
100
AcDbSymbolTable
 70
     1
  0
VPORT
  5
29
330
8
100
AcDbSymbolTableRecord
100
AcDbViewportTableRecord
  2
*ACTIVE
 70
     0
 10
0.0
 20
0.0
 11
1.0
 21
1.0
 12
0.0
 22
0.0
 13
0.0
 23
0.0
 14
0.5
 24
0.5
 15
0.5
 25
0.5
 16
0.0
 26
0.0
 36
1.0
 17
0.0
 27
0.0
 37
-1000.0
 40
497.1114911526784
 41
2.038216560509554
 42
50.0
 43
2384.818909172939
 44
3000.358666766926
 50
0.0
 51
0.0
 71
     0
 72
   100
 73
     1
 74
     3
 75
     0
 76
     0
 77
     0
 78
     0
  0
ENDTAB
  0
TABLE
  2
LTYPE
  5
5
330
0
100
AcDbSymbolTable
 70
     1
  0
LTYPE
  5
14
330
5
100
AcDbSymbolTableRecord
100
AcDbLinetypeTableRecord
  2
BYBLOCK
 70
     0
  3

 72
    65
 73
     0
 40
0.0
  0
LTYPE
  5
15
330
5
100
AcDbSymbolTableRecord
100
AcDbLinetypeTableRecord
  2
BYLAYER
 70
     0
  3

 72
    65
 73
     0
 40
0.0
  0
LTYPE
  5
16
330
5
100
AcDbSymbolTableRecord
100
AcDbLinetypeTableRecord
  2
CONTINUOUS
 70
     0
  3
Solid line
 72
    65
 73
     0
 40
0.0
  0
ENDTAB
  0
TABLE
  2
LAYER
  5
2
330
0
100
AcDbSymbolTable
 70
     3
  0
LAYER
  5
10
330
2
100
AcDbSymbolTableRecord
100
AcDbLayerTableRecord
  2
0
 70
     0
 62
     7
  6
CONTINUOUS
  0
LAYER
  5
6A
330
2
100
AcDbSymbolTableRecord
100
AcDbLayerTableRecord
  2
PROFILEEDGES
 70
     0
 62
     7
  6
CONTINUOUS
  0
LAYER
  5
6B
330
2
100
AcDbSymbolTableRecord
100
AcDbLayerTableRecord
  2
SECTIONCUTEDGES
 70
     0
 62
     7
  6
CONTINUOUS
  0
ENDTAB
  0
TABLE
  2
STYLE
  5
3
330
0
100
AcDbSymbolTable
 70
     2
  0
STYLE
  5
11
330
3
100
AcDbSymbolTableRecord
100
AcDbTextStyleTableRecord
  2
STANDARD
 70
     0
 40
0.0
 41
1.0
 50
0.0
 71
     0
 42
0.2
  3
txt
  4

  0
STYLE
  5
230
330
3
100
AcDbSymbolTableRecord
100
AcDbTextStyleTableRecord
  2
TAHOMA
 70
     0
 40
0.0
 41
1.0
 50
0.0
 71
     0
 42
0.2
  3
Tahoma
  4

1001
ACAD
1000
Tahoma
1071
       34
  0
ENDTAB
  0
TABLE
  2
VIEW
  5
6
330
0
100
AcDbSymbolTable
 70
     0
  0
ENDTAB
  0
TABLE
  2
UCS
  5
7
330
0
100
AcDbSymbolTable
 70
     0
  0
ENDTAB
  0
TABLE
  2
APPID
  5
9
330
0
100
AcDbSymbolTable
 70
     1
  0
APPID
  5
12
330
9
100
AcDbSymbolTableRecord
100
AcDbRegAppTableRecord
  2
ACAD
 70
     0
  0
ENDTAB
  0
TABLE
  2
DIMSTYLE
  5
A
330
0
100
AcDbSymbolTable
 70
     1
  0
DIMSTYLE
105
27
330
A
100
AcDbSymbolTableRecord
100
AcDbDimStyleTableRecord
  2
STANDARD
 70
     0
  3

  4

  5

  6

  7

 40
1.0
 41
0.18
 42
0.0625
 43
0.38
 44
0.18
 45
0.0
 46
0.0
 47
0.0
 48
0.0
140
0.18
141
0.09
142
0.0
143
25.4
144
1.0
145
0.0
146
1.0
147
0.09
 71
     0
 72
     0
 73
     1
 74
     1
 75
     0
 76
     0
 77
     0
 78
     0
170
     0
171
     2
172
     0
173
     0
174
     0
175
     0
176
     0
177
     0
178
     0
270
     2
271
     4
272
     4
273
     2
274
     2
340
11
275
     0
280
     0
281
     0
282
     0
283
     1
284
     0
285
     0
286
     0
287
     3
288
     0
  0
ENDTAB
  0
TABLE
  2
BLOCK_RECORD
  5
1
330
0
100
AcDbSymbolTable
 70
     1
  0
BLOCK_RECORD
  5
1F
330
1
100
AcDbSymbolTableRecord
100
AcDbBlockTableRecord
  2
*MODEL_SPACE
  0
BLOCK_RECORD
  5
1B
330
1
100
AcDbSymbolTableRecord
100
AcDbBlockTableRecord
  2
*PAPER_SPACE
  0
ENDTAB
  0
ENDSEC
  0
SECTION
  2
BLOCKS
  0
BLOCK
  5
20
330
1F
100
AcDbEntity
  8
0
100
AcDbBlockBegin
  2
*MODEL_SPACE
 70
     0
 10
0.0
 20
0.0
 30
0.0
  3
*MODEL_SPACE
  1

  0
ENDBLK
  5
21
330
1F
100
AcDbEntity
  8
0
100
AcDbBlockEnd
  0
BLOCK
  5
1C
330
1B
100
AcDbEntity
 67
     1
  8
0
100
AcDbBlockBegin
  2
*PAPER_SPACE
 70
     0
 10
0.0
 20
0.0
 30
0.0
  3
*PAPER_SPACE
  1

  0
ENDBLK
  5
1D
330
1B
100
AcDbEntity
 67
     1
  8
0
100
AcDbBlockEnd
  0
ENDSEC
  0
SECTION
  2
ENTITIES
  0
LINE
  5
6C
330
1F
100
AcDbEntity
  8
0
100
AcDbLine
 10
170.0096456140988
 20
-82.51158877122003
 30
0.0
 11
177.4096456140989
 21
-82.51158877122003
 31
0.0
  0
LINE
  5
6D
330
1F
100
AcDbEntity
  8
0
100
AcDbLine
 10
170.0096456140988
 20
-47.51158877122005
 30
0.0
 11
170.0096456140988
 21
-82.51158877122003
 31
0.0
  0
LINE
  5
6E
330
1F
100
AcDbEntity
  8
0
100
AcDbLine
 10
-56.19035438590112
 20
27.38841122877988
 30
0.0
 11
-56.19035438590112
 21
68.78841122877985
 31
0.0
  0
LINE
  5
6F
330
1F
100
AcDbEntity
  8
0
100
AcDbLine
 10
19.20964561409888
 20
103.2884112287799
 30
0.0
 11
19.20964561409888
 21
68.28841122877996
 31
0.0
  0
LINE
  5
70
330
1F
100
AcDbEntity
  8
0
100
AcDbLine
 10
26.6096456140989
 20
178.68841122878
 30
0.0
 11
19.20964561409887
 21
178.68841122878
 31
0.0
  0
LINE
  5
71
330
1F
100
AcDbEntity
  8
0
100
AcDbLine
 10
-48.79035438590099
 20
-6.611588771219966
 30
0.0
 11
-56.1903543859011
 21
-6.611588771219966
 31
0.0
  0
LINE
  5
72
330
1F
100
AcDbEntity
  8
0
100
AcDbLine
 10
19.20964561409887
 20
178.68841122878
 30
0.0
 11
19.20964561409887
 21
143.68841122878
 31
0.0
  0
LINE
  5
73
330
1F
100
AcDbEntity
  8
0
100
AcDbLine
 10
-56.19035438590112
 20
178.1884112287799
 30
0.0
 11
-48.7903543859011
 21
178.1884112287799
 31
0.0
  0
LINE
  5
74
330
1F
100
AcDbEntity
  8
0
100
AcDbLine
 10
26.60964561409891
 20
103.2884112287799
 30
0.0
 11
19.20964561409888
 21
103.2884112287799
 31
0.0
  0
LINE
  5
75
330
1F
100
AcDbEntity
  8
0
100
AcDbLine
 10
-48.79035438590109
 20
144.1884112287798
 30
0.0
 11
-56.19035438590112
 21
144.1884112287798
 31
0.0
  0
LINE
  5
76
330
1F
100
AcDbEntity
  8
0
100
AcDbLine
 10
-48.79035438590108
 20
102.7884112287799
 30
0.0
 11
-48.79035438590108
 21
68.78841122877985
 31
0.0
  0
LINE
  5
77
330
1F
100
AcDbEntity
  8
0
100
AcDbLine
 10
-48.790354385901
 20
27.38841122877988
 30
0.0
 11
-48.79035438590099
 21
-6.611588771219966
 31
0.0
  0
LINE
  5
78
330
1F
100
AcDbEntity
  8
0
100
AcDbLine
 10
19.20964561409887
 20
143.68841122878
 30
0.0
 11
26.6096456140989
 21
143.68841122878
 31
0.0
  0
LINE
  5
79
330
1F
100
AcDbEntity
  8
0
100
AcDbLine
 10
26.6096456140989
 20
143.68841122878
 30
0.0
 11
26.6096456140989
 21
178.68841122878
 31
0.0
  0
LINE
  5
7A
330
1F
100
AcDbEntity
  8
0
100
AcDbLine
 10
-32.29035438590115
 20
195.18841122878
 30
0.0
 11
-32.29035438590115
 21
202.5884112287799
 31
0.0
  0
LINE
  5
7B
330
1F
100
AcDbEntity
  8
0
100
AcDbLine
 10
26.609645614099
 20
27.88841122877995
 30
0.0
 11
19.20964561409888
 21
27.88841122877995
 31
0.0
  0
LINE
  5
7C
330
1F
100
AcDbEntity
  8
0
100
AcDbLine
 10
78.10964561409882
 20
202.5884112287799
 30
0.0
 11
118.5096456140988
 21
202.5884112287799
 31
0.0
  0
LINE
  5
7D
330
1F
100
AcDbEntity
  8
0
100
AcDbLine
 10
118.5096456140988
 20
195.18841122878
 30
0.0
 11
118.5096456140988
 21
202.5884112287799
 31
0.0
  0
LINE
  5
7E
330
1F
100
AcDbEntity
  8
0
100
AcDbLine
 10
153.5096456140988
 20
195.18841122878
 30
0.0
 11
118.5096456140988
 21
195.18841122878
 31
0.0
  0
LINE
  5
7F
330
1F
100
AcDbEntity
  8
0
100
AcDbLine
 10
2.709645614098833
 20
202.5884112287799
 30
0.0
 11
2.709645614098833
 21
195.18841122878
 31
0.0
  0
LINE
  5
80
330
1F
100
AcDbEntity
  8
0
100
AcDbLine
 10
153.5096456140988
 20
202.5884112287799
 30
0.0
 11
153.5096456140988
 21
195.18841122878
 31
0.0
  0
LINE
  5
81
330
1F
100
AcDbEntity
  8
0
100
AcDbLine
 10
153.5096456140988
 20
202.5884112287799
 30
0.0
 11
193.9096456140987
 21
202.5884112287799
 31
0.0
  0
LINE
  5
82
330
1F
100
AcDbEntity
  8
0
100
AcDbLine
 10
193.9096456140987
 20
195.18841122878
 30
0.0
 11
193.9096456140987
 21
202.5884112287799
 31
0.0
  0
LINE
  5
83
330
1F
100
AcDbEntity
  8
0
100
AcDbLine
 10
228.909645614099
 20
195.18841122878
 30
0.0
 11
193.9096456140987
 21
195.18841122878
 31
0.0
  0
LINE
  5
84
330
1F
100
AcDbEntity
  8
0
100
AcDbLine
 10
228.909645614099
 20
202.5884112287799
 30
0.0
 11
228.909645614099
 21
195.18841122878
 31
0.0
  0
LINE
  5
85
330
1F
100
AcDbEntity
  8
0
100
AcDbLine
 10
228.909645614099
 20
202.5884112287799
 30
0.0
 11
252.8096456140988
 21
202.5884112287799
 31
0.0
  0
LINE
  5
86
330
1F
100
AcDbEntity
  8
0
100
AcDbLine
 10
252.8096456140988
 20
202.5884112287799
 30
0.0
 11
252.809645614099
 21
178.68841122878
 31
0.0
  0
LINE
  5
87
330
1F
100
AcDbEntity
  8
0
100
AcDbLine
 10
252.809645614099
 20
178.68841122878
 30
0.0
 11
245.4096456140988
 21
178.68841122878
 31
0.0
  0
LINE
  5
88
330
1F
100
AcDbEntity
  8
0
100
AcDbLine
 10
245.4096456140988
 20
178.68841122878
 30
0.0
 11
245.4096456140988
 21
143.68841122878
 31
0.0
  0
LINE
  5
89
330
1F
100
AcDbEntity
  8
0
100
AcDbLine
 10
245.4096456140988
 20
143.68841122878
 30
0.0
 11
252.809645614099
 21
143.68841122878
 31
0.0
  0
LINE
  5
8A
330
1F
100
AcDbEntity
  8
0
100
AcDbLine
 10
252.809645614099
 20
143.68841122878
 30
0.0
 11
252.809645614099
 21
103.28841122878
 31
0.0
  0
LINE
  5
8B
330
1F
100
AcDbEntity
  8
0
100
AcDbLine
 10
252.809645614099
 20
103.28841122878
 30
0.0
 11
245.4096456140988
 21
103.28841122878
 31
0.0
  0
LINE
  5
8C
330
1F
100
AcDbEntity
  8
0
100
AcDbLine
 10
245.4096456140988
 20
103.28841122878
 30
0.0
 11
245.4096456140987
 21
68.28841122877999
 31
0.0
  0
LINE
  5
8D
330
1F
100
AcDbEntity
  8
0
100
AcDbLine
 10
245.4096456140987
 20
68.28841122877999
 30
0.0
 11
252.8096456140988
 21
68.28841122877999
 31
0.0
  0
LINE
  5
8E
330
1F
100
AcDbEntity
  8
0
100
AcDbLine
 10
252.8096456140988
 20
68.28841122877999
 30
0.0
 11
252.8096456140988
 21
27.88841122877997
 31
0.0
  0
LINE
  5
8F
330
1F
100
AcDbEntity
  8
0
100
AcDbLine
 10
252.8096456140988
 20
27.88841122877997
 30
0.0
 11
245.4096456140987
 21
27.88841122877997
 31
0.0
  0
LINE
  5
90
330
1F
100
AcDbEntity
  8
0
100
AcDbLine
 10
245.4096456140987
 20
27.88841122877997
 30
0.0
 11
245.4096456140987
 21
-7.111588771219988
 31
0.0
  0
LINE
  5
91
330
1F
100
AcDbEntity
  8
0
100
AcDbLine
 10
245.4096456140987
 20
-7.111588771219988
 30
0.0
 11
252.8096456140988
 21
-7.111588771219988
 31
0.0
  0
LINE
  5
92
330
1F
100
AcDbEntity
  8
0
100
AcDbLine
 10
252.8096456140988
 20
-7.111588771219988
 30
0.0
 11
252.8096456140988
 21
-47.51158877122
 31
0.0
  0
LINE
  5
93
330
1F
100
AcDbEntity
  8
0
100
AcDbLine
 10
252.8096456140988
 20
-47.51158877122
 30
0.0
 11
245.4096456140987
 21
-47.51158877122
 31
0.0
  0
LINE
  5
94
330
1F
100
AcDbEntity
  8
0
100
AcDbLine
 10
245.4096456140987
 20
-47.51158877122
 30
0.0
 11
245.4096456140987
 21
-82.51158877121999
 31
0.0
  0
LINE
  5
95
330
1F
100
AcDbEntity
  8
0
100
AcDbLine
 10
245.4096456140987
 20
-82.51158877121999
 30
0.0
 11
252.8096456140989
 21
-82.51158877121999
 31
0.0
  0
LINE
  5
96
330
1F
100
AcDbEntity
  8
0
100
AcDbLine
 10
252.8096456140989
 20
-82.51158877121999
 30
0.0
 11
252.8096456140987
 21
-106.41158877122
 31
0.0
  0
LINE
  5
97
330
1F
100
AcDbEntity
  8
0
100
AcDbLine
 10
252.8096456140987
 20
-106.41158877122
 30
0.0
 11
228.9096456140989
 21
-106.41158877122
 31
0.0
  0
LINE
  5
98
330
1F
100
AcDbEntity
  8
0
100
AcDbLine
 10
228.9096456140989
 20
-99.01158877122002
 30
0.0
 11
228.9096456140989
 21
-106.41158877122
 31
0.0
  0
LINE
  5
99
330
1F
100
AcDbEntity
  8
0
100
AcDbLine
 10
193.9096456140988
 20
-99.01158877122006
 30
0.0
 11
228.9096456140989
 21
-99.01158877122002
 31
0.0
  0
LINE
  5
9A
330
1F
100
AcDbEntity
  8
0
100
AcDbLine
 10
193.9096456140988
 20
-106.41158877122
 30
0.0
 11
193.9096456140988
 21
-99.01158877122006
 31
0.0
  0
LINE
  5
9B
330
1F
100
AcDbEntity
  8
0
100
AcDbLine
 10
193.9096456140988
 20
-106.41158877122
 30
0.0
 11
153.509645614099
 21
-106.41158877122
 31
0.0
  0
LINE
  5
9C
330
1F
100
AcDbEntity
  8
0
100
AcDbLine
 10
-48.79035438590098
 20
-82.01158877122015
 30
0.0
 11
-56.1903543859011
 21
-82.01158877122015
 31
0.0
  0
LINE
  5
9D
330
1F
100
AcDbEntity
  8
0
100
AcDbLine
 10
-56.1903543859011
 20
-106.41158877122
 30
0.0
 11
-56.1903543859011
 21
-82.01158877122015
 31
0.0
  0
LINE
  5
9E
330
1F
100
AcDbEntity
  8
0
100
AcDbLine
 10
2.709645614098855
 20
-99.01158877122006
 30
0.0
 11
2.709645614098855
 21
-106.41158877122
 31
0.0
  0
LINE
  5
9F
330
1F
100
AcDbEntity
  8
0
100
AcDbLine
 10
-48.79035438590098
 20
-48.01158877121993
 30
0.0
 11
-48.79035438590098
 21
-82.01158877122015
 31
0.0
  0
LINE
  5
A0
330
1F
100
AcDbEntity
  8
0
100
AcDbLine
 10
-56.1903543859011
 20
-48.01158877121993
 30
0.0
 11
-48.79035438590098
 21
-48.01158877121993
 31
0.0
  0
LINE
  5
A1
330
1F
100
AcDbEntity
  8
0
100
AcDbLine
 10
-56.1903543859011
 20
-48.01158877121993
 30
0.0
 11
-56.1903543859011
 21
-6.611588771219966
 31
0.0
  0
LINE
  5
A2
330
1F
100
AcDbEntity
  8
0
100
AcDbLine
 10
-32.29035438590113
 20
-106.41158877122
 30
0.0
 11
-56.1903543859011
 21
-106.41158877122
 31
0.0
  0
LINE
  5
A3
330
1F
100
AcDbEntity
  8
0
100
AcDbLine
 10
-32.29035438590113
 20
-106.41158877122
 30
0.0
 11
-32.29035438590113
 21
-99.01158877122006
 31
0.0
  0
LINE
  5
A4
330
1F
100
AcDbEntity
  8
0
100
AcDbLine
 10
-32.29035438590113
 20
-99.01158877122006
 30
0.0
 11
2.709645614098855
 21
-99.01158877122006
 31
0.0
  0
LINE
  5
A5
330
1F
100
AcDbEntity
  8
0
100
AcDbLine
 10
43.10964561409887
 20
-106.41158877122
 30
0.0
 11
2.709645614098855
 21
-106.41158877122
 31
0.0
  0
LINE
  5
A6
330
1F
100
AcDbEntity
  8
0
100
AcDbLine
 10
2.709645614098833
 20
195.18841122878
 30
0.0
 11
-32.29035438590115
 21
195.18841122878
 31
0.0
  0
LINE
  5
A7
330
1F
100
AcDbEntity
  8
0
100
AcDbLine
 10
-48.79035438590108
 20
68.78841122877985
 30
0.0
 11
-56.19035438590112
 21
68.78841122877985
 31
0.0
  0
LINE
  5
A8
330
1F
100
AcDbEntity
  8
0
100
AcDbLine
 10
94.60964561409887
 20
103.2884112287799
 30
0.0
 11
94.60964561409887
 21
68.28841122877999
 31
0.0
  0
LINE
  5
A9
330
1F
100
AcDbEntity
  8
0
100
AcDbLine
 10
19.20964561409889
 20
-82.51158877122003
 30
0.0
 11
26.60964561409902
 21
-82.51158877122003
 31
0.0
  0
LINE
  5
AA
330
1F
100
AcDbEntity
  8
0
100
AcDbLine
 10
94.6096456140989
 20
-7.111588771220033
 30
0.0
 11
102.009645614099
 21
-7.111588771220033
 31
0.0
  0
LINE
  5
AB
330
1F
100
AcDbEntity
  8
0
100
AcDbLine
 10
118.5096456140989
 20
-106.41158877122
 30
0.0
 11
118.5096456140989
 21
-99.01158877122006
 31
0.0
  0
LINE
  5
AC
330
1F
100
AcDbEntity
  8
0
100
AcDbLine
 10
102.009645614099
 20
27.88841122877997
 30
0.0
 11
94.6096456140989
 21
27.88841122877997
 31
0.0
  0
LINE
  5
AD
330
1F
100
AcDbEntity
  8
0
100
AcDbLine
 10
43.10964561409887
 20
-106.41158877122
 30
0.0
 11
43.10964561409887
 21
-99.01158877122006
 31
0.0
  0
LINE
  5
AE
330
1F
100
AcDbEntity
  8
0
100
AcDbLine
 10
43.10964561409887
 20
-99.01158877122006
 30
0.0
 11
78.10964561409885
 21
-99.01158877122006
 31
0.0
  0
LINE
  5
AF
330
1F
100
AcDbEntity
  8
0
100
AcDbLine
 10
78.10964561409885
 20
-99.01158877122006
 30
0.0
 11
78.10964561409885
 21
-106.41158877122
 31
0.0
  0
LINE
  5
B0
330
1F
100
AcDbEntity
  8
0
100
AcDbLine
 10
118.5096456140989
 20
-106.41158877122
 30
0.0
 11
78.10964561409885
 21
-106.41158877122
 31
0.0
  0
LINE
  5
B1
330
1F
100
AcDbEntity
  8
0
100
AcDbLine
 10
118.5096456140989
 20
-99.01158877122006
 30
0.0
 11
153.509645614099
 21
-99.01158877122006
 31
0.0
  0
LINE
  5
B2
330
1F
100
AcDbEntity
  8
0
100
AcDbLine
 10
153.509645614099
 20
-99.01158877122006
 30
0.0
 11
153.509645614099
 21
-106.41158877122
 31
0.0
  0
LINE
  5
B3
330
1F
100
AcDbEntity
  8
0
100
AcDbLine
 10
78.10964561409882
 20
202.5884112287799
 30
0.0
 11
78.10964561409882
 21
195.18841122878
 31
0.0
  0
LINE
  5
B4
330
1F
100
AcDbEntity
  8
0
100
AcDbLine
 10
78.10964561409882
 20
195.18841122878
 30
0.0
 11
43.10964561409885
 21
195.18841122878
 31
0.0
  0
LINE
  5
B5
330
1F
100
AcDbEntity
  8
0
100
AcDbLine
 10
43.10964561409885
 20
195.18841122878
 30
0.0
 11
43.10964561409885
 21
202.5884112287799
 31
0.0
  0
LINE
  5
B6
330
1F
100
AcDbEntity
  8
0
100
AcDbLine
 10
2.709645614098833
 20
202.5884112287799
 30
0.0
 11
43.10964561409885
 21
202.5884112287799
 31
0.0
  0
LINE
  5
B7
330
1F
100
AcDbEntity
  8
0
100
AcDbLine
 10
-56.19035438590112
 20
202.5884112287799
 30
0.0
 11
-32.29035438590115
 21
202.5884112287799
 31
0.0
  0
LINE
  5
B8
330
1F
100
AcDbEntity
  8
0
100
AcDbLine
 10
-56.19035438590112
 20
178.1884112287799
 30
0.0
 11
-56.19035438590112
 21
202.5884112287799
 31
0.0
  0
LINE
  5
B9
330
1F
100
AcDbEntity
  8
0
100
AcDbLine
 10
-48.7903543859011
 20
178.1884112287799
 30
0.0
 11
-48.79035438590109
 21
144.1884112287798
 31
0.0
  0
LINE
  5
BA
330
1F
100
AcDbEntity
  8
0
100
AcDbLine
 10
-56.19035438590112
 20
102.7884112287799
 30
0.0
 11
-56.19035438590112
 21
144.1884112287798
 31
0.0
  0
LINE
  5
BB
330
1F
100
AcDbEntity
  8
0
100
AcDbLine
 10
-56.19035438590112
 20
102.7884112287799
 30
0.0
 11
-48.79035438590108
 21
102.7884112287799
 31
0.0
  0
LINE
  5
BC
330
1F
100
AcDbEntity
  8
0
100
AcDbLine
 10
-56.19035438590112
 20
27.38841122877988
 30
0.0
 11
-48.790354385901
 21
27.38841122877988
 31
0.0
  0
LINE
  5
BD
330
1F
100
AcDbEntity
  8
0
100
AcDbLine
 10
26.60964561409891
 20
68.28841122877996
 30
0.0
 11
26.60964561409891
 21
103.2884112287799
 31
0.0
  0
LINE
  5
BE
330
1F
100
AcDbEntity
  8
0
100
AcDbLine
 10
19.20964561409888
 20
68.28841122877996
 30
0.0
 11
26.60964561409891
 21
68.28841122877996
 31
0.0
  0
LINE
  5
BF
330
1F
100
AcDbEntity
  8
0
100
AcDbLine
 10
26.60964561409902
 20
-7.111588771220033
 30
0.0
 11
26.609645614099
 21
27.88841122877995
 31
0.0
  0
LINE
  5
C0
330
1F
100
AcDbEntity
  8
0
100
AcDbLine
 10
19.20964561409889
 20
-7.111588771220033
 30
0.0
 11
26.60964561409902
 21
-7.111588771220033
 31
0.0
  0
LINE
  5
C1
330
1F
100
AcDbEntity
  8
0
100
AcDbLine
 10
19.20964561409888
 20
27.88841122877995
 30
0.0
 11
19.20964561409889
 21
-7.111588771220033
 31
0.0
  0
LINE
  5
C2
330
1F
100
AcDbEntity
  8
0
100
AcDbLine
 10
26.60964561409902
 20
-82.51158877122003
 30
0.0
 11
26.60964561409902
 21
-47.51158877122005
 31
0.0
  0
LINE
  5
C3
330
1F
100
AcDbEntity
  8
0
100
AcDbLine
 10
19.20964561409889
 20
-47.51158877122005
 30
0.0
 11
19.20964561409889
 21
-82.51158877122003
 31
0.0
  0
LINE
  5
C4
330
1F
100
AcDbEntity
  8
0
100
AcDbLine
 10
26.60964561409902
 20
-47.51158877122005
 30
0.0
 11
19.20964561409889
 21
-47.51158877122005
 31
0.0
  0
LINE
  5
C5
330
1F
100
AcDbEntity
  8
0
100
AcDbLine
 10
94.6096456140989
 20
-82.51158877122003
 30
0.0
 11
102.009645614099
 21
-82.51158877122003
 31
0.0
  0
LINE
  5
C6
330
1F
100
AcDbEntity
  8
0
100
AcDbLine
 10
94.6096456140989
 20
-47.51158877122005
 30
0.0
 11
94.6096456140989
 21
-82.51158877122003
 31
0.0
  0
LINE
  5
C7
330
1F
100
AcDbEntity
  8
0
100
AcDbLine
 10
102.009645614099
 20
-47.51158877122005
 30
0.0
 11
94.6096456140989
 21
-47.51158877122005
 31
0.0
  0
LINE
  5
C8
330
1F
100
AcDbEntity
  8
0
100
AcDbLine
 10
102.009645614099
 20
-82.51158877122003
 30
0.0
 11
102.009645614099
 21
-47.51158877122005
 31
0.0
  0
LINE
  5
C9
330
1F
100
AcDbEntity
  8
0
100
AcDbLine
 10
94.6096456140989
 20
27.88841122877997
 30
0.0
 11
94.6096456140989
 21
-7.111588771220033
 31
0.0
  0
LINE
  5
CA
330
1F
100
AcDbEntity
  8
0
100
AcDbLine
 10
102.009645614099
 20
-7.111588771220033
 30
0.0
 11
102.009645614099
 21
27.88841122877997
 31
0.0
  0
LINE
  5
CB
330
1F
100
AcDbEntity
  8
0
100
AcDbLine
 10
94.60964561409887
 20
68.28841122877999
 30
0.0
 11
102.0096456140989
 21
68.28841122877999
 31
0.0
  0
LINE
  5
CC
330
1F
100
AcDbEntity
  8
0
100
AcDbLine
 10
102.0096456140989
 20
103.2884112287799
 30
0.0
 11
94.60964561409887
 21
103.2884112287799
 31
0.0
  0
LINE
  5
CD
330
1F
100
AcDbEntity
  8
0
100
AcDbLine
 10
102.0096456140989
 20
68.28841122877999
 30
0.0
 11
102.0096456140989
 21
103.2884112287799
 31
0.0
  0
LINE
  5
CE
330
1F
100
AcDbEntity
  8
0
100
AcDbLine
 10
94.60964561409887
 20
143.68841122878
 30
0.0
 11
102.0096456140988
 21
143.68841122878
 31
0.0
  0
LINE
  5
CF
330
1F
100
AcDbEntity
  8
0
100
AcDbLine
 10
94.60964561409887
 20
178.68841122878
 30
0.0
 11
94.60964561409887
 21
143.68841122878
 31
0.0
  0
LINE
  5
D0
330
1F
100
AcDbEntity
  8
0
100
AcDbLine
 10
102.0096456140988
 20
178.68841122878
 30
0.0
 11
94.60964561409887
 21
178.68841122878
 31
0.0
  0
LINE
  5
D1
330
1F
100
AcDbEntity
  8
0
100
AcDbLine
 10
102.0096456140988
 20
143.68841122878
 30
0.0
 11
102.0096456140988
 21
178.68841122878
 31
0.0
  0
LINE
  5
D2
330
1F
100
AcDbEntity
  8
0
100
AcDbLine
 10
177.4096456140989
 20
-47.51158877122005
 30
0.0
 11
170.0096456140988
 21
-47.51158877122005
 31
0.0
  0
LINE
  5
D3
330
1F
100
AcDbEntity
  8
0
100
AcDbLine
 10
177.4096456140989
 20
-82.51158877122003
 30
0.0
 11
177.4096456140989
 21
-47.51158877122005
 31
0.0
  0
LINE
  5
D4
330
1F
100
AcDbEntity
  8
0
100
AcDbLine
 10
170.0096456140988
 20
-7.111588771220033
 30
0.0
 11
177.4096456140989
 21
-7.111588771220033
 31
0.0
  0
LINE
  5
D5
330
1F
100
AcDbEntity
  8
0
100
AcDbLine
 10
170.0096456140988
 20
27.88841122877997
 30
0.0
 11
170.0096456140988
 21
-7.111588771220033
 31
0.0
  0
LINE
  5
D6
330
1F
100
AcDbEntity
  8
0
100
AcDbLine
 10
177.4096456140989
 20
27.88841122877997
 30
0.0
 11
170.0096456140988
 21
27.88841122877997
 31
0.0
  0
LINE
  5
D7
330
1F
100
AcDbEntity
  8
0
100
AcDbLine
 10
177.4096456140989
 20
-7.111588771220033
 30
0.0
 11
177.4096456140989
 21
27.88841122877997
 31
0.0
  0
LINE
  5
D8
330
1F
100
AcDbEntity
  8
0
100
AcDbLine
 10
170.0096456140988
 20
68.28841122877999
 30
0.0
 11
177.4096456140988
 21
68.28841122877999
 31
0.0
  0
LINE
  5
D9
330
1F
100
AcDbEntity
  8
0
100
AcDbLine
 10
170.0096456140988
 20
103.28841122878
 30
0.0
 11
170.0096456140988
 21
68.28841122877999
 31
0.0
  0
LINE
  5
DA
330
1F
100
AcDbEntity
  8
0
100
AcDbLine
 10
177.4096456140988
 20
103.28841122878
 30
0.0
 11
170.0096456140988
 21
103.28841122878
 31
0.0
  0
LINE
  5
DB
330
1F
100
AcDbEntity
  8
0
100
AcDbLine
 10
177.4096456140988
 20
68.28841122877999
 30
0.0
 11
177.4096456140988
 21
103.28841122878
 31
0.0
  0
LINE
  5
DC
330
1F
100
AcDbEntity
  8
0
100
AcDbLine
 10
170.0096456140988
 20
143.68841122878
 30
0.0
 11
177.4096456140988
 21
143.68841122878
 31
0.0
  0
LINE
  5
DD
330
1F
100
AcDbEntity
  8
0
100
AcDbLine
 10
170.0096456140988
 20
178.68841122878
 30
0.0
 11
170.0096456140988
 21
143.68841122878
 31
0.0
  0
LINE
  5
DE
330
1F
100
AcDbEntity
  8
0
100
AcDbLine
 10
177.4096456140988
 20
178.68841122878
 30
0.0
 11
170.0096456140988
 21
178.68841122878
 31
0.0
  0
LINE
  5
DF
330
1F
100
AcDbEntity
  8
0
100
AcDbLine
 10
177.4096456140988
 20
143.68841122878
 30
0.0
 11
177.4096456140988
 21
178.68841122878
 31
0.0
  0
LINE
  5
E0
330
1F
100
AcDbEntity
  8
0
100
AcDbLine
 10
-32.29035438590113
 20
-31.01158877122001
 30
0.0
 11
-32.29035438590113
 21
-23.61158877122007
 31
0.0
  0
LINE
  5
E1
330
1F
100
AcDbEntity
  8
0
100
AcDbLine
 10
-32.29035438590113
 20
-23.61158877122007
 30
0.0
 11
2.709645614098855
 21
-23.61158877122007
 31
0.0
  0
LINE
  5
E2
330
1F
100
AcDbEntity
  8
0
100
AcDbLine
 10
2.709645614098855
 20
-23.61158877122007
 30
0.0
 11
2.709645614098855
 21
-31.01158877122001
 31
0.0
  0
LINE
  5
E3
330
1F
100
AcDbEntity
  8
0
100
AcDbLine
 10
2.709645614098855
 20
-31.01158877122001
 30
0.0
 11
-32.29035438590113
 21
-31.01158877122001
 31
0.0
  0
LINE
  5
E4
330
1F
100
AcDbEntity
  8
0
100
AcDbLine
 10
43.10964561409887
 20
-31.01158877122001
 30
0.0
 11
43.10964561409887
 21
-23.61158877122007
 31
0.0
  0
LINE
  5
E5
330
1F
100
AcDbEntity
  8
0
100
AcDbLine
 10
43.10964561409887
 20
-23.61158877122007
 30
0.0
 11
78.10964561409885
 21
-23.61158877122007
 31
0.0
  0
LINE
  5
E6
330
1F
100
AcDbEntity
  8
0
100
AcDbLine
 10
78.10964561409885
 20
-23.61158877122007
 30
0.0
 11
78.10964561409885
 21
-31.01158877122001
 31
0.0
  0
LINE
  5
E7
330
1F
100
AcDbEntity
  8
0
100
AcDbLine
 10
78.10964561409885
 20
-31.01158877122001
 30
0.0
 11
43.10964561409887
 21
-31.01158877122001
 31
0.0
  0
LINE
  5
E8
330
1F
100
AcDbEntity
  8
0
100
AcDbLine
 10
118.5096456140989
 20
-23.61158877122007
 30
0.0
 11
153.5096456140988
 21
-23.61158877122007
 31
0.0
  0
LINE
  5
E9
330
1F
100
AcDbEntity
  8
0
100
AcDbLine
 10
153.5096456140988
 20
-23.61158877122007
 30
0.0
 11
153.5096456140988
 21
-31.01158877122001
 31
0.0
  0
LINE
  5
EA
330
1F
100
AcDbEntity
  8
0
100
AcDbLine
 10
153.5096456140988
 20
-31.01158877122001
 30
0.0
 11
118.5096456140989
 21
-31.01158877122001
 31
0.0
  0
LINE
  5
EB
330
1F
100
AcDbEntity
  8
0
100
AcDbLine
 10
118.5096456140989
 20
-31.01158877122001
 30
0.0
 11
118.5096456140989
 21
-23.61158877122007
 31
0.0
  0
LINE
  5
EC
330
1F
100
AcDbEntity
  8
0
100
AcDbLine
 10
193.9096456140987
 20
-23.61158877122007
 30
0.0
 11
228.9096456140988
 21
-23.61158877122002
 31
0.0
  0
LINE
  5
ED
330
1F
100
AcDbEntity
  8
0
100
AcDbLine
 10
228.9096456140988
 20
-23.61158877122002
 30
0.0
 11
228.9096456140988
 21
-31.01158877121997
 31
0.0
  0
LINE
  5
EE
330
1F
100
AcDbEntity
  8
0
100
AcDbLine
 10
228.9096456140988
 20
-31.01158877121997
 30
0.0
 11
193.9096456140987
 21
-31.01158877122001
 31
0.0
  0
LINE
  5
EF
330
1F
100
AcDbEntity
  8
0
100
AcDbLine
 10
193.9096456140987
 20
-31.01158877122001
 30
0.0
 11
193.9096456140987
 21
-23.61158877122007
 31
0.0
  0
LINE
  5
F0
330
1F
100
AcDbEntity
  8
0
100
AcDbLine
 10
228.9096456140988
 20
44.38841122878001
 30
0.0
 11
193.9096456140987
 21
44.38841122878001
 31
0.0
  0
LINE
  5
F1
330
1F
100
AcDbEntity
  8
0
100
AcDbLine
 10
193.9096456140987
 20
44.38841122878001
 30
0.0
 11
193.9096456140987
 21
51.78841122877995
 31
0.0
  0
LINE
  5
F2
330
1F
100
AcDbEntity
  8
0
100
AcDbLine
 10
193.9096456140987
 20
51.78841122877995
 30
0.0
 11
228.9096456140988
 21
51.78841122877995
 31
0.0
  0
LINE
  5
F3
330
1F
100
AcDbEntity
  8
0
100
AcDbLine
 10
228.9096456140988
 20
51.78841122877995
 30
0.0
 11
228.9096456140988
 21
44.38841122878001
 31
0.0
  0
LINE
  5
F4
330
1F
100
AcDbEntity
  8
0
100
AcDbLine
 10
153.5096456140988
 20
44.38841122878001
 30
0.0
 11
118.5096456140989
 21
44.38841122878001
 31
0.0
  0
LINE
  5
F5
330
1F
100
AcDbEntity
  8
0
100
AcDbLine
 10
118.5096456140989
 20
44.38841122878001
 30
0.0
 11
118.5096456140989
 21
51.78841122877995
 31
0.0
  0
LINE
  5
F6
330
1F
100
AcDbEntity
  8
0
100
AcDbLine
 10
118.5096456140989
 20
51.78841122877995
 30
0.0
 11
153.5096456140988
 21
51.78841122877995
 31
0.0
  0
LINE
  5
F7
330
1F
100
AcDbEntity
  8
0
100
AcDbLine
 10
153.5096456140988
 20
51.78841122877995
 30
0.0
 11
153.5096456140988
 21
44.38841122878001
 31
0.0
  0
LINE
  5
F8
330
1F
100
AcDbEntity
  8
0
100
AcDbLine
 10
78.10964561409885
 20
44.38841122877999
 30
0.0
 11
43.10964561409886
 21
44.38841122877999
 31
0.0
  0
LINE
  5
F9
330
1F
100
AcDbEntity
  8
0
100
AcDbLine
 10
43.10964561409886
 20
44.38841122877999
 30
0.0
 11
43.10964561409886
 21
51.78841122877993
 31
0.0
  0
LINE
  5
FA
330
1F
100
AcDbEntity
  8
0
100
AcDbLine
 10
43.10964561409886
 20
51.78841122877993
 30
0.0
 11
78.10964561409885
 21
51.78841122877993
 31
0.0
  0
LINE
  5
FB
330
1F
100
AcDbEntity
  8
0
100
AcDbLine
 10
78.10964561409885
 20
51.78841122877993
 30
0.0
 11
78.10964561409885
 21
44.38841122877999
 31
0.0
  0
LINE
  5
FC
330
1F
100
AcDbEntity
  8
0
100
AcDbLine
 10
2.709645614098844
 20
44.38841122877999
 30
0.0
 11
-32.29035438590114
 21
44.38841122877999
 31
0.0
  0
LINE
  5
FD
330
1F
100
AcDbEntity
  8
0
100
AcDbLine
 10
-32.29035438590114
 20
44.38841122877999
 30
0.0
 11
-32.29035438590114
 21
51.78841122877993
 31
0.0
  0
LINE
  5
FE
330
1F
100
AcDbEntity
  8
0
100
AcDbLine
 10
-32.29035438590114
 20
51.78841122877993
 30
0.0
 11
2.709645614098844
 21
51.78841122877993
 31
0.0
  0
LINE
  5
FF
330
1F
100
AcDbEntity
  8
0
100
AcDbLine
 10
2.709645614098844
 20
51.78841122877993
 30
0.0
 11
2.709645614098844
 21
44.38841122877999
 31
0.0
  0
LINE
  5
100
330
1F
100
AcDbEntity
  8
0
100
AcDbLine
 10
228.909645614099
 20
119.78841122878
 30
0.0
 11
193.9096456140987
 21
119.78841122878
 31
0.0
  0
LINE
  5
101
330
1F
100
AcDbEntity
  8
0
100
AcDbLine
 10
193.9096456140987
 20
119.78841122878
 30
0.0
 11
193.9096456140987
 21
127.1884112287799
 31
0.0
  0
LINE
  5
102
330
1F
100
AcDbEntity
  8
0
100
AcDbLine
 10
193.9096456140987
 20
127.1884112287799
 30
0.0
 11
228.909645614099
 21
127.1884112287799
 31
0.0
  0
LINE
  5
103
330
1F
100
AcDbEntity
  8
0
100
AcDbLine
 10
228.909645614099
 20
127.1884112287799
 30
0.0
 11
228.909645614099
 21
119.78841122878
 31
0.0
  0
LINE
  5
104
330
1F
100
AcDbEntity
  8
0
100
AcDbLine
 10
153.5096456140988
 20
119.78841122878
 30
0.0
 11
118.5096456140988
 21
119.78841122878
 31
0.0
  0
LINE
  5
105
330
1F
100
AcDbEntity
  8
0
100
AcDbLine
 10
118.5096456140988
 20
119.78841122878
 30
0.0
 11
118.5096456140988
 21
127.1884112287799
 31
0.0
  0
LINE
  5
106
330
1F
100
AcDbEntity
  8
0
100
AcDbLine
 10
118.5096456140988
 20
127.1884112287799
 30
0.0
 11
153.5096456140988
 21
127.1884112287799
 31
0.0
  0
LINE
  5
107
330
1F
100
AcDbEntity
  8
0
100
AcDbLine
 10
153.5096456140988
 20
127.1884112287799
 30
0.0
 11
153.5096456140988
 21
119.78841122878
 31
0.0
  0
LINE
  5
108
330
1F
100
AcDbEntity
  8
0
100
AcDbLine
 10
78.10964561409882
 20
119.78841122878
 30
0.0
 11
43.10964561409886
 21
119.78841122878
 31
0.0
  0
LINE
  5
109
330
1F
100
AcDbEntity
  8
0
100
AcDbLine
 10
43.10964561409886
 20
119.78841122878
 30
0.0
 11
43.10964561409886
 21
127.1884112287799
 31
0.0
  0
LINE
  5
10A
330
1F
100
AcDbEntity
  8
0
100
AcDbLine
 10
43.10964561409886
 20
127.1884112287799
 30
0.0
 11
78.10964561409882
 21
127.1884112287799
 31
0.0
  0
LINE
  5
10B
330
1F
100
AcDbEntity
  8
0
100
AcDbLine
 10
78.10964561409882
 20
127.1884112287799
 30
0.0
 11
78.10964561409882
 21
119.78841122878
 31
0.0
  0
LINE
  5
10C
330
1F
100
AcDbEntity
  8
0
100
AcDbLine
 10
2.709645614098844
 20
119.78841122878
 30
0.0
 11
-32.29035438590114
 21
119.78841122878
 31
0.0
  0
LINE
  5
10D
330
1F
100
AcDbEntity
  8
0
100
AcDbLine
 10
-32.29035438590114
 20
119.78841122878
 30
0.0
 11
-32.29035438590114
 21
127.1884112287799
 31
0.0
  0
LINE
  5
10E
330
1F
100
AcDbEntity
  8
0
100
AcDbLine
 10
-32.29035438590114
 20
127.1884112287799
 30
0.0
 11
2.709645614098844
 21
127.1884112287799
 31
0.0
  0
LINE
  5
10F
330
1F
100
AcDbEntity
  8
0
100
AcDbLine
 10
2.709645614098844
 20
127.1884112287799
 30
0.0
 11
2.709645614098844
 21
119.78841122878
 31
0.0
  0
LINE
  5
110
330
1F
100
AcDbEntity
  8
0
100
AcDbLine
 10
288.9185281103425
 20
225.4617517237988
 30
0.0
 11
288.9185281103425
 21
-224.5382482762011
 31
0.0
  0
LINE
  5
111
330
1F
100
AcDbEntity
  8
0
100
AcDbLine
 10
-311.0814718896574
 20
225.4617517237988
 30
0.0
 11
288.9185281103425
 21
225.4617517237988
 31
0.0
  0
LINE
  5
112
330
1F
100
AcDbEntity
  8
0
100
AcDbLine
 10
-311.0814718896573
 20
-224.5382482762012
 30
0.0
 11
-311.0814718896574
 21
225.4617517237988
 31
0.0
  0
LINE
  5
113
330
1F
100
AcDbEntity
  8
0
100
AcDbLine
 10
288.9185281103425
 20
-224.5382482762011
 30
0.0
 11
-311.0814718896573
 21
-224.5382482762012
 31
0.0
  0
LINE
  5
114
330
1F
100
AcDbEntity
  8
0
100
AcDbLine
 10
-84.90138907169744
 20
207.9850882352222
 30
0.0
 11
-101.0013890716975
 21
207.9850882352222
 31
0.0
  0
LINE
  5
115
330
1F
100
AcDbEntity
  8
0
100
AcDbLine
 10
-107.9013890716976
 20
32.78508823522228
 30
0.0
 11
-107.9013890716976
 21
-1.214911764777746
 31
0.0
  0
LINE
  5
116
330
1F
100
AcDbEntity
  8
0
100
AcDbLine
 10
-84.90138907169762
 20
132.5850882352221
 30
0.0
 11
-61.90138907169752
 21
132.5850882352221
 31
0.0
  0
LINE
  5
117
330
1F
100
AcDbEntity
  8
0
100
AcDbLine
 10
-61.90138907169752
 20
125.1850882352222
 30
0.0
 11
-84.90138907169762
 21
125.1850882352222
 31
0.0
  0
LINE
  5
118
330
1F
100
AcDbEntity
  8
0
100
AcDbLine
 10
-61.90138907169752
 20
132.5850882352221
 30
0.0
 11
-61.90138907169744
 21
200.5850882352222
 31
0.0
  0
LINE
  5
119
330
1F
100
AcDbEntity
  8
0
100
AcDbLine
 10
-84.90138907169762
 20
125.1850882352222
 30
0.0
 11
-84.90138907169762
 21
132.5850882352221
 31
0.0
  0
LINE
  5
11A
330
1F
100
AcDbEntity
  8
0
100
AcDbLine
 10
-101.0013890716979
 20
-76.61491176477774
 30
0.0
 11
-107.9013890716977
 21
-76.61491176477774
 31
0.0
  0
LINE
  5
11B
330
1F
100
AcDbEntity
  8
0
100
AcDbLine
 10
-101.0013890716975
 20
183.5850882352221
 30
0.0
 11
-101.0013890716975
 21
207.9850882352222
 31
0.0
  0
LINE
  5
11C
330
1F
100
AcDbEntity
  8
0
100
AcDbLine
 10
-101.0013890716975
 20
183.5850882352221
 30
0.0
 11
-107.9013890716975
 21
183.5850882352221
 31
0.0
  0
LINE
  5
11D
330
1F
100
AcDbEntity
  8
0
100
AcDbLine
 10
-107.9013890716975
 20
183.5850882352221
 30
0.0
 11
-107.9013890716975
 21
149.5850882352221
 31
0.0
  0
LINE
  5
11E
330
1F
100
AcDbEntity
  8
0
100
AcDbLine
 10
-101.0013890716975
 20
149.5850882352223
 30
0.0
 11
-107.9013890716975
 21
149.5850882352221
 31
0.0
  0
LINE
  5
11F
330
1F
100
AcDbEntity
  8
0
100
AcDbLine
 10
-101.0013890716975
 20
108.1850882352221
 30
0.0
 11
-101.0013890716975
 21
149.5850882352223
 31
0.0
  0
LINE
  5
120
330
1F
100
AcDbEntity
  8
0
100
AcDbLine
 10
-101.0013890716975
 20
108.1850882352221
 30
0.0
 11
-107.9013890716975
 21
108.1850882352221
 31
0.0
  0
LINE
  5
121
330
1F
100
AcDbEntity
  8
0
100
AcDbLine
 10
-107.9013890716975
 20
108.1850882352221
 30
0.0
 11
-107.9013890716975
 21
74.18508823522207
 31
0.0
  0
LINE
  5
122
330
1F
100
AcDbEntity
  8
0
100
AcDbLine
 10
-101.0013890716976
 20
74.18508823522207
 30
0.0
 11
-107.9013890716975
 21
74.18508823522207
 31
0.0
  0
LINE
  5
123
330
1F
100
AcDbEntity
  8
0
100
AcDbLine
 10
-101.0013890716977
 20
32.78508823522228
 30
0.0
 11
-101.0013890716976
 21
74.18508823522207
 31
0.0
  0
LINE
  5
124
330
1F
100
AcDbEntity
  8
0
100
AcDbLine
 10
-101.0013890716977
 20
32.78508823522228
 30
0.0
 11
-107.9013890716976
 21
32.78508823522228
 31
0.0
  0
LINE
  5
125
330
1F
100
AcDbEntity
  8
0
100
AcDbLine
 10
-101.0013890716977
 20
-1.214911764777746
 30
0.0
 11
-107.9013890716976
 21
-1.214911764777746
 31
0.0
  0
LINE
  5
126
330
1F
100
AcDbEntity
  8
0
100
AcDbLine
 10
-101.0013890716979
 20
-42.61491176477772
 30
0.0
 11
-101.0013890716977
 21
-1.214911764777746
 31
0.0
  0
LINE
  5
127
330
1F
100
AcDbEntity
  8
0
100
AcDbLine
 10
-101.0013890716979
 20
-42.61491176477772
 30
0.0
 11
-107.9013890716977
 21
-42.61491176477772
 31
0.0
  0
LINE
  5
128
330
1F
100
AcDbEntity
  8
0
100
AcDbLine
 10
-107.9013890716977
 20
-42.61491176477772
 30
0.0
 11
-107.9013890716977
 21
-76.61491176477774
 31
0.0
  0
LINE
  5
129
330
1F
100
AcDbEntity
  8
0
100
AcDbLine
 10
-101.0013890716977
 20
-101.0149117647778
 30
0.0
 11
-101.0013890716979
 21
-76.61491176477774
 31
0.0
  0
LINE
  5
12A
330
1F
100
AcDbEntity
  8
0
100
AcDbLine
 10
-101.0013890716977
 20
-101.0149117647778
 30
0.0
 11
-84.90138907169786
 21
-101.0149117647778
 31
0.0
  0
LINE
  5
12B
330
1F
100
AcDbEntity
  8
0
100
AcDbLine
 10
-84.90138907169786
 20
-93.61491176477784
 30
0.0
 11
-84.90138907169786
 21
-101.0149117647778
 31
0.0
  0
LINE
  5
12C
330
1F
100
AcDbEntity
  8
0
100
AcDbLine
 10
-61.90138907169786
 20
-93.61491176477784
 30
0.0
 11
-84.90138907169786
 21
-93.61491176477784
 31
0.0
  0
LINE
  5
12D
330
1F
100
AcDbEntity
  8
0
100
AcDbLine
 10
-61.90138907169786
 20
-93.61491176477784
 30
0.0
 11
-61.90138907169768
 21
-25.61491176477779
 31
0.0
  0
LINE
  5
12E
330
1F
100
AcDbEntity
  8
0
100
AcDbLine
 10
-61.90138907169768
 20
-25.61491176477779
 30
0.0
 11
-84.90138907169786
 21
-25.61491176477779
 31
0.0
  0
LINE
  5
12F
330
1F
100
AcDbEntity
  8
0
100
AcDbLine
 10
-84.90138907169786
 20
-25.61491176477779
 30
0.0
 11
-84.90138907169778
 21
-18.21491176477785
 31
0.0
  0
LINE
  5
130
330
1F
100
AcDbEntity
  8
0
100
AcDbLine
 10
-84.90138907169778
 20
-18.21491176477785
 30
0.0
 11
-61.90138907169759
 21
-18.21491176477785
 31
0.0
  0
LINE
  5
131
330
1F
100
AcDbEntity
  8
0
100
AcDbLine
 10
-61.90138907169759
 20
-18.21491176477785
 30
0.0
 11
-61.9013890716976
 21
49.7850882352222
 31
0.0
  0
LINE
  5
132
330
1F
100
AcDbEntity
  8
0
100
AcDbLine
 10
-61.9013890716976
 20
49.7850882352222
 30
0.0
 11
-84.90138907169779
 21
49.7850882352222
 31
0.0
  0
LINE
  5
133
330
1F
100
AcDbEntity
  8
0
100
AcDbLine
 10
-84.90138907169779
 20
49.7850882352222
 30
0.0
 11
-84.90138907169761
 21
57.18508823522215
 31
0.0
  0
LINE
  5
134
330
1F
100
AcDbEntity
  8
0
100
AcDbLine
 10
-84.90138907169761
 20
57.18508823522215
 30
0.0
 11
-61.90138907169752
 21
57.18508823522215
 31
0.0
  0
LINE
  5
135
330
1F
100
AcDbEntity
  8
0
100
AcDbLine
 10
-61.90138907169752
 20
57.18508823522215
 30
0.0
 11
-61.90138907169752
 21
125.1850882352222
 31
0.0
  0
LINE
  5
136
330
1F
100
AcDbEntity
  8
0
100
AcDbLine
 10
-61.90138907169744
 20
200.5850882352222
 30
0.0
 11
-84.90138907169744
 21
200.5850882352222
 31
0.0
  0
LINE
  5
137
330
1F
100
AcDbEntity
  8
0
100
AcDbLine
 10
-84.90138907169744
 20
200.5850882352222
 30
0.0
 11
-84.90138907169744
 21
207.9850882352222
 31
0.0
  0
LINE
  5
138
330
1F
100
AcDbEntity
  8
0
100
AcDbLine
 10
-141.1013890716976
 20
207.9850882352222
 30
0.0
 11
-157.2013890716976
 21
207.9850882352222
 31
0.0
  0
LINE
  5
139
330
1F
100
AcDbEntity
  8
0
100
AcDbLine
 10
-164.1013890716977
 20
32.78508823522228
 30
0.0
 11
-164.1013890716977
 21
-1.214911764777746
 31
0.0
  0
LINE
  5
13A
330
1F
100
AcDbEntity
  8
0
100
AcDbLine
 10
-141.1013890716978
 20
132.5850882352221
 30
0.0
 11
-118.1013890716977
 21
132.5850882352221
 31
0.0
  0
LINE
  5
13B
330
1F
100
AcDbEntity
  8
0
100
AcDbLine
 10
-118.1013890716977
 20
125.1850882352222
 30
0.0
 11
-141.1013890716978
 21
125.1850882352222
 31
0.0
  0
LINE
  5
13C
330
1F
100
AcDbEntity
  8
0
100
AcDbLine
 10
-118.1013890716977
 20
132.5850882352221
 30
0.0
 11
-118.1013890716976
 21
200.5850882352222
 31
0.0
  0
LINE
  5
13D
330
1F
100
AcDbEntity
  8
0
100
AcDbLine
 10
-141.1013890716978
 20
125.1850882352222
 30
0.0
 11
-141.1013890716978
 21
132.5850882352221
 31
0.0
  0
LINE
  5
13E
330
1F
100
AcDbEntity
  8
0
100
AcDbLine
 10
-157.201389071698
 20
-76.61491176477774
 30
0.0
 11
-164.1013890716978
 21
-76.61491176477774
 31
0.0
  0
LINE
  5
13F
330
1F
100
AcDbEntity
  8
0
100
AcDbLine
 10
-157.2013890716976
 20
183.5850882352221
 30
0.0
 11
-157.2013890716976
 21
207.9850882352222
 31
0.0
  0
LINE
  5
140
330
1F
100
AcDbEntity
  8
0
100
AcDbLine
 10
-157.2013890716976
 20
183.5850882352221
 30
0.0
 11
-164.1013890716976
 21
183.5850882352221
 31
0.0
  0
LINE
  5
141
330
1F
100
AcDbEntity
  8
0
100
AcDbLine
 10
-164.1013890716976
 20
183.5850882352221
 30
0.0
 11
-164.1013890716976
 21
149.5850882352221
 31
0.0
  0
LINE
  5
142
330
1F
100
AcDbEntity
  8
0
100
AcDbLine
 10
-157.2013890716976
 20
149.5850882352223
 30
0.0
 11
-164.1013890716976
 21
149.5850882352221
 31
0.0
  0
LINE
  5
143
330
1F
100
AcDbEntity
  8
0
100
AcDbLine
 10
-157.2013890716976
 20
108.1850882352221
 30
0.0
 11
-157.2013890716976
 21
149.5850882352223
 31
0.0
  0
LINE
  5
144
330
1F
100
AcDbEntity
  8
0
100
AcDbLine
 10
-157.2013890716976
 20
108.1850882352221
 30
0.0
 11
-164.1013890716976
 21
108.1850882352221
 31
0.0
  0
LINE
  5
145
330
1F
100
AcDbEntity
  8
0
100
AcDbLine
 10
-164.1013890716976
 20
108.1850882352221
 30
0.0
 11
-164.1013890716976
 21
74.18508823522207
 31
0.0
  0
LINE
  5
146
330
1F
100
AcDbEntity
  8
0
100
AcDbLine
 10
-157.2013890716977
 20
74.18508823522207
 30
0.0
 11
-164.1013890716976
 21
74.18508823522207
 31
0.0
  0
LINE
  5
147
330
1F
100
AcDbEntity
  8
0
100
AcDbLine
 10
-157.2013890716978
 20
32.78508823522228
 30
0.0
 11
-157.2013890716977
 21
74.18508823522207
 31
0.0
  0
LINE
  5
148
330
1F
100
AcDbEntity
  8
0
100
AcDbLine
 10
-157.2013890716978
 20
32.78508823522228
 30
0.0
 11
-164.1013890716977
 21
32.78508823522228
 31
0.0
  0
LINE
  5
149
330
1F
100
AcDbEntity
  8
0
100
AcDbLine
 10
-157.2013890716978
 20
-1.214911764777746
 30
0.0
 11
-164.1013890716977
 21
-1.214911764777746
 31
0.0
  0
LINE
  5
14A
330
1F
100
AcDbEntity
  8
0
100
AcDbLine
 10
-157.201389071698
 20
-42.61491176477772
 30
0.0
 11
-157.2013890716978
 21
-1.214911764777746
 31
0.0
  0
LINE
  5
14B
330
1F
100
AcDbEntity
  8
0
100
AcDbLine
 10
-157.201389071698
 20
-42.61491176477772
 30
0.0
 11
-164.1013890716978
 21
-42.61491176477772
 31
0.0
  0
LINE
  5
14C
330
1F
100
AcDbEntity
  8
0
100
AcDbLine
 10
-164.1013890716978
 20
-42.61491176477772
 30
0.0
 11
-164.1013890716978
 21
-76.61491176477774
 31
0.0
  0
LINE
  5
14D
330
1F
100
AcDbEntity
  8
0
100
AcDbLine
 10
-157.2013890716978
 20
-101.0149117647778
 30
0.0
 11
-157.201389071698
 21
-76.61491176477774
 31
0.0
  0
LINE
  5
14E
330
1F
100
AcDbEntity
  8
0
100
AcDbLine
 10
-157.2013890716978
 20
-101.0149117647778
 30
0.0
 11
-141.101389071698
 21
-101.0149117647778
 31
0.0
  0
LINE
  5
14F
330
1F
100
AcDbEntity
  8
0
100
AcDbLine
 10
-141.101389071698
 20
-93.61491176477784
 30
0.0
 11
-141.101389071698
 21
-101.0149117647778
 31
0.0
  0
LINE
  5
150
330
1F
100
AcDbEntity
  8
0
100
AcDbLine
 10
-118.101389071698
 20
-93.61491176477784
 30
0.0
 11
-141.101389071698
 21
-93.61491176477784
 31
0.0
  0
LINE
  5
151
330
1F
100
AcDbEntity
  8
0
100
AcDbLine
 10
-118.101389071698
 20
-93.61491176477784
 30
0.0
 11
-118.1013890716978
 21
-25.61491176477779
 31
0.0
  0
LINE
  5
152
330
1F
100
AcDbEntity
  8
0
100
AcDbLine
 10
-118.1013890716978
 20
-25.61491176477779
 30
0.0
 11
-141.101389071698
 21
-25.61491176477779
 31
0.0
  0
LINE
  5
153
330
1F
100
AcDbEntity
  8
0
100
AcDbLine
 10
-141.101389071698
 20
-25.61491176477779
 30
0.0
 11
-141.1013890716979
 21
-18.21491176477785
 31
0.0
  0
LINE
  5
154
330
1F
100
AcDbEntity
  8
0
100
AcDbLine
 10
-141.1013890716979
 20
-18.21491176477785
 30
0.0
 11
-118.1013890716977
 21
-18.21491176477785
 31
0.0
  0
LINE
  5
155
330
1F
100
AcDbEntity
  8
0
100
AcDbLine
 10
-118.1013890716977
 20
-18.21491176477785
 30
0.0
 11
-118.1013890716977
 21
49.7850882352222
 31
0.0
  0
LINE
  5
156
330
1F
100
AcDbEntity
  8
0
100
AcDbLine
 10
-118.1013890716977
 20
49.7850882352222
 30
0.0
 11
-141.1013890716979
 21
49.7850882352222
 31
0.0
  0
LINE
  5
157
330
1F
100
AcDbEntity
  8
0
100
AcDbLine
 10
-141.1013890716979
 20
49.7850882352222
 30
0.0
 11
-141.1013890716978
 21
57.18508823522215
 31
0.0
  0
LINE
  5
158
330
1F
100
AcDbEntity
  8
0
100
AcDbLine
 10
-141.1013890716978
 20
57.18508823522215
 30
0.0
 11
-118.1013890716977
 21
57.18508823522215
 31
0.0
  0
LINE
  5
159
330
1F
100
AcDbEntity
  8
0
100
AcDbLine
 10
-118.1013890716977
 20
57.18508823522215
 30
0.0
 11
-118.1013890716977
 21
125.1850882352222
 31
0.0
  0
LINE
  5
15A
330
1F
100
AcDbEntity
  8
0
100
AcDbLine
 10
-118.1013890716976
 20
200.5850882352222
 30
0.0
 11
-141.1013890716976
 21
200.5850882352222
 31
0.0
  0
LINE
  5
15B
330
1F
100
AcDbEntity
  8
0
100
AcDbLine
 10
-141.1013890716976
 20
200.5850882352222
 30
0.0
 11
-141.1013890716976
 21
207.9850882352222
 31
0.0
  0
LINE
  5
15C
330
1F
100
AcDbEntity
  8
0
100
AcDbLine
 10
-197.3013890716977
 20
207.9850882352222
 30
0.0
 11
-213.4013890716977
 21
207.9850882352222
 31
0.0
  0
LINE
  5
15D
330
1F
100
AcDbEntity
  8
0
100
AcDbLine
 10
-220.3013890716979
 20
32.78508823522228
 30
0.0
 11
-220.3013890716979
 21
-1.214911764777746
 31
0.0
  0
LINE
  5
15E
330
1F
100
AcDbEntity
  8
0
100
AcDbLine
 10
-197.3013890716979
 20
132.5850882352221
 30
0.0
 11
-174.3013890716978
 21
132.5850882352221
 31
0.0
  0
LINE
  5
15F
330
1F
100
AcDbEntity
  8
0
100
AcDbLine
 10
-174.3013890716978
 20
125.1850882352222
 30
0.0
 11
-197.3013890716979
 21
125.1850882352222
 31
0.0
  0
LINE
  5
160
330
1F
100
AcDbEntity
  8
0
100
AcDbLine
 10
-174.3013890716978
 20
132.5850882352221
 30
0.0
 11
-174.3013890716977
 21
200.5850882352222
 31
0.0
  0
LINE
  5
161
330
1F
100
AcDbEntity
  8
0
100
AcDbLine
 10
-197.3013890716979
 20
125.1850882352222
 30
0.0
 11
-197.3013890716979
 21
132.5850882352221
 31
0.0
  0
LINE
  5
162
330
1F
100
AcDbEntity
  8
0
100
AcDbLine
 10
-213.4013890716981
 20
-76.61491176477774
 30
0.0
 11
-220.3013890716979
 21
-76.61491176477774
 31
0.0
  0
LINE
  5
163
330
1F
100
AcDbEntity
  8
0
100
AcDbLine
 10
-213.4013890716977
 20
183.5850882352221
 30
0.0
 11
-213.4013890716977
 21
207.9850882352222
 31
0.0
  0
LINE
  5
164
330
1F
100
AcDbEntity
  8
0
100
AcDbLine
 10
-213.4013890716977
 20
183.5850882352221
 30
0.0
 11
-220.3013890716978
 21
183.5850882352221
 31
0.0
  0
LINE
  5
165
330
1F
100
AcDbEntity
  8
0
100
AcDbLine
 10
-220.3013890716978
 20
183.5850882352221
 30
0.0
 11
-220.3013890716978
 21
149.5850882352221
 31
0.0
  0
LINE
  5
166
330
1F
100
AcDbEntity
  8
0
100
AcDbLine
 10
-213.4013890716977
 20
149.5850882352223
 30
0.0
 11
-220.3013890716978
 21
149.5850882352221
 31
0.0
  0
LINE
  5
167
330
1F
100
AcDbEntity
  8
0
100
AcDbLine
 10
-213.4013890716977
 20
108.1850882352221
 30
0.0
 11
-213.4013890716977
 21
149.5850882352223
 31
0.0
  0
LINE
  5
168
330
1F
100
AcDbEntity
  8
0
100
AcDbLine
 10
-213.4013890716977
 20
108.1850882352221
 30
0.0
 11
-220.3013890716978
 21
108.1850882352221
 31
0.0
  0
LINE
  5
169
330
1F
100
AcDbEntity
  8
0
100
AcDbLine
 10
-220.3013890716978
 20
108.1850882352221
 30
0.0
 11
-220.3013890716978
 21
74.18508823522207
 31
0.0
  0
LINE
  5
16A
330
1F
100
AcDbEntity
  8
0
100
AcDbLine
 10
-213.4013890716978
 20
74.18508823522207
 30
0.0
 11
-220.3013890716978
 21
74.18508823522207
 31
0.0
  0
LINE
  5
16B
330
1F
100
AcDbEntity
  8
0
100
AcDbLine
 10
-213.401389071698
 20
32.78508823522228
 30
0.0
 11
-213.4013890716978
 21
74.18508823522207
 31
0.0
  0
LINE
  5
16C
330
1F
100
AcDbEntity
  8
0
100
AcDbLine
 10
-213.401389071698
 20
32.78508823522228
 30
0.0
 11
-220.3013890716979
 21
32.78508823522228
 31
0.0
  0
LINE
  5
16D
330
1F
100
AcDbEntity
  8
0
100
AcDbLine
 10
-213.401389071698
 20
-1.214911764777746
 30
0.0
 11
-220.3013890716979
 21
-1.214911764777746
 31
0.0
  0
LINE
  5
16E
330
1F
100
AcDbEntity
  8
0
100
AcDbLine
 10
-213.4013890716982
 20
-42.61491176477772
 30
0.0
 11
-213.401389071698
 21
-1.214911764777746
 31
0.0
  0
LINE
  5
16F
330
1F
100
AcDbEntity
  8
0
100
AcDbLine
 10
-213.4013890716982
 20
-42.61491176477772
 30
0.0
 11
-220.301389071698
 21
-42.61491176477772
 31
0.0
  0
LINE
  5
170
330
1F
100
AcDbEntity
  8
0
100
AcDbLine
 10
-220.301389071698
 20
-42.61491176477772
 30
0.0
 11
-220.3013890716979
 21
-76.61491176477774
 31
0.0
  0
LINE
  5
171
330
1F
100
AcDbEntity
  8
0
100
AcDbLine
 10
-213.4013890716979
 20
-101.0149117647778
 30
0.0
 11
-213.4013890716981
 21
-76.61491176477774
 31
0.0
  0
LINE
  5
172
330
1F
100
AcDbEntity
  8
0
100
AcDbLine
 10
-213.4013890716979
 20
-101.0149117647778
 30
0.0
 11
-197.3013890716981
 21
-101.0149117647778
 31
0.0
  0
LINE
  5
173
330
1F
100
AcDbEntity
  8
0
100
AcDbLine
 10
-197.3013890716981
 20
-93.61491176477784
 30
0.0
 11
-197.3013890716981
 21
-101.0149117647778
 31
0.0
  0
LINE
  5
174
330
1F
100
AcDbEntity
  8
0
100
AcDbLine
 10
-174.3013890716981
 20
-93.61491176477784
 30
0.0
 11
-197.3013890716981
 21
-93.61491176477784
 31
0.0
  0
LINE
  5
175
330
1F
100
AcDbEntity
  8
0
100
AcDbLine
 10
-174.3013890716981
 20
-93.61491176477784
 30
0.0
 11
-174.3013890716979
 21
-25.61491176477779
 31
0.0
  0
LINE
  5
176
330
1F
100
AcDbEntity
  8
0
100
AcDbLine
 10
-174.3013890716979
 20
-25.61491176477779
 30
0.0
 11
-197.3013890716981
 21
-25.61491176477779
 31
0.0
  0
LINE
  5
177
330
1F
100
AcDbEntity
  8
0
100
AcDbLine
 10
-197.3013890716981
 20
-25.61491176477779
 30
0.0
 11
-197.301389071698
 21
-18.21491176477785
 31
0.0
  0
LINE
  5
178
330
1F
100
AcDbEntity
  8
0
100
AcDbLine
 10
-197.301389071698
 20
-18.21491176477785
 30
0.0
 11
-174.3013890716978
 21
-18.21491176477785
 31
0.0
  0
LINE
  5
179
330
1F
100
AcDbEntity
  8
0
100
AcDbLine
 10
-174.3013890716978
 20
-18.21491176477785
 30
0.0
 11
-174.3013890716979
 21
49.7850882352222
 31
0.0
  0
LINE
  5
17A
330
1F
100
AcDbEntity
  8
0
100
AcDbLine
 10
-174.3013890716979
 20
49.7850882352222
 30
0.0
 11
-197.301389071698
 21
49.7850882352222
 31
0.0
  0
LINE
  5
17B
330
1F
100
AcDbEntity
  8
0
100
AcDbLine
 10
-197.301389071698
 20
49.7850882352222
 30
0.0
 11
-197.3013890716979
 21
57.18508823522215
 31
0.0
  0
LINE
  5
17C
330
1F
100
AcDbEntity
  8
0
100
AcDbLine
 10
-197.3013890716979
 20
57.18508823522215
 30
0.0
 11
-174.3013890716978
 21
57.18508823522215
 31
0.0
  0
LINE
  5
17D
330
1F
100
AcDbEntity
  8
0
100
AcDbLine
 10
-174.3013890716978
 20
57.18508823522215
 30
0.0
 11
-174.3013890716978
 21
125.1850882352222
 31
0.0
  0
LINE
  5
17E
330
1F
100
AcDbEntity
  8
0
100
AcDbLine
 10
-174.3013890716977
 20
200.5850882352222
 30
0.0
 11
-197.3013890716977
 21
200.5850882352222
 31
0.0
  0
LINE
  5
17F
330
1F
100
AcDbEntity
  8
0
100
AcDbLine
 10
-197.3013890716977
 20
200.5850882352222
 30
0.0
 11
-197.3013890716977
 21
207.9850882352222
 31
0.0
  0
LINE
  5
180
330
1F
100
AcDbEntity
  8
0
100
AcDbLine
 10
-253.5013890716976
 20
207.985088235222
 30
0.0
 11
-269.6013890716977
 21
207.985088235222
 31
0.0
  0
LINE
  5
181
330
1F
100
AcDbEntity
  8
0
100
AcDbLine
 10
-276.5013890716978
 20
32.7850882352221
 30
0.0
 11
-276.5013890716978
 21
-1.214911764777926
 31
0.0
  0
LINE
  5
182
330
1F
100
AcDbEntity
  8
0
100
AcDbLine
 10
-253.5013890716978
 20
132.585088235222
 30
0.0
 11
-230.5013890716977
 21
132.585088235222
 31
0.0
  0
LINE
  5
183
330
1F
100
AcDbEntity
  8
0
100
AcDbLine
 10
-230.5013890716977
 20
125.185088235222
 30
0.0
 11
-253.5013890716978
 21
125.185088235222
 31
0.0
  0
LINE
  5
184
330
1F
100
AcDbEntity
  8
0
100
AcDbLine
 10
-230.5013890716977
 20
132.585088235222
 30
0.0
 11
-230.5013890716976
 21
200.585088235222
 31
0.0
  0
LINE
  5
185
330
1F
100
AcDbEntity
  8
0
100
AcDbLine
 10
-253.5013890716978
 20
125.185088235222
 30
0.0
 11
-253.5013890716978
 21
132.585088235222
 31
0.0
  0
LINE
  5
186
330
1F
100
AcDbEntity
  8
0
100
AcDbLine
 10
-269.6013890716981
 20
-76.61491176477793
 30
0.0
 11
-276.5013890716979
 21
-76.61491176477793
 31
0.0
  0
LINE
  5
187
330
1F
100
AcDbEntity
  8
0
100
AcDbLine
 10
-269.6013890716977
 20
183.5850882352219
 30
0.0
 11
-269.6013890716977
 21
207.985088235222
 31
0.0
  0
LINE
  5
188
330
1F
100
AcDbEntity
  8
0
100
AcDbLine
 10
-269.6013890716977
 20
183.5850882352219
 30
0.0
 11
-276.5013890716977
 21
183.5850882352219
 31
0.0
  0
LINE
  5
189
330
1F
100
AcDbEntity
  8
0
100
AcDbLine
 10
-276.5013890716977
 20
183.5850882352219
 30
0.0
 11
-276.5013890716977
 21
149.5850882352219
 31
0.0
  0
LINE
  5
18A
330
1F
100
AcDbEntity
  8
0
100
AcDbLine
 10
-269.6013890716977
 20
149.5850882352221
 30
0.0
 11
-276.5013890716977
 21
149.5850882352219
 31
0.0
  0
LINE
  5
18B
330
1F
100
AcDbEntity
  8
0
100
AcDbLine
 10
-269.6013890716977
 20
108.1850882352219
 30
0.0
 11
-269.6013890716977
 21
149.5850882352221
 31
0.0
  0
LINE
  5
18C
330
1F
100
AcDbEntity
  8
0
100
AcDbLine
 10
-269.6013890716977
 20
108.1850882352219
 30
0.0
 11
-276.5013890716977
 21
108.1850882352219
 31
0.0
  0
LINE
  5
18D
330
1F
100
AcDbEntity
  8
0
100
AcDbLine
 10
-276.5013890716977
 20
108.1850882352219
 30
0.0
 11
-276.5013890716977
 21
74.1850882352219
 31
0.0
  0
LINE
  5
18E
330
1F
100
AcDbEntity
  8
0
100
AcDbLine
 10
-269.6013890716977
 20
74.1850882352219
 30
0.0
 11
-276.5013890716977
 21
74.1850882352219
 31
0.0
  0
LINE
  5
18F
330
1F
100
AcDbEntity
  8
0
100
AcDbLine
 10
-269.601389071698
 20
32.7850882352221
 30
0.0
 11
-269.6013890716977
 21
74.1850882352219
 31
0.0
  0
LINE
  5
190
330
1F
100
AcDbEntity
  8
0
100
AcDbLine
 10
-269.601389071698
 20
32.7850882352221
 30
0.0
 11
-276.5013890716978
 21
32.7850882352221
 31
0.0
  0
LINE
  5
191
330
1F
100
AcDbEntity
  8
0
100
AcDbLine
 10
-269.601389071698
 20
-1.214911764777926
 30
0.0
 11
-276.5013890716978
 21
-1.214911764777926
 31
0.0
  0
LINE
  5
192
330
1F
100
AcDbEntity
  8
0
100
AcDbLine
 10
-269.6013890716981
 20
-42.61491176477789
 30
0.0
 11
-269.601389071698
 21
-1.214911764777926
 31
0.0
  0
LINE
  5
193
330
1F
100
AcDbEntity
  8
0
100
AcDbLine
 10
-269.6013890716981
 20
-42.61491176477789
 30
0.0
 11
-276.5013890716979
 21
-42.61491176477789
 31
0.0
  0
LINE
  5
194
330
1F
100
AcDbEntity
  8
0
100
AcDbLine
 10
-276.5013890716979
 20
-42.61491176477789
 30
0.0
 11
-276.5013890716979
 21
-76.61491176477793
 31
0.0
  0
LINE
  5
195
330
1F
100
AcDbEntity
  8
0
100
AcDbLine
 10
-269.6013890716979
 20
-101.014911764778
 30
0.0
 11
-269.6013890716981
 21
-76.61491176477793
 31
0.0
  0
LINE
  5
196
330
1F
100
AcDbEntity
  8
0
100
AcDbLine
 10
-269.6013890716979
 20
-101.014911764778
 30
0.0
 11
-253.501389071698
 21
-101.014911764778
 31
0.0
  0
LINE
  5
197
330
1F
100
AcDbEntity
  8
0
100
AcDbLine
 10
-253.501389071698
 20
-93.61491176477803
 30
0.0
 11
-253.501389071698
 21
-101.014911764778
 31
0.0
  0
LINE
  5
198
330
1F
100
AcDbEntity
  8
0
100
AcDbLine
 10
-230.5013890716981
 20
-93.61491176477803
 30
0.0
 11
-253.501389071698
 21
-93.61491176477803
 31
0.0
  0
LINE
  5
199
330
1F
100
AcDbEntity
  8
0
100
AcDbLine
 10
-230.5013890716981
 20
-93.61491176477803
 30
0.0
 11
-230.5013890716979
 21
-25.61491176477797
 31
0.0
  0
LINE
  5
19A
330
1F
100
AcDbEntity
  8
0
100
AcDbLine
 10
-230.5013890716979
 20
-25.61491176477797
 30
0.0
 11
-253.5013890716981
 21
-25.61491176477797
 31
0.0
  0
LINE
  5
19B
330
1F
100
AcDbEntity
  8
0
100
AcDbLine
 10
-253.5013890716981
 20
-25.61491176477797
 30
0.0
 11
-253.501389071698
 21
-18.21491176477803
 31
0.0
  0
LINE
  5
19C
330
1F
100
AcDbEntity
  8
0
100
AcDbLine
 10
-253.501389071698
 20
-18.21491176477803
 30
0.0
 11
-230.5013890716978
 21
-18.21491176477803
 31
0.0
  0
LINE
  5
19D
330
1F
100
AcDbEntity
  8
0
100
AcDbLine
 10
-230.5013890716978
 20
-18.21491176477803
 30
0.0
 11
-230.5013890716978
 21
49.78508823522203
 31
0.0
  0
LINE
  5
19E
330
1F
100
AcDbEntity
  8
0
100
AcDbLine
 10
-230.5013890716978
 20
49.78508823522203
 30
0.0
 11
-253.501389071698
 21
49.78508823522203
 31
0.0
  0
LINE
  5
19F
330
1F
100
AcDbEntity
  8
0
100
AcDbLine
 10
-253.501389071698
 20
49.78508823522203
 30
0.0
 11
-253.5013890716978
 21
57.18508823522197
 31
0.0
  0
LINE
  5
1A0
330
1F
100
AcDbEntity
  8
0
100
AcDbLine
 10
-253.5013890716978
 20
57.18508823522197
 30
0.0
 11
-230.5013890716977
 21
57.18508823522197
 31
0.0
  0
LINE
  5
1A1
330
1F
100
AcDbEntity
  8
0
100
AcDbLine
 10
-230.5013890716977
 20
57.18508823522197
 30
0.0
 11
-230.5013890716977
 21
125.185088235222
 31
0.0
  0
LINE
  5
1A2
330
1F
100
AcDbEntity
  8
0
100
AcDbLine
 10
-230.5013890716976
 20
200.585088235222
 30
0.0
 11
-253.5013890716976
 21
200.585088235222
 31
0.0
  0
LINE
  5
1A3
330
1F
100
AcDbEntity
  8
0
100
AcDbLine
 10
-253.5013890716976
 20
200.585088235222
 30
0.0
 11
-253.5013890716976
 21
207.985088235222
 31
0.0
  0
LINE
  5
1A4
330
1F
100
AcDbEntity
  8
0
100
AcDbLine
 10
-47.41788863289707
 20
-171.251003660455
 30
0.0
 11
-47.41788863289707
 21
-187.351003660455
 31
0.0
  0
LINE
  5
1A5
330
1F
100
AcDbEntity
  8
0
100
AcDbLine
 10
127.7821113671028
 20
-194.2510036604552
 30
0.0
 11
161.7821113671028
 21
-194.2510036604552
 31
0.0
  0
LINE
  5
1A6
330
1F
100
AcDbEntity
  8
0
100
AcDbLine
 10
27.98211136710292
 20
-171.2510036604552
 30
0.0
 11
27.98211136710292
 21
-148.2510036604551
 31
0.0
  0
LINE
  5
1A7
330
1F
100
AcDbEntity
  8
0
100
AcDbLine
 10
35.38211136710287
 20
-148.2510036604551
 30
0.0
 11
35.38211136710287
 21
-171.2510036604552
 31
0.0
  0
LINE
  5
1A8
330
1F
100
AcDbEntity
  8
0
100
AcDbLine
 10
27.98211136710292
 20
-148.2510036604551
 30
0.0
 11
-40.01788863289713
 21
-148.251003660455
 31
0.0
  0
LINE
  5
1A9
330
1F
100
AcDbEntity
  8
0
100
AcDbLine
 10
35.38211136710287
 20
-171.2510036604552
 30
0.0
 11
27.98211136710292
 21
-171.2510036604552
 31
0.0
  0
LINE
  5
1AA
330
1F
100
AcDbEntity
  8
0
100
AcDbLine
 10
237.1821113671028
 20
-187.3510036604555
 30
0.0
 11
237.1821113671028
 21
-194.2510036604553
 31
0.0
  0
LINE
  5
1AB
330
1F
100
AcDbEntity
  8
0
100
AcDbLine
 10
-23.01788863289703
 20
-187.351003660455
 30
0.0
 11
-47.41788863289707
 21
-187.351003660455
 31
0.0
  0
LINE
  5
1AC
330
1F
100
AcDbEntity
  8
0
100
AcDbLine
 10
-23.01788863289703
 20
-187.351003660455
 30
0.0
 11
-23.01788863289703
 21
-194.2510036604551
 31
0.0
  0
LINE
  5
1AD
330
1F
100
AcDbEntity
  8
0
100
AcDbLine
 10
-23.01788863289703
 20
-194.2510036604551
 30
0.0
 11
10.982111367103
 21
-194.2510036604551
 31
0.0
  0
LINE
  5
1AE
330
1F
100
AcDbEntity
  8
0
100
AcDbLine
 10
10.98211136710282
 20
-187.351003660455
 30
0.0
 11
10.982111367103
 21
-194.2510036604551
 31
0.0
  0
LINE
  5
1AF
330
1F
100
AcDbEntity
  8
0
100
AcDbLine
 10
52.38211136710297
 20
-187.351003660455
 30
0.0
 11
10.98211136710282
 21
-187.351003660455
 31
0.0
  0
LINE
  5
1B0
330
1F
100
AcDbEntity
  8
0
100
AcDbLine
 10
52.38211136710297
 20
-187.351003660455
 30
0.0
 11
52.38211136710297
 21
-194.2510036604551
 31
0.0
  0
LINE
  5
1B1
330
1F
100
AcDbEntity
  8
0
100
AcDbLine
 10
52.38211136710297
 20
-194.2510036604551
 30
0.0
 11
86.382111367103
 21
-194.2510036604551
 31
0.0
  0
LINE
  5
1B2
330
1F
100
AcDbEntity
  8
0
100
AcDbLine
 10
86.382111367103
 20
-187.3510036604551
 30
0.0
 11
86.382111367103
 21
-194.2510036604551
 31
0.0
  0
LINE
  5
1B3
330
1F
100
AcDbEntity
  8
0
100
AcDbLine
 10
127.7821113671028
 20
-187.3510036604553
 30
0.0
 11
86.382111367103
 21
-187.3510036604551
 31
0.0
  0
LINE
  5
1B4
330
1F
100
AcDbEntity
  8
0
100
AcDbLine
 10
127.7821113671028
 20
-187.3510036604553
 30
0.0
 11
127.7821113671028
 21
-194.2510036604552
 31
0.0
  0
LINE
  5
1B5
330
1F
100
AcDbEntity
  8
0
100
AcDbLine
 10
161.7821113671028
 20
-187.3510036604553
 30
0.0
 11
161.7821113671028
 21
-194.2510036604552
 31
0.0
  0
LINE
  5
1B6
330
1F
100
AcDbEntity
  8
0
100
AcDbLine
 10
203.1821113671028
 20
-187.3510036604555
 30
0.0
 11
161.7821113671028
 21
-187.3510036604553
 31
0.0
  0
LINE
  5
1B7
330
1F
100
AcDbEntity
  8
0
100
AcDbLine
 10
203.1821113671028
 20
-187.3510036604555
 30
0.0
 11
203.1821113671028
 21
-194.2510036604553
 31
0.0
  0
LINE
  5
1B8
330
1F
100
AcDbEntity
  8
0
100
AcDbLine
 10
203.1821113671028
 20
-194.2510036604553
 30
0.0
 11
237.1821113671028
 21
-194.2510036604553
 31
0.0
  0
LINE
  5
1B9
330
1F
100
AcDbEntity
  8
0
100
AcDbLine
 10
261.5821113671029
 20
-187.3510036604553
 30
0.0
 11
237.1821113671028
 21
-187.3510036604555
 31
0.0
  0
LINE
  5
1BA
330
1F
100
AcDbEntity
  8
0
100
AcDbLine
 10
261.5821113671029
 20
-187.3510036604553
 30
0.0
 11
261.5821113671029
 21
-171.2510036604555
 31
0.0
  0
LINE
  5
1BB
330
1F
100
AcDbEntity
  8
0
100
AcDbLine
 10
254.1821113671029
 20
-171.2510036604555
 30
0.0
 11
261.5821113671029
 21
-171.2510036604555
 31
0.0
  0
LINE
  5
1BC
330
1F
100
AcDbEntity
  8
0
100
AcDbLine
 10
254.1821113671029
 20
-148.2510036604554
 30
0.0
 11
254.1821113671029
 21
-171.2510036604555
 31
0.0
  0
LINE
  5
1BD
330
1F
100
AcDbEntity
  8
0
100
AcDbLine
 10
254.1821113671029
 20
-148.2510036604554
 30
0.0
 11
186.1821113671029
 21
-148.2510036604553
 31
0.0
  0
LINE
  5
1BE
330
1F
100
AcDbEntity
  8
0
100
AcDbLine
 10
186.1821113671029
 20
-148.2510036604553
 30
0.0
 11
186.1821113671029
 21
-171.2510036604555
 31
0.0
  0
LINE
  5
1BF
330
1F
100
AcDbEntity
  8
0
100
AcDbLine
 10
186.1821113671029
 20
-171.2510036604555
 30
0.0
 11
178.7821113671029
 21
-171.2510036604554
 31
0.0
  0
LINE
  5
1C0
330
1F
100
AcDbEntity
  8
0
100
AcDbLine
 10
178.7821113671029
 20
-171.2510036604554
 30
0.0
 11
178.7821113671029
 21
-148.2510036604552
 31
0.0
  0
LINE
  5
1C1
330
1F
100
AcDbEntity
  8
0
100
AcDbLine
 10
178.7821113671029
 20
-148.2510036604552
 30
0.0
 11
110.7821113671029
 21
-148.2510036604552
 31
0.0
  0
LINE
  5
1C2
330
1F
100
AcDbEntity
  8
0
100
AcDbLine
 10
110.7821113671029
 20
-148.2510036604552
 30
0.0
 11
110.7821113671029
 21
-171.2510036604554
 31
0.0
  0
LINE
  5
1C3
330
1F
100
AcDbEntity
  8
0
100
AcDbLine
 10
110.7821113671029
 20
-171.2510036604554
 30
0.0
 11
103.3821113671029
 21
-171.2510036604552
 31
0.0
  0
LINE
  5
1C4
330
1F
100
AcDbEntity
  8
0
100
AcDbLine
 10
103.3821113671029
 20
-171.2510036604552
 30
0.0
 11
103.3821113671029
 21
-148.2510036604551
 31
0.0
  0
LINE
  5
1C5
330
1F
100
AcDbEntity
  8
0
100
AcDbLine
 10
103.3821113671029
 20
-148.2510036604551
 30
0.0
 11
35.38211136710287
 21
-148.2510036604551
 31
0.0
  0
LINE
  5
1C6
330
1F
100
AcDbEntity
  8
0
100
AcDbLine
 10
-40.01788863289713
 20
-148.251003660455
 30
0.0
 11
-40.01788863289713
 21
-171.251003660455
 31
0.0
  0
LINE
  5
1C7
330
1F
100
AcDbEntity
  8
0
100
AcDbLine
 10
-40.01788863289713
 20
-171.251003660455
 30
0.0
 11
-47.41788863289707
 21
-171.251003660455
 31
0.0
  0
LINE
  5
1C8
330
1F
100
AcDbEntity
  8
0
100
AcDbLine
 10
-250.8565279901455
 20
-207.0425505710561
 30
0.0
 11
-253.4506170572619
 21
-208.0060717532716
 31
0.0
  0
LINE
  5
1C9
330
1F
100
AcDbEntity
  8
0
100
AcDbLine
 10
-253.4506170572619
 20
-208.0060717532716
 30
0.0
 11
-256.884701749871
 21
-208.3272433395222
 31
0.0
  0
LINE
  5
1CA
330
1F
100
AcDbEntity
  8
0
100
AcDbLine
 10
-256.884701749871
 20
-208.3272433395222
 30
0.0
 11
-259.812320591794
 21
-207.870191466781
 31
0.0
  0
LINE
  5
1CB
330
1F
100
AcDbEntity
  8
0
100
AcDbLine
 10
-259.812320591794
 20
-207.870191466781
 30
0.0
 11
-262.072884084061
 21
-206.4990267074743
 31
0.0
  0
LINE
  5
1CC
330
1F
100
AcDbEntity
  8
0
100
AcDbLine
 10
-262.072884084061
 20
-206.4990267074743
 30
0.0
 11
-263.5181658573843
 21
-204.0902306695119
 31
0.0
  0
LINE
  5
1CD
330
1F
100
AcDbEntity
  8
0
100
AcDbLine
 10
-263.5181658573843
 20
-204.0902306695119
 30
0.0
 11
-263.9999232367602
 21
-200.5202642080744
 31
0.0
  0
LINE
  5
1CE
330
1F
100
AcDbEntity
  8
0
100
AcDbLine
 10
-263.9999232367602
 20
-200.5202642080744
 30
0.0
 11
-267.7428247858521
 21
-204.0902306695119
 31
0.0
  0
LINE
  5
1CF
330
1F
100
AcDbEntity
  8
0
100
AcDbLine
 10
-267.7428247858521
 20
-204.0902306695119
 30
0.0
 11
-272.0539586698361
 21
-206.4990267074743
 31
0.0
  0
LINE
  5
1D0
330
1F
100
AcDbEntity
  8
0
100
AcDbLine
 10
-272.0539586698361
 20
-206.4990267074743
 30
0.0
 11
-276.8344971798786
 21
-207.870191466781
 31
0.0
  0
LINE
  5
1D1
330
1F
100
AcDbEntity
  8
0
100
AcDbLine
 10
-276.8344971798786
 20
-207.870191466781
 30
0.0
 11
-281.9856219952856
 21
-208.3272433395222
 31
0.0
  0
LINE
  5
1D2
330
1F
100
AcDbEntity
  8
0
100
AcDbLine
 10
-281.9856219952856
 20
-208.3272433395222
 30
0.0
 11
-288.5573196185929
 21
-207.5366631743123
 31
0.0
  0
LINE
  5
1D3
330
1F
100
AcDbEntity
  8
0
100
AcDbLine
 10
-288.5573196185929
 20
-207.5366631743123
 30
0.0
 11
-293.9431469940853
 21
-205.0661001580314
 31
0.0
  0
LINE
  5
1D4
330
1F
100
AcDbEntity
  8
0
100
AcDbLine
 10
-293.9431469940853
 20
-205.0661001580314
 30
0.0
 11
-297.5501689978555
 21
-200.6684979890512
 31
0.0
  0
LINE
  5
1D5
330
1F
100
AcDbEntity
  8
0
100
AcDbLine
 10
-297.5501689978555
 20
-200.6684979890512
 30
0.0
 11
-298.5507486870794
 21
-197.6667653448436
 31
0.0
  0
LINE
  5
1D6
330
1F
100
AcDbEntity
  8
0
100
AcDbLine
 10
-298.5507486870794
 20
-197.6667653448436
 30
0.0
 11
-298.8842730266473
 21
-194.0968003657439
 31
0.0
  0
LINE
  5
1D7
330
1F
100
AcDbEntity
  8
0
100
AcDbLine
 10
-298.8842730266473
 20
-194.0968003657439
 30
0.0
 11
-298.5136904271274
 21
-190.1438975632439
 31
0.0
  0
LINE
  5
1D8
330
1F
100
AcDbEntity
  8
0
100
AcDbLine
 10
-298.5136904271274
 20
-190.1438975632439
 30
0.0
 11
-297.4019352168787
 21
-186.9815788788547
 31
0.0
  0
LINE
  5
1D9
330
1F
100
AcDbEntity
  8
0
100
AcDbLine
 10
-297.4019352168787
 20
-186.9815788788547
 30
0.0
 11
-293.4984456511548
 21
-182.4851541892234
 31
0.0
  0
LINE
  5
1DA
330
1F
100
AcDbEntity
  8
0
100
AcDbLine
 10
-293.4984456511548
 20
-182.4851541892234
 30
0.0
 11
-287.9643844946855
 21
-179.8663573919656
 31
0.0
  0
LINE
  5
1DB
330
1F
100
AcDbEntity
  8
0
100
AcDbLine
 10
-287.9643844946855
 20
-179.8663573919656
 30
0.0
 11
-281.5903319126806
 21
-178.384019582197
 31
0.0
  0
LINE
  5
1DC
330
1F
100
AcDbEntity
  8
0
100
AcDbLine
 10
-281.5903319126806
 20
-178.384019582197
 30
0.0
 11
-275.0186342893732
 21
-177.346383115359
 31
0.0
  0
LINE
  5
1DD
330
1F
100
AcDbEntity
  8
0
100
AcDbLine
 10
-275.0186342893732
 20
-177.346383115359
 30
0.0
 11
-269.5339843932295
 21
-176.3581579088466
 31
0.0
  0
LINE
  5
1DE
330
1F
100
AcDbEntity
  8
0
100
AcDbLine
 10
-269.5339843932295
 20
-176.3581579088466
 30
0.0
 11
-265.7787286084825
 21
-174.4805300164731
 31
0.0
  0
LINE
  5
1DF
330
1F
100
AcDbEntity
  8
0
100
AcDbLine
 10
-265.7787286084825
 20
-174.4805300164731
 30
0.0
 11
-264.7410904122503
 21
-172.961135182034
 31
0.0
  0
LINE
  5
1E0
330
1F
100
AcDbEntity
  8
0
100
AcDbLine
 10
-264.7410904122503
 20
-172.961135182034
 30
0.0
 11
-264.3952133193651
 21
-170.8735080127029
 31
0.0
  0
LINE
  5
1E1
330
1F
100
AcDbEntity
  8
0
100
AcDbLine
 10
-264.3952133193651
 20
-170.8735080127029
 30
0.0
 11
-265.4328497862031
 21
-166.4264945833972
 31
0.0
  0
LINE
  5
1E2
330
1F
100
AcDbEntity
  8
0
100
AcDbLine
 10
-265.4328497862031
 20
-166.4264945833972
 30
0.0
 11
-268.1010578437865
 21
-163.857109046465
 31
0.0
  0
LINE
  5
1E3
330
1F
100
AcDbEntity
  8
0
100
AcDbLine
 10
-268.1010578437865
 20
-163.857109046465
 30
0.0
 11
-271.7574911078823
 21
-162.6712387986501
 31
0.0
  0
LINE
  5
1E4
330
1F
100
AcDbEntity
  8
0
100
AcDbLine
 10
-271.7574911078823
 20
-162.6712387986501
 30
0.0
 11
-275.7598031942575
 21
-162.3747712366964
 31
0.0
  0
LINE
  5
1E5
330
1F
100
AcDbEntity
  8
0
100
AcDbLine
 10
-275.7598031942575
 20
-162.3747712366964
 30
0.0
 11
-280.6515201900006
 21
-162.8812341227069
 31
0.0
  0
LINE
  5
1E6
330
1F
100
AcDbEntity
  8
0
100
AcDbLine
 10
-280.6515201900006
 20
-162.8812341227069
 30
0.0
 11
-284.653830052869
 21
-164.4006329100468
 31
0.0
  0
LINE
  5
1E7
330
1F
100
AcDbEntity
  8
0
100
AcDbLine
 10
-284.653830052869
 20
-164.4006329100468
 30
0.0
 11
-287.3961590773698
 21
-167.3282455755622
 31
0.0
  0
LINE
  5
1E8
330
1F
100
AcDbEntity
  8
0
100
AcDbLine
 10
-287.3961590773698
 20
-167.3282455755622
 30
0.0
 11
-288.5079083582672
 21
-172.0593782605177
 31
0.0
  0
LINE
  5
1E9
330
1F
100
AcDbEntity
  8
0
100
AcDbLine
 10
-288.5079083582672
 20
-172.0593782605177
 30
0.0
 11
-296.9078226136225
 21
-172.0593782605177
 31
0.0
  0
LINE
  5
1EA
330
1F
100
AcDbEntity
  8
0
100
AcDbLine
 10
-296.9078226136225
 20
-172.0593782605177
 30
0.0
 11
-296.3148894661655
 21
-167.6864798687782
 31
0.0
  0
LINE
  5
1EB
330
1F
100
AcDbEntity
  8
0
100
AcDbLine
 10
-296.3148894661655
 20
-167.6864798687782
 30
0.0
 11
-294.9313722005978
 21
-164.0547540877675
 31
0.0
  0
LINE
  5
1EC
330
1F
100
AcDbEntity
  8
0
100
AcDbLine
 10
-294.9313722005978
 20
-164.0547540877675
 30
0.0
 11
-292.8561007492596
 21
-161.1024297392098
 31
0.0
  0
LINE
  5
1ED
330
1F
100
AcDbEntity
  8
0
100
AcDbLine
 10
-292.8561007492596
 20
-161.1024297392098
 30
0.0
 11
-290.1878912093383
 21
-158.7677492329262
 31
0.0
  0
LINE
  5
1EE
330
1F
100
AcDbEntity
  8
0
100
AcDbLine
 10
-290.1878912093383
 20
-158.7677492329262
 30
0.0
 11
-283.4185485447285
 21
-155.8524848737147
 31
0.0
  0
LINE
  5
1EF
330
1F
100
AcDbEntity
  8
0
100
AcDbLine
 10
-283.4185485447285
 20
-155.8524848737147
 30
0.0
 11
-275.2656905910013
 21
-154.9630821878535
 31
0.0
  0
LINE
  5
1F0
330
1F
100
AcDbEntity
  8
0
100
AcDbLine
 10
-275.2656905910013
 20
-154.9630821878535
 30
0.0
 11
-268.3975254057403
 21
-155.4571947911097
 31
0.0
  0
LINE
  5
1F1
330
1F
100
AcDbEntity
  8
0
100
AcDbLine
 10
-268.3975254057403
 20
-155.4571947911097
 30
0.0
 11
-262.2211178650379
 21
-157.4830564644601
 31
0.0
  0
LINE
  5
1F2
330
1F
100
AcDbEntity
  8
0
100
AcDbLine
 10
-262.2211178650379
 20
-157.4830564644601
 30
0.0
 11
-259.7258478597844
 21
-159.3236243674875
 31
0.0
  0
LINE
  5
1F3
330
1F
100
AcDbEntity
  8
0
100
AcDbLine
 10
-259.7258478597844
 20
-159.3236243674875
 30
0.0
 11
-257.7741044357321
 21
-161.781836112789
 31
0.0
  0
LINE
  5
1F4
330
1F
100
AcDbEntity
  8
0
100
AcDbLine
 10
-257.7741044357321
 20
-161.781836112789
 30
0.0
 11
-256.5141151974503
 21
-164.9688603038128
 31
0.0
  0
LINE
  5
1F5
330
1F
100
AcDbEntity
  8
0
100
AcDbLine
 10
-256.5141151974503
 20
-164.9688603038128
 30
0.0
 11
-256.0941215846611
 21
-168.9958801203294
 31
0.0
  0
LINE
  5
1F6
330
1F
100
AcDbEntity
  8
0
100
AcDbLine
 10
-256.0941215846611
 20
-168.9958801203294
 30
0.0
 11
-256.0941215846611
 21
-195.2826706135587
 31
0.0
  0
LINE
  5
1F7
330
1F
100
AcDbEntity
  8
0
100
AcDbLine
 10
-256.0941215846611
 20
-195.2826706135587
 30
0.0
 11
-255.7482427623818
 21
-199.6308615222132
 31
0.0
  0
LINE
  5
1F8
330
1F
100
AcDbEntity
  8
0
100
AcDbLine
 10
-255.7482427623818
 20
-199.6308615222132
 30
0.0
 11
-254.9947230806305
 21
-200.6684997184454
 31
0.0
  0
LINE
  5
1F9
330
1F
100
AcDbEntity
  8
0
100
AcDbLine
 10
-254.9947230806305
 20
-200.6684997184454
 30
0.0
 11
-253.4259135270777
 21
-201.0143768113306
 31
0.0
  0
LINE
  5
1FA
330
1F
100
AcDbEntity
  8
0
100
AcDbLine
 10
-253.4259135270777
 20
-201.0143768113306
 30
0.0
 11
-250.8565279901455
 21
-200.5202642080744
 31
0.0
  0
LINE
  5
1FB
330
1F
100
AcDbEntity
  8
0
100
AcDbLine
 10
-250.8565279901455
 20
-200.5202642080744
 30
0.0
 11
-250.8565279901455
 21
-207.0425505710561
 31
0.0
  0
LINE
  5
1FC
330
1F
100
AcDbEntity
  8
0
100
AcDbLine
 10
-264.4940358400164
 20
-180.8545825984779
 30
0.0
 11
-268.6445817073684
 21
-182.5839767098746
 31
0.0
  0
LINE
  5
1FD
330
1F
100
AcDbEntity
  8
0
100
AcDbLine
 10
-268.6445817073684
 20
-182.5839767098746
 30
0.0
 11
-274.0304090828608
 21
-183.4733793957358
 31
0.0
  0
LINE
  5
1FE
330
1F
100
AcDbEntity
  8
0
100
AcDbLine
 10
-274.0304090828608
 20
-183.4733793957358
 30
0.0
 11
-279.7127040203071
 21
-184.2639595609457
 31
0.0
  0
LINE
  5
1FF
330
1F
100
AcDbEntity
  8
0
100
AcDbLine
 10
-279.7127040203071
 20
-184.2639595609457
 30
0.0
 11
-284.8514750941714
 21
-185.6968861103886
 31
0.0
  0
LINE
  5
200
330
1F
100
AcDbEntity
  8
0
100
AcDbLine
 10
-284.8514750941714
 20
-185.6968861103886
 30
0.0
 11
-288.5573196185929
 21
-188.5133279489489
 31
0.0
  0
LINE
  5
201
330
1F
100
AcDbEntity
  8
0
100
AcDbLine
 10
-288.5573196185929
 20
-188.5133279489489
 30
0.0
 11
-289.6320163218332
 21
-190.6750689205647
 31
0.0
  0
LINE
  5
202
330
1F
100
AcDbEntity
  8
0
100
AcDbLine
 10
-289.6320163218332
 20
-190.6750689205647
 30
0.0
 11
-289.9902461680358
 21
-193.5038652418365
 31
0.0
  0
LINE
  5
203
330
1F
100
AcDbEntity
  8
0
100
AcDbLine
 10
-289.9902461680358
 20
-193.5038652418365
 30
0.0
 11
-289.1502547425003
 21
-197.0120647249554
 31
0.0
  0
LINE
  5
204
330
1F
100
AcDbEntity
  8
0
100
AcDbLine
 10
-289.1502547425003
 20
-197.0120647249554
 30
0.0
 11
-286.9761592881731
 21
-199.3343939602595
 31
0.0
  0
LINE
  5
205
330
1F
100
AcDbEntity
  8
0
100
AcDbLine
 10
-286.9761592881731
 20
-199.3343939602595
 30
0.0
 11
-283.863249887659
 21
-200.6190867287256
 31
0.0
  0
LINE
  5
206
330
1F
100
AcDbEntity
  8
0
100
AcDbLine
 10
-283.863249887659
 20
-200.6190867287256
 30
0.0
 11
-280.107994102912
 21
-201.0143768113306
 31
0.0
  0
LINE
  5
207
330
1F
100
AcDbEntity
  8
0
100
AcDbLine
 10
-280.107994102912
 20
-201.0143768113306
 30
0.0
 11
-272.9927726160229
 21
-199.8779178238413
 31
0.0
  0
LINE
  5
208
330
1F
100
AcDbEntity
  8
0
100
AcDbLine
 10
-272.9927726160229
 20
-199.8779178238413
 30
0.0
 11
-268.1504691041122
 21
-197.0120647249554
 31
0.0
  0
LINE
  5
209
330
1F
100
AcDbEntity
  8
0
100
AcDbLine
 10
-268.1504691041122
 20
-197.0120647249554
 30
0.0
 11
-265.3834385258775
 21
-193.2568089402083
 31
0.0
  0
LINE
  5
20A
330
1F
100
AcDbEntity
  8
0
100
AcDbLine
 10
-265.3834385258775
 20
-193.2568089402083
 30
0.0
 11
-264.4940358400164
 21
-189.4521418951357
 31
0.0
  0
LINE
  5
20B
330
1F
100
AcDbEntity
  8
0
100
AcDbLine
 10
-264.4940358400164
 20
-189.4521418951357
 30
0.0
 11
-264.4940358400164
 21
-180.8545825984779
 31
0.0
  0
LINE
  5
20C
330
1F
100
AcDbEntity
  8
0
 62
    49
100
AcDbLine
 10
-194.5373354998597
 20
-114.1586006948607
 30
0.0
 11
-194.5373354998597
 21
-139.6919486848651
 31
0.0
  0
LINE
  5
20D
330
1F
100
AcDbEntity
  8
0
 62
    49
100
AcDbLine
 10
-94.5373354998597
 20
-114.158600694861
 30
0.0
 11
-94.5373354998597
 21
-139.6919486848651
 31
0.0
  0
LINE
  5
20E
330
1F
100
AcDbEntity
  8
0
 62
    49
100
AcDbLine
 10
-194.5373354998597
 20
-134.9424758394573
 30
0.0
 11
-165.5141739004106
 21
-134.9424758394571
 31
0.0
  0
LINE
  5
20F
330
1F
100
AcDbEntity
  8
0
 62
    49
100
AcDbLine
 10
-123.5604970993088
 20
-134.9424758394571
 30
0.0
 11
-94.5373354998597
 21
-134.9424758394573
 31
0.0
  0
LINE
  5
210
330
1F
100
AcDbEntity
  8
0
 62
    49
100
AcDbLine
 10
-90.5794414620199
 20
-110.2007066570212
 30
0.0
 11
-76.19084506263678
 21
-110.2007066570212
 31
0.0
  0
LINE
  5
211
330
1F
100
AcDbEntity
  8
0
 62
    49
100
AcDbLine
 10
-90.57944146202021
 20
-210.2007066570212
 30
0.0
 11
-76.19084506263674
 21
-210.2007066570212
 31
0.0
  0
LINE
  5
212
330
1F
100
AcDbEntity
  8
0
 62
    49
100
AcDbLine
 10
-80.94031790804453
 20
-110.2007066570212
 30
0.0
 11
-80.9403179080446
 21
-151.8891291775576
 31
0.0
  0
LINE
  5
213
330
1F
100
AcDbEntity
  8
0
 62
    49
100
AcDbLine
 10
-80.9403179080446
 20
-168.5122841364848
 30
0.0
 11
-80.94031790804449
 21
-210.2007066570212
 31
0.0
  0
LINE
  5
214
330
1F
100
AcDbEntity
  8
0
100
AcDbLine
 10
-194.5373354998598
 20
-210.200706657021
 30
0.0
 11
-94.53733549985996
 21
-210.2007066570212
 31
0.0
  0
LINE
  5
215
330
1F
100
AcDbEntity
  8
0
100
AcDbLine
 10
-194.5373354998597
 20
-110.2007066570209
 30
0.0
 11
-194.5373354998598
 21
-210.200706657021
 31
0.0
  0
LINE
  5
216
330
1F
100
AcDbEntity
  8
0
100
AcDbLine
 10
-94.5373354998597
 20
-110.2007066570212
 30
0.0
 11
-194.5373354998597
 21
-110.2007066570209
 31
0.0
  0
LINE
  5
217
330
1F
100
AcDbEntity
  8
0
100
AcDbLine
 10
-94.53733549985996
 20
-210.2007066570212
 30
0.0
 11
-94.5373354998597
 21
-110.2007066570212
 31
0.0
  0
POLYLINE
  5
218
330
1F
100
AcDbEntity
  8
0
 62
    49
100
AcDbPolyFaceMesh
 66
     1
 10
0.0
 20
0.0
 30
0.0
 70
    64
 71
     3
 72
     1
  0
VERTEX
  5
219
330
218
100
AcDbEntity
  8
0
100
AcDbVertex
100
AcDbPolyFaceMeshVertex
 10
-180.2889169636364
 20
-139.6919486848651
 30
0.0
 70
   192
  0
VERTEX
  5
21A
330
218
100
AcDbEntity
  8
0
100
AcDbVertex
100
AcDbPolyFaceMeshVertex
 10
-194.5373354998597
 20
-134.9424758394573
 30
0.0
 70
   192
  0
VERTEX
  5
21B
330
218
100
AcDbEntity
  8
0
100
AcDbVertex
100
AcDbPolyFaceMeshVertex
 10
-180.2889169636364
 20
-130.1930029940496
 30
0.0
 70
   192
  0
VERTEX
  5
21C
330
218
100
AcDbEntity
  8
0
 62
    49
100
AcDbFaceRecord
 10
0.0
 20
0.0
 30
0.0
 70
   128
 71
     1
 72
     2
 73
     3
  0
SEQEND
  5
21D
330
218
100
AcDbEntity
  8
0
 62
    49
  0
POLYLINE
  5
21E
330
1F
100
AcDbEntity
  8
0
 62
    49
100
AcDbPolyFaceMesh
 66
     1
 10
0.0
 20
0.0
 30
0.0
 70
    64
 71
     3
 72
     1
  0
VERTEX
  5
21F
330
21E
100
AcDbEntity
  8
0
100
AcDbVertex
100
AcDbPolyFaceMeshVertex
 10
-94.5373354998597
 20
-134.9424758394573
 30
0.0
 70
   192
  0
VERTEX
  5
220
330
21E
100
AcDbEntity
  8
0
100
AcDbVertex
100
AcDbPolyFaceMeshVertex
 10
-108.7857540360829
 20
-139.6919486848651
 30
0.0
 70
   192
  0
VERTEX
  5
221
330
21E
100
AcDbEntity
  8
0
100
AcDbVertex
100
AcDbPolyFaceMeshVertex
 10
-108.7857540360829
 20
-130.1930029940496
 30
0.0
 70
   192
  0
VERTEX
  5
222
330
21E
100
AcDbEntity
  8
0
 62
    49
100
AcDbFaceRecord
 10
0.0
 20
0.0
 30
0.0
 70
   128
 71
     1
 72
     2
 73
     3
  0
SEQEND
  5
223
330
21E
100
AcDbEntity
  8
0
 62
    49
  0
POLYLINE
  5
224
330
1F
100
AcDbEntity
  8
0
 62
    49
100
AcDbPolyFaceMesh
 66
     1
 10
0.0
 20
0.0
 30
0.0
 70
    64
 71
     3
 72
     1
  0
VERTEX
  5
225
330
224
100
AcDbEntity
  8
0
100
AcDbVertex
100
AcDbPolyFaceMeshVertex
 10
-76.19084506263678
 20
-124.4491251932445
 30
0.0
 70
   192
  0
VERTEX
  5
226
330
224
100
AcDbEntity
  8
0
100
AcDbVertex
100
AcDbPolyFaceMeshVertex
 10
-85.68979075345229
 20
-124.4491251932445
 30
0.0
 70
   192
  0
VERTEX
  5
227
330
224
100
AcDbEntity
  8
0
100
AcDbVertex
100
AcDbPolyFaceMeshVertex
 10
-80.94031790804453
 20
-110.2007066570212
 30
0.0
 70
   192
  0
VERTEX
  5
228
330
224
100
AcDbEntity
  8
0
 62
    49
100
AcDbFaceRecord
 10
0.0
 20
0.0
 30
0.0
 70
   128
 71
     1
 72
     2
 73
     3
  0
SEQEND
  5
229
330
224
100
AcDbEntity
  8
0
 62
    49
  0
POLYLINE
  5
22A
330
1F
100
AcDbEntity
  8
0
 62
    49
100
AcDbPolyFaceMesh
 66
     1
 10
0.0
 20
0.0
 30
0.0
 70
    64
 71
     3
 72
     1
  0
VERTEX
  5
22B
330
22A
100
AcDbEntity
  8
0
100
AcDbVertex
100
AcDbPolyFaceMeshVertex
 10
-76.1908450626368
 20
-195.952288120798
 30
0.0
 70
   192
  0
VERTEX
  5
22C
330
22A
100
AcDbEntity
  8
0
100
AcDbVertex
100
AcDbPolyFaceMeshVertex
 10
-80.94031790804453
 20
-210.2007066570212
 30
0.0
 70
   192
  0
VERTEX
  5
22D
330
22A
100
AcDbEntity
  8
0
100
AcDbVertex
100
AcDbPolyFaceMeshVertex
 10
-85.6897907534523
 20
-195.952288120798
 30
0.0
 70
   192
  0
VERTEX
  5
22E
330
22A
100
AcDbEntity
  8
0
 62
    49
100
AcDbFaceRecord
 10
0.0
 20
0.0
 30
0.0
 70
   128
 71
     1
 72
     2
 73
     3
  0
SEQEND
  5
22F
330
22A
100
AcDbEntity
  8
0
 62
    49
  0
MTEXT
  5
231
330
1F
100
AcDbEntity
  8
0
 62
    49
100
AcDbMText
 10
-164.3268056890587
 20
-139.3237220551607
 30
0.0
 40
8.807232465610323
 41
0.0
 71
     7
 72
     1
  1
100.0mm
  7
TAHOMA
  0
MTEXT
  5
232
330
1F
100
AcDbEntity
  8
0
 62
    49
100
AcDbMText
 10
-100.7297880972435
 20
-164.5819528727246
 30
0.0
 40
8.807232465610323
 41
0.0
 71
     7
 72
     1
  1
100.0mm
  7
TAHOMA
  0
ENDSEC
  0
SECTION
  2
OBJECTS
  0
DICTIONARY
  5
C
330
0
100
AcDbDictionary
  3
ACAD_GROUP
350
D
  3
ACAD_LAYOUT
350
1A
  3
ACAD_MATERIAL
350
43
  3
ACAD_MLEADERSTYLE
350
255
  3
ACAD_MLINESTYLE
350
17
  3
ACAD_PLOTSETTINGS
350
19
  3
ACAD_SCALELIST
350
47
  3
ACAD_VISUALSTYLE
350
2A
  3
ACDBHEADERROUNDTRIPXREC
350
233
  3
ACDBVARIABLEDICTIONARY
350
253
  0
DICTIONARY
  5
25A
330
8
100
AcDbDictionary
280
     1
  3
ACAD_XREC_ROUNDTRIP
360
25B
  0
DICTIONARY
  5
D
102
{ACAD_REACTORS
330
C
102
}
330
C
100
AcDbDictionary
  0
DICTIONARY
  5
1A
102
{ACAD_REACTORS
330
C
102
}
330
C
100
AcDbDictionary
  0
DICTIONARY
  5
43
102
{ACAD_REACTORS
330
C
102
}
330
C
100
AcDbDictionary
  3
BYBLOCK
350
45
  3
BYLAYER
350
44
  3
GLOBAL
350
46
  0
DICTIONARY
  5
255
102
{ACAD_REACTORS
330
C
102
}
330
C
100
AcDbDictionary
  0
DICTIONARY
  5
17
102
{ACAD_REACTORS
330
C
102
}
330
C
100
AcDbDictionary
  3
STANDARD
350
18
  0
DICTIONARY
  5
19
102
{ACAD_REACTORS
330
C
102
}
330
C
100
AcDbDictionary
  0
DICTIONARY
  5
47
102
{ACAD_REACTORS
330
C
102
}
330
C
100
AcDbDictionary
  3
A0
350
48
  3
A1
350
49
  3
A2
350
4A
  3
A3
350
4B
  3
A4
350
4C
  3
A5
350
4D
  3
A6
350
4E
  3
A7
350
4F
  3
A8
350
50
  3
A9
350
51
  3
B0
350
52
  3
B1
350
53
  3
B2
350
54
  3
B3
350
55
  3
B4
350
56
  3
B5
350
57
  3
B6
350
58
  3
B7
350
59
  3
B8
350
5A
  3
B9
350
5B
  3
C0
350
5C
  3
C1
350
5D
  3
C2
350
5E
  3
C3
350
5F
  3
C4
350
60
  3
C5
350
61
  3
C6
350
62
  3
C7
350
63
  3
C8
350
64
  3
C9
350
65
  3
D0
350
66
  3
D1
350
67
  3
D2
350
68
  0
DICTIONARY
  5
2A
102
{ACAD_REACTORS
330
C
102
}
330
C
100
AcDbDictionary
  3
2DWIREFRAME
350
2F
  3
BASIC
350
32
  3
BRIGHTEN
350
36
  3
COLORCHANGE
350
3A
  3
CONCEPTUAL
350
34
  3
DIM
350
35
  3
EDGECOLOROFF
350
3D
  3
FACEPATTERN
350
39
  3
FLAT
350
2B
  3
FLATWITHEDGES
350
2C
  3
GOURAUD
350
2D
  3
GOURAUDWITHEDGES
350
2E
  3
HIDDEN
350
31
  3
JITTEROFF
350
3B
  3
LINEPATTERN
350
38
  3
OVERHANGOFF
350
3C
  3
REALISTIC
350
33
  3
SHADED
350
42
  3
SHADED_WITH_EDGES
350
41
  3
SHADES_OF_GRAY
350
3E
  3
SKETCHY
350
3F
  3
THICKEN
350
37
  3
WIREFRAME
350
30
  3
X-RAY
350
40
  0
DICTIONARY
  5
233
102
{ACAD_REACTORS
330
C
102
}
330
C
100
AcDbDictionary
  3
CEPSNTYPE
350
23C
  3
DIMSTYLEDATA
350
252
  3
FINGERPRINTGUID
350
23D
  3
HYPERLINKBASE
350
236
  3
INSUNITS
350
23B
  3
LAYOUTDICT
350
238
  3
LWETCUNION
350
23A
  3
PLOTSETDICT
350
239
  3
PSVPSCALE
350
23F
  3
PUCSBASE
350
242
  3
PUCSORGBACK
350
248
  3
PUCSORGBOTTOM
350
244
  3
PUCSORGFRONT
350
247
  3
PUCSORGLEFT
350
245
  3
PUCSORGRIGHT
350
246
  3
PUCSORGTOP
350
243
  3
PUCSORTHOREF
350
240
  3
PUCSORTHOVIEW
350
241
  3
STYLESHEET
350
237
  3
TSTACKALIGN
350
234
  3
TSTACKSIZE
350
235
  3
UCSBASE
350
24B
  3
UCSORGBACK
350
251
  3
UCSORGBOTTOM
350
24D
  3
UCSORGFRONT
350
250
  3
UCSORGLEFT
350
24E
  3
UCSORGRIGHT
350
24F
  3
UCSORGTOP
350
24C
  3
UCSORTHOREF
350
249
  3
UCSORTHOVIEW
350
24A
  3
VERSIONGUID
350
23E
  0
DICTIONARY
  5
253
102
{ACAD_REACTORS
330
C
102
}
330
C
100
AcDbDictionary
  3
CANNOSCALE
350
25C
  3
DIMASSOC
350
258
  3
HIDETEXT
350
259
  3
MSLTSCALE
350
25D
  0
XRECORD
  5
25B
102
{ACAD_REACTORS
330
25A
102
}
330
25A
100
AcDbXrecord
102
VTR_0.000_0.000_1.000_1.000_GRIDDISPLAY
 70
     3
102
VTR_0.000_0.000_1.000_1.000_GRIDMAJOR
 70
     5
102
VTR_0.000_0.000_1.000_1.000_DEFAULTLIGHTING
280
     1
102
VTR_0.000_0.000_1.000_1.000_DEFAULTLIGHTINGTYPE
 70
     1
102
VTR_0.000_0.000_1.000_1.000_BRIGHTNESS
141
0.0
102
VTR_0.000_0.000_1.000_1.000_CONTRAST
142
0.0
  0
MATERIAL
  5
45
102
{ACAD_REACTORS
330
43
102
}
102
{ACAD_XDICTIONARY
360
260
102
}
330
43
100
AcDbMaterial
  1
BYBLOCK
  0
MATERIAL
  5
44
102
{ACAD_REACTORS
330
43
102
}
102
{ACAD_XDICTIONARY
360
25E
102
}
330
43
100
AcDbMaterial
  1
BYLAYER
  0
MATERIAL
  5
46
102
{ACAD_REACTORS
330
43
102
}
102
{ACAD_XDICTIONARY
360
262
102
}
330
43
100
AcDbMaterial
  1
GLOBAL
  0
MLINESTYLE
  5
18
102
{ACAD_REACTORS
330
17
102
}
330
17
100
AcDbMlineStyle
  2
Standard
 70
     0
  3

 62
   256
 51
90.0
 52
90.0
 71
     2
 49
0.5
 62
   256
  6
BYLAYER
 49
-0.5
 62
   256
  6
BYLAYER
  0
ACAD_PROXY_OBJECT
  5
48
102
{ACAD_REACTORS
330
47
102
}
330
47
100
AcDbProxyObject
 90
      499
 91
      503
 93
       41
310
903313A31580
  0
ACAD_PROXY_OBJECT
  5
49
102
{ACAD_REACTORS
330
47
102
}
330
47
100
AcDbProxyObject
 90
      499
 91
      503
 93
      105
310
903313A324000000000000004000
  0
ACAD_PROXY_OBJECT
  5
4A
102
{ACAD_REACTORS
330
47
102
}
330
47
100
AcDbProxyObject
 90
      499
 91
      503
 93
      105
310
903313A344000000000000104000
  0
ACAD_PROXY_OBJECT
  5
4B
102
{ACAD_REACTORS
330
47
102
}
330
47
100
AcDbProxyObject
 90
      499
 91
      503
 93
      105
310
903313A354000000000000144000
  0
ACAD_PROXY_OBJECT
  5
4C
102
{ACAD_REACTORS
330
47
102
}
330
47
100
AcDbProxyObject
 90
      499
 91
      503
 93
      105
310
903313A384000000000000204000
  0
ACAD_PROXY_OBJECT
  5
4D
102
{ACAD_REACTORS
330
47
102
}
330
47
100
AcDbProxyObject
 90
      499
 91
      503
 93
      113
310
904313A31304000000000000244000
  0
ACAD_PROXY_OBJECT
  5
4E
102
{ACAD_REACTORS
330
47
102
}
330
47
100
AcDbProxyObject
 90
      499
 91
      503
 93
      113
310
904313A31364000000000000304000
  0
ACAD_PROXY_OBJECT
  5
4F
102
{ACAD_REACTORS
330
47
102
}
330
47
100
AcDbProxyObject
 90
      499
 91
      503
 93
      113
310
904313A32304000000000000344000
  0
ACAD_PROXY_OBJECT
  5
50
102
{ACAD_REACTORS
330
47
102
}
330
47
100
AcDbProxyObject
 90
      499
 91
      503
 93
      113
310
904313A333040000000000003E4000
  0
ACAD_PROXY_OBJECT
  5
51
102
{ACAD_REACTORS
330
47
102
}
330
47
100
AcDbProxyObject
 90
      499
 91
      503
 93
      113
310
904313A34304000000000000444000
  0
ACAD_PROXY_OBJECT
  5
52
102
{ACAD_REACTORS
330
47
102
}
330
47
100
AcDbProxyObject
 90
      499
 91
      503
 93
      113
310
904313A35304000000000000494000
  0
ACAD_PROXY_OBJECT
  5
53
102
{ACAD_REACTORS
330
47
102
}
330
47
100
AcDbProxyObject
 90
      499
 91
      503
 93
      121
310
905313A3130304000000000000594000
  0
ACAD_PROXY_OBJECT
  5
54
102
{ACAD_REACTORS
330
47
102
}
330
47
100
AcDbProxyObject
 90
      499
 91
      503
 93
      105
310
903323A310000000000000010100
  0
ACAD_PROXY_OBJECT
  5
55
102
{ACAD_REACTORS
330
47
102
}
330
47
100
AcDbProxyObject
 90
      499
 91
      503
 93
      105
310
903343A310000000000000410100
  0
ACAD_PROXY_OBJECT
  5
56
102
{ACAD_REACTORS
330
47
102
}
330
47
100
AcDbProxyObject
 90
      499
 91
      503
 93
      105
310
903383A310000000000000810100
  0
ACAD_PROXY_OBJECT
  5
57
102
{ACAD_REACTORS
330
47
102
}
330
47
100
AcDbProxyObject
 90
      499
 91
      503
 93
      113
310
90431303A310000000000000910100
  0
ACAD_PROXY_OBJECT
  5
58
102
{ACAD_REACTORS
330
47
102
}
330
47
100
AcDbProxyObject
 90
      499
 91
      503
 93
      121
310
9053130303A310000000000001650100
  0
ACAD_PROXY_OBJECT
  5
59
102
{ACAD_REACTORS
330
47
102
}
330
47
100
AcDbProxyObject
 90
      499
 91
      503
 93
      257
310
90E312F31323822203D2031272D3022000000000000200FC000000000000284000
  0
ACAD_PROXY_OBJECT
  5
5A
102
{ACAD_REACTORS
330
47
102
}
330
47
100
AcDbProxyObject
 90
      499
 91
      503
 93
      249
310
90D312F363422203D2031272D3022000000000000240FC000000000000284000
  0
ACAD_PROXY_OBJECT
  5
5B
102
{ACAD_REACTORS
330
47
102
}
330
47
100
AcDbProxyObject
 90
      499
 91
      503
 93
      249
310
90D312F333222203D2031272D3022000000000000280FC000000000000284000
  0
ACAD_PROXY_OBJECT
  5
5C
102
{ACAD_REACTORS
330
47
102
}
330
47
100
AcDbProxyObject
 90
      499
 91
      503
 93
      249
310
90D312F313622203D2031272D30220000000000002C0FC000000000000284000
  0
ACAD_PROXY_OBJECT
  5
5D
102
{ACAD_REACTORS
330
47
102
}
330
47
100
AcDbProxyObject
 90
      499
 91
      503
 93
      249
310
90D332F333222203D2031272D30220000000000002E0FC000000000000284000
  0
ACAD_PROXY_OBJECT
  5
5E
102
{ACAD_REACTORS
330
47
102
}
330
47
100
AcDbProxyObject
 90
      499
 91
      503
 93
      241
310
90C312F3822203D2031272D3022000000000000300FC000000000000284000
  0
ACAD_PROXY_OBJECT
  5
5F
102
{ACAD_REACTORS
330
47
102
}
330
47
100
AcDbProxyObject
 90
      499
 91
      503
 93
      249
310
90D332F313622203D2031272D3022000000000000320FC000000000000284000
  0
ACAD_PROXY_OBJECT
  5
60
102
{ACAD_REACTORS
330
47
102
}
330
47
100
AcDbProxyObject
 90
      499
 91
      503
 93
      241
310
90C312F3422203D2031272D3022000000000000340FC000000000000284000
  0
ACAD_PROXY_OBJECT
  5
61
102
{ACAD_REACTORS
330
47
102
}
330
47
100
AcDbProxyObject
 90
      499
 91
      503
 93
      241
310
90C332F3822203D2031272D3022000000000000360FC000000000000284000
  0
ACAD_PROXY_OBJECT
  5
62
102
{ACAD_REACTORS
330
47
102
}
330
47
100
AcDbProxyObject
 90
      499
 91
      503
 93
      241
310
90C312F3222203D2031272D3022000000000000380FC000000000000284000
  0
ACAD_PROXY_OBJECT
  5
63
102
{ACAD_REACTORS
330
47
102
}
330
47
100
AcDbProxyObject
 90
      499
 91
      503
 93
      241
310
90C332F3422203D2031272D30220000000000003A0FC000000000000284000
  0
ACAD_PROXY_OBJECT
  5
64
102
{ACAD_REACTORS
330
47
102
}
330
47
100
AcDbProxyObject
 90
      499
 91
      503
 93
      161
310
90A3122203D2031272D30224000000000000284000
  0
ACAD_PROXY_OBJECT
  5
65
102
{ACAD_REACTORS
330
47
102
}
330
47
100
AcDbProxyObject
 90
      499
 91
      503
 93
      257
310
90E312D312F3222203D2031272D30220000000000003E0FC000000000000284000
  0
ACAD_PROXY_OBJECT
  5
66
102
{ACAD_REACTORS
330
47
102
}
330
47
100
AcDbProxyObject
 90
      499
 91
      503
 93
      225
310
90A3322203D2031272D302200000000000002100000000000000284000
  0
ACAD_PROXY_OBJECT
  5
67
102
{ACAD_REACTORS
330
47
102
}
330
47
100
AcDbProxyObject
 90
      499
 91
      503
 93
      225
310
90A3622203D2031272D302200000000000006100000000000000284000
  0
ACAD_PROXY_OBJECT
  5
68
102
{ACAD_REACTORS
330
47
102
}
330
47
100
AcDbProxyObject
 90
      499
 91
      503
 93
      249
310
90D31272D3022203D2031272D30220000000000000A100000000000000284000
  0
ACAD_PROXY_OBJECT
  5
2F
102
{ACAD_REACTORS
330
2A
102
}
330
2A
100
AcDbProxyObject
 90
      499
 91
      501
 93
      436
310
42CC9915DA5C99599C985B595049028333333333333E33F0000000000000F90107901411070040501600405405064090741402480A0340
1001
ACAD
1000
AcDbSavedByObjectVersion
1070
     0
  0
ACAD_PROXY_OBJECT
  5
32
102
{ACAD_REACTORS
330
2A
102
}
330
2A
100
AcDbProxyObject
 90
      499
 91
      501
 93
      388
310
4150985CDA58D07406404333333333333E33F0000000000000F90107A41107004050150841D405064090741402480A0350
1001
ACAD
1000
AcDbSavedByObjectVersion
1070
     0
  0
ACAD_PROXY_OBJECT
  5
36
102
{ACAD_REACTORS
330
2A
102
}
330
2A
100
AcDbProxyObject
 90
      499
 91
      501
 93
      428
310
42109C9A59DA1D195B90C409028333333333333E33F0000000000000F9010790141107004050150841D405064090741402480A029950
1001
ACAD
1000
AcDbSavedByObjectVersion
1070
     0
  0
ACAD_PROXY_OBJECT
  5
3A
102
{ACAD_REACTORS
330
2A
102
}
330
2A
100
AcDbProxyObject
 90
      499
 91
      501
 93
      452
310
42D0DBDB1BDC90DA185B99D95104090240C333333333333E33F0000000000000F90108901411070040501508421405064090741402480A0350
1001
ACAD
1000
AcDbSavedByObjectVersion
1070
     0
  0
ACAD_PROXY_OBJECT
  5
34
102
{ACAD_REACTORS
330
2A
102
}
330
2A
100
AcDbProxyObject
 90
      499
 91
      501
 93
      500
310
4290DBDB98D95C1D1D585B10940D028333333333333E33F0000000000000F90107902409070040501000000000018199010841D405064090740C02480A0340
1001
ACAD
1000
AcDbSavedByObjectVersion
1070
     0
  0
ACAD_PROXY_OBJECT
  5
35
102
{ACAD_REACTORS
330
2A
102
}
330
2A
100
AcDbProxyObject
 90
      499
 91
      501
 93
      412
310
40D11A5B50B409028333333333333E33F0000000000000F9010790141107004050150841D405064090741402480A02677FFFFFD0
1001
ACAD
1000
AcDbSavedByObjectVersion
1070
     0
  0
ACAD_PROXY_OBJECT
  5
3D
102
{ACAD_REACTORS
330
2A
102
}
330
2A
100
AcDbProxyObject
 90
      499
 91
      501
 93
      452
310
43115919D950DBDB1BDC93D999916409028333333333333E33F0000000000000F9010790141107004050150841D405064090741402480A0350
1001
ACAD
1000
AcDbSavedByObjectVersion
1070
     0
  0
ACAD_PROXY_OBJECT
  5
39
102
{ACAD_REACTORS
330
2A
102
}
330
2A
100
AcDbProxyObject
 90
      499
 91
      501
 93
      444
310
42D19858D95C185D1D195C9B90F409028333333333333E33F0000000000000F9010790141107004050150841D405064090741402480A0350
1001
ACAD
1000
AcDbSavedByObjectVersion
1070
     0
  0
ACAD_PROXY_OBJECT
  5
2B
102
{ACAD_REACTORS
330
2A
102
}
330
2A
100
AcDbProxyObject
 90
      499
 91
      501
 93
      380
310
41119B185D240901404333333333333E33F0000000000000F9010740A907004050150841D405064090741402480A1B50
1001
ACAD
1000
AcDbSavedByObjectVersion
1070
     0
  0
ACAD_PROXY_OBJECT
  5
2C
102
{ACAD_REACTORS
330
2A
102
}
330
2A
100
AcDbProxyObject
 90
      499
 91
      501
 93
      468
310
43519B185D15DA5D1A115919D95CD0140901404333333333333E33F0000000000000F90107409019070040501600405405064090741402480A1B50
1001
ACAD
1000
AcDbSavedByObjectVersion
1070
     0
  0
ACAD_PROXY_OBJECT
  5
2D
102
{ACAD_REACTORS
330
2A
102
}
330
2A
100
AcDbProxyObject
 90
      499
 91
      501
 93
      404
310
41D1DBDD5C985D5910240902404333333333333E33F0000000000000F9010740A9070040501641D405064090741402480A1B50
1001
ACAD
1000
AcDbSavedByObjectVersion
1070
     0
  0
ACAD_PROXY_OBJECT
  5
2E
102
{ACAD_REACTORS
330
2A
102
}
330
2A
100
AcDbProxyObject
 90
      499
 91
      501
 93
      492
310
4411DBDD5C985D5915DA5D1A115919D95CD0340902404333333333333E33F0000000000000F90107409019070040501600405405064090741402480A1B50
1001
ACAD
1000
AcDbSavedByObjectVersion
1070
     0
  0
ACAD_PROXY_OBJECT
  5
31
102
{ACAD_REACTORS
330
2A
102
}
330
2A
100
AcDbProxyObject
 90
      499
 91
      501
 93
      476
310
41921A5919195B90640502408333333333333E33F0000000000000F901079024090700405020000000000001110200405405064090740C02480A0340
1001
ACAD
1000
AcDbSavedByObjectVersion
1070
     0
  0
ACAD_PROXY_OBJECT
  5
3B
102
{ACAD_REACTORS
330
2A
102
}
330
2A
100
AcDbProxyObject
 90
      499
 91
      501
 93
      428
310
42529A5D1D195C93D999914409028333333333333E33F0000000000000F9010790141107004050150A41D405064090741402480A0350
1001
ACAD
1000
AcDbSavedByObjectVersion
1070
     0
  0
ACAD_PROXY_OBJECT
  5
38
102
{ACAD_REACTORS
330
2A
102
}
330
2A
100
AcDbProxyObject
 90
      499
 91
      501
 93
      444
310
42D31A5B995C185D1D195C9B90E409028333333333333E33F0000000000000F9010790141107004050750841D405064090741402483A0350
1001
ACAD
1000
AcDbSavedByObjectVersion
1070
     0
  0
ACAD_PROXY_OBJECT
  5
3C
102
{ACAD_REACTORS
330
2A
102
}
330
2A
100
AcDbProxyObject
 90
      499
 91
      501
 93
      444
310
42D3DD995C9A185B99D3D999915409028333333333333E33F0000000000000F9010790141107004050150941D405064090741402480A0350
1001
ACAD
1000
AcDbSavedByObjectVersion
1070
     0
  0
ACAD_PROXY_OBJECT
  5
33
102
{ACAD_REACTORS
330
2A
102
}
330
2A
100
AcDbProxyObject
 90
      499
 91
      501
 93
      428
310
425499585B1A5CDD1A58D08409038333333333333E33F0000000000000F9010740A907004050150800405405064090740C02480A1B40
1001
ACAD
1000
AcDbSavedByObjectVersion
1070
     0
  0
ACAD_PROXY_OBJECT
  5
42
102
{ACAD_REACTORS
330
2A
102
}
330
2A
100
AcDbProxyObject
 90
      499
 91
      501
 93
      420
310
4194DA1859195911B40902404333333333333E33F0000000000000F9010740A41107004050150800405405064090840C02480A0B40
1001
ACAD
1000
AcDbSavedByObjectVersion
1070
     0
  0
ACAD_PROXY_OBJECT
  5
41
102
{ACAD_REACTORS
330
2A
102
}
330
2A
100
AcDbProxyObject
 90
      499
 91
      501
 93
      516
310
4454DA18591959081DDA5D1A08195919D95CD1A40902404333333333333E33F0000000000000F901074090142907004050250800405405064090740C02480A0B40
1001
ACAD
1000
AcDbSavedByObjectVersion
1070
     0
  0
ACAD_PROXY_OBJECT
  5
3E
102
{ACAD_REACTORS
330
2A
102
}
330
2A
100
AcDbProxyObject
 90
      499
 91
      501
 93
      532
310
4394DA1859195CC81BD98811DC985E5174090240C333333333333E33F0000000000000F901079024090741D01000000000000111010841D405064090740C02480A0340
1001
ACAD
1000
AcDbSavedByObjectVersion
1070
     0
  0
ACAD_PROXY_OBJECT
  5
3F
102
{ACAD_REACTORS
330
2A
102
}
330
2A
100
AcDbProxyObject
 90
      499
 91
      501
 93
      476
310
41D4DAD95D18DA1E51840502408333333333333E33F0000000000000F901079024090741D01000000000000111010B41D405064090741802480A0340
1001
ACAD
1000
AcDbSavedByObjectVersion
1070
     0
  0
ACAD_PROXY_OBJECT
  5
37
102
{ACAD_REACTORS
330
2A
102
}
330
2A
100
AcDbProxyObject
 90
      499
 91
      501
 93
      412
310
41D51A1A58DAD95B90D409028333333333333E33F0000000000000F9010790141107004050150C41D405064090741402480A0350
1001
ACAD
1000
AcDbSavedByObjectVersion
1070
     0
  0
ACAD_PROXY_OBJECT
  5
30
102
{ACAD_REACTORS
330
2A
102
}
330
2A
100
AcDbProxyObject
 90
      499
 91
      501
 93
      420
310
4255DA5C99599C985B595059028333333333333E33F0000000000000F90107901411070040501600405405064090740C02480A0340
1001
ACAD
1000
AcDbSavedByObjectVersion
1070
     0
  0
ACAD_PROXY_OBJECT
  5
40
102
{ACAD_REACTORS
330
2A
102
}
330
2A
100
AcDbProxyObject
 90
      499
 91
      501
 93
      404
310
41560B54985E51940902404000000000000E03F0000000000000F9010740501907004050150841D405064090740C02480A1B40
1001
ACAD
1000
AcDbSavedByObjectVersion
1070
     0
  0
XRECORD
  5
23C
102
{ACAD_REACTORS
330
233
102
}
330
233
100
AcDbXrecord
 90
        0
  0
XRECORD
  5
252
102
{ACAD_REACTORS
330
233
102
}
330
233
100
AcDbXrecord
1000
DSTYLE
1002
{
1070
   171
 70
     2
1070
   143
 40
25.4
1070
   274
 70
     2
1070
    41
 40
0.18
1070
   141
 40
0.09
1070
   271
 70
     4
1070
    43
 40
0.38
1070
   278
 70
    46
1070
    44
 40
0.18
1070
    42
 40
0.0625
1070
   147
 40
0.09
1070
    77
 70
     0
1070
   272
 70
     4
1070
    73
 70
     1
1070
   172
 70
     0
1070
    74
 70
     1
1070
   283
 70
     1
1070
   340
340
11
1070
   140
 40
0.18
1070
   284
 70
     0
1070
    78
 70
     0
1002
}
  0
XRECORD
  5
23D
102
{ACAD_REACTORS
330
233
102
}
330
233
100
AcDbXrecord
  1
{CB0CF191-3EA5-03C7-6160-53AC5EE59F7A}
  0
XRECORD
  5
236
102
{ACAD_REACTORS
330
233
102
}
330
233
100
AcDbXrecord
  1

  0
XRECORD
  5
23B
102
{ACAD_REACTORS
330
233
102
}
330
233
100
AcDbXrecord
 90
        4
  0
XRECORD
  5
238
102
{ACAD_REACTORS
330
233
102
}
330
233
100
AcDbXrecord
340
1A
  0
XRECORD
  5
23A
102
{ACAD_REACTORS
330
233
102
}
330
233
100
AcDbXrecord
 90
    10781
  0
XRECORD
  5
239
102
{ACAD_REACTORS
330
233
102
}
330
233
100
AcDbXrecord
340
19
  0
XRECORD
  5
23F
102
{ACAD_REACTORS
330
233
102
}
330
233
100
AcDbXrecord
 40
0.0
  0
XRECORD
  5
242
102
{ACAD_REACTORS
330
233
102
}
330
233
100
AcDbXrecord
340
0
  0
XRECORD
  5
248
102
{ACAD_REACTORS
330
233
102
}
330
233
100
AcDbXrecord
 10
0.0
 20
0.0
 30
0.0
  0
XRECORD
  5
244
102
{ACAD_REACTORS
330
233
102
}
330
233
100
AcDbXrecord
 10
0.0
 20
0.0
 30
0.0
  0
XRECORD
  5
247
102
{ACAD_REACTORS
330
233
102
}
330
233
100
AcDbXrecord
 10
0.0
 20
0.0
 30
0.0
  0
XRECORD
  5
245
102
{ACAD_REACTORS
330
233
102
}
330
233
100
AcDbXrecord
 10
0.0
 20
0.0
 30
0.0
  0
XRECORD
  5
246
102
{ACAD_REACTORS
330
233
102
}
330
233
100
AcDbXrecord
 10
0.0
 20
0.0
 30
0.0
  0
XRECORD
  5
243
102
{ACAD_REACTORS
330
233
102
}
330
233
100
AcDbXrecord
 10
0.0
 20
0.0
 30
0.0
  0
XRECORD
  5
240
102
{ACAD_REACTORS
330
233
102
}
330
233
100
AcDbXrecord
340
0
  0
XRECORD
  5
241
102
{ACAD_REACTORS
330
233
102
}
330
233
100
AcDbXrecord
 70
     0
  0
XRECORD
  5
237
102
{ACAD_REACTORS
330
233
102
}
330
233
100
AcDbXrecord
  1

  0
XRECORD
  5
234
102
{ACAD_REACTORS
330
233
102
}
330
233
100
AcDbXrecord
 90
        1
  0
XRECORD
  5
235
102
{ACAD_REACTORS
330
233
102
}
330
233
100
AcDbXrecord
 90
       70
  0
XRECORD
  5
24B
102
{ACAD_REACTORS
330
233
102
}
330
233
100
AcDbXrecord
340
0
  0
XRECORD
  5
251
102
{ACAD_REACTORS
330
233
102
}
330
233
100
AcDbXrecord
 10
0.0
 20
0.0
 30
0.0
  0
XRECORD
  5
24D
102
{ACAD_REACTORS
330
233
102
}
330
233
100
AcDbXrecord
 10
0.0
 20
0.0
 30
0.0
  0
XRECORD
  5
250
102
{ACAD_REACTORS
330
233
102
}
330
233
100
AcDbXrecord
 10
0.0
 20
0.0
 30
0.0
  0
XRECORD
  5
24E
102
{ACAD_REACTORS
330
233
102
}
330
233
100
AcDbXrecord
 10
0.0
 20
0.0
 30
0.0
  0
XRECORD
  5
24F
102
{ACAD_REACTORS
330
233
102
}
330
233
100
AcDbXrecord
 10
0.0
 20
0.0
 30
0.0
  0
XRECORD
  5
24C
102
{ACAD_REACTORS
330
233
102
}
330
233
100
AcDbXrecord
 10
0.0
 20
0.0
 30
0.0
  0
XRECORD
  5
249
102
{ACAD_REACTORS
330
233
102
}
330
233
100
AcDbXrecord
340
0
  0
XRECORD
  5
24A
102
{ACAD_REACTORS
330
233
102
}
330
233
100
AcDbXrecord
 70
     0
  0
XRECORD
  5
23E
102
{ACAD_REACTORS
330
233
102
}
330
233
100
AcDbXrecord
  1
{FAEB1C32-E019-11D5-929B-00C0DF256EC4}
  0
DICTIONARYVAR
  5
25C
102
{ACAD_REACTORS
330
253
102
}
330
253
100
DictionaryVariables
280
     0
  1
1:1
  0
DICTIONARYVAR
  5
258
102
{ACAD_REACTORS
330
253
102
}
330
253
100
DictionaryVariables
280
     0
  1
2
  0
DICTIONARYVAR
  5
259
102
{ACAD_REACTORS
330
253
102
}
330
253
100
DictionaryVariables
280
     0
  1
1
  0
DICTIONARYVAR
  5
25D
102
{ACAD_REACTORS
330
253
102
}
330
253
100
DictionaryVariables
280
     0
  1
1
  0
DICTIONARY
  5
260
330
45
100
AcDbDictionary
280
     1
  3
ACAD_XREC_ROUNDTRIP
360
261
  0
DICTIONARY
  5
25E
330
44
100
AcDbDictionary
280
     1
  3
ACAD_XREC_ROUNDTRIP
360
25F
  0
DICTIONARY
  5
262
330
46
100
AcDbDictionary
280
     1
  3
ACAD_XREC_ROUNDTRIP
360
263
  0
XRECORD
  5
261
102
{ACAD_REACTORS
330
260
102
}
330
260
100
AcDbXrecord
102
MATERIAL
148
0.0
149
0.0
149
0.0
 93
        0
 94
      127
282
     0
 72
     1
 77
     1
171
     1
175
     1
179
     1
273
     0
  0
XRECORD
  5
25F
102
{ACAD_REACTORS
330
25E
102
}
330
25E
100
AcDbXrecord
102
MATERIAL
148
0.0
149
0.0
149
0.0
 93
        0
 94
      127
282
     0
 72
     1
 77
     1
171
     1
175
     1
179
     1
273
     0
  0
XRECORD
  5
263
102
{ACAD_REACTORS
330
262
102
}
330
262
100
AcDbXrecord
102
MATERIAL
148
0.0
149
0.0
149
0.0
 93
        0
 94
      127
282
     0
 72
     1
 77
     1
171
     1
175
     1
179
     1
273
     0
  0
ENDSEC
  0
EOF
