# Alias OBJ Model File
# Exported from SketchUp, (c) 2000-2012 Trimble Navigation Limited
# File units = millimeters

mtllib dna container lid.mtl

g Mesh1 Component_3_1 Model

usemtl FrontColor
v 18 5 -23
vt 0.708661 2.35402e-15
vn -2.29092e-32 -2.59966e-15 1
v 0 5 -23
vt -2.07446e-32 2.79811e-15
v 0 2 -23
vt -2.07446e-32 0.11811
v 18 2 -23
vt 0.708661 0.11811
f 1/1/1 2/2/1 3/3/1 4/4/1 

v 0 5 -25
vt 0 0.984252
vn 2.86403e-16 1 2.59966e-15
vt -1.27188e-31 0.905512
vt -0.708661 0.905512
v 18 5 -25
vt -0.708661 0.984252
f 5/5/2 2/6/2 1/7/2 6/8/2 

v 0 2.32647e-14 -0
vt 0 0.19685
vn -1 2.81997e-16 -0
v 0 5 -0
vt 0 0
v 0 5 -2
vt -0.0787402 0
v 0 2 -2
vt -0.0787402 0.11811
vt -0.905512 0.11811
vt -0.905512 4.44089e-16
vt -0.984252 0
v 0 2.32647e-14 -25
vt -0.984252 0.19685
f 7/9/3 8/10/3 9/11/3 10/12/3 3/13/3 2/14/3 5/15/3 11/16/3 

v 18 3.45446e-14 -0
vt 0.708661 0.19685
vn 0 2.81997e-16 1
v 18 5 -0
vt 0.708661 -4.44089e-16
f 12/17/4 13/18/4 8/10/4 7/9/4 

v 18 2.32647e-14 -25
vt 0.984252 0.19685
vn 1 -2.81997e-16 1.59044e-31
vt 0.984252 -1.9984e-16
vt 0.905512 -1.9984e-16
vt 0.905512 0.11811
v 18 2 -2
vt 0.0787402 0.11811
v 18 5 -2
vt 0.0787402 -6.43929e-16
vt 1.12709e-31 -6.43929e-16
vt 1.12709e-31 0.19685
f 14/19/5 6/20/5 1/21/5 4/22/5 15/23/5 16/24/5 13/25/5 12/26/5 

vt -1.5654e-31 0.19685
vn -1.59044e-31 -2.81997e-16 -1
vt -1.5654e-31 -2.77556e-16
vt -0.708661 -2.77556e-16
vt -0.708661 0.19685
f 11/27/6 5/28/6 6/29/6 14/30/6 

vt 0.708661 0.984252
vn 2.87647e-16 -1 2.25597e-16
v 6.17157 2.32647e-14 -15.3284
vt 0.242975 0.603481
vt -5.66234e-17 0.984252
f 14/31/7 17/32/7 11/33/7

v 7 2.32647e-14 -15.9641
vt 0.275591 0.628508
f 18/34/7 17/32/7 14/31/7

v 7 1 -15.9641
vt 0.601252 0.15748
vn 0.5 0 0.866025
v 6.17157 1 -15.3284
vt 0.560141 0.15748
vn 0.707107 0 0.707107
vt 0.560141 0.19685
vt 0.601252 0.19685
f 19/35/8 20/36/9 17/37/9 18/38/8 

v 10.0353 1 -8.6363
vt 0.39509 0.340012
vn 0 -1 -0
v 9 1 -8.5
vt 0.354331 0.334646
v 7.96472 1 -8.6363
vt 0.313572 0.340012
v 7 1 -9.0359
vt 0.275591 0.355744
v 6.17157 1 -9.67157
vt 0.242975 0.380771
v 5.5359 1 -10.5
vt 0.217949 0.413386
v 5.1363 1 -11.4647
vt 0.202216 0.451367
v 5 1 -12.5
vt 0.19685 0.492126
v 5.1363 1 -13.5353
vt 0.202216 0.532885
v 5.5359 1 -14.5
vt 0.217949 0.570866
v 7.96472 1 -16.3637
vt 0.313572 0.64424
v 9 1 -16.5
vt 0.354331 0.649606
v 10.0353 1 -16.3637
vt 0.39509 0.64424
v 11 1 -15.9641
vt 0.433071 0.628508
v 11.8284 1 -15.3284
vt 0.465686 0.603481
v 12.4641 1 -14.5
vt 0.490713 0.570866
v 12.8637 1 -13.5353
vt 0.506445 0.532885
v 13 1 -12.5
vt 0.511811 0.492126
v 12.8637 1 -11.4647
vt 0.506445 0.451367
v 12.4641 1 -10.5
vt 0.490713 0.413386
v 11.8284 1 -9.67157
vt 0.465686 0.380771
v 11 1 -9.0359
vt 0.433071 0.355744
f 21/39/10 22/40/10 23/41/10 24/42/10 25/43/10 26/44/10 27/45/10 28/46/10 29/47/10 30/48/10 20/32/10 19/34/10 31/49/10 32/50/10 33/51/10 34/52/10 35/53/10 36/54/10 37/55/10 38/56/10 39/57/10 40/58/10 41/59/10 42/60/10 

vt -0.394979 0.15748
vn 6.99877e-16 0 -1
vt -0.43609 0.15748
vn -0.258819 0 -0.965926
v 10.0353 2.32647e-14 -8.6363
vt -0.43609 0.19685
v 9 2.32647e-14 -8.5
vt -0.394979 0.19685
f 22/61/11 21/62/12 43/63/12 44/64/11 

vt -0.495132 0.15748
vt -0.536243 0.15748
vn -0.5 0 -0.866025
v 11 2.32647e-14 -9.0359
vt -0.536243 0.19685
vt -0.495132 0.19685
f 21/65/12 42/66/13 45/67/13 43/68/12 

vt -0.560141 0.15748
vt -0.601252 0.15748
vn -0.707107 0 -0.707107
v 11.8284 2.32647e-14 -9.67157
vt -0.601252 0.19685
vt -0.560141 0.19685
f 42/69/13 41/70/14 46/71/14 45/72/13 

vt -0.585577 0.15748
vt -0.626688 0.15748
vn -0.866025 0 -0.5
v 12.4641 2.32647e-14 -10.5
vt -0.626688 0.19685
vt -0.585577 0.19685
f 41/73/14 40/74/15 47/75/15 46/76/14 

vt -0.569706 0.15748
vt -0.610817 0.15748
vn -0.965926 0 -0.258819
v 12.8637 2.32647e-14 -11.4647
vt -0.610817 0.19685
vt -0.569706 0.19685
f 40/77/15 39/78/16 48/79/16 47/80/15 

vt -0.51361 0.15748
vt -0.554721 0.15748
vn -1 0 -6.99877e-16
v 13 2.32647e-14 -12.5
vt -0.554721 0.19685
vt -0.51361 0.19685
f 39/81/16 38/82/17 49/83/17 48/84/16 

vt -0.421111 0.15748
vt -0.462222 0.15748
vn -0.965926 -0 0.258819
v 12.8637 2.32647e-14 -13.5353
vt -0.462222 0.19685
vt -0.421111 0.19685
f 38/85/17 37/86/18 50/87/18 49/88/17 

vt -0.298513 0.15748
vt -0.339624 0.15748
vn -0.866025 -0 0.5
v 12.4641 2.32647e-14 -14.5
vt -0.339624 0.19685
vt -0.298513 0.19685
f 37/89/18 36/90/19 51/91/19 50/92/18 

vt -0.154172 0.15748
vt -0.195282 0.15748
vn -0.707107 -0 0.707107
v 11.8284 2.32647e-14 -15.3284
vt -0.195282 0.19685
vt -0.154172 0.19685
f 36/93/19 35/94/20 52/95/20 51/96/19 

vt 0.00207744 0.15748
vt -0.0390332 0.15748
vn -0.5 -0 0.866025
v 11 2.32647e-14 -15.9641
vt -0.0390332 0.19685
vt 0.00207744 0.19685
f 35/97/20 34/98/21 53/99/21 52/100/20 

vt 0.159586 0.15748
vt 0.118475 0.15748
vn -0.258819 -0 0.965926
v 10.0353 2.32647e-14 -16.3637
vt 0.118475 0.19685
vt 0.159586 0.19685
f 34/101/21 33/102/22 54/103/22 53/104/21 

vt 0.307619 0.15748
vt 0.266509 0.15748
vn 0 0 1
v 9 2.32647e-14 -16.5
vt 0.266509 0.19685
vt 0.307619 0.19685
f 33/105/22 32/106/23 55/107/23 54/108/22 

vt 0.43609 0.15748
vt 0.394979 0.15748
vn 0.258819 0 0.965926
v 7.96472 2.32647e-14 -16.3637
vt 0.394979 0.19685
vt 0.43609 0.19685
f 32/109/23 31/110/24 56/111/24 55/112/23 

vt 0.536243 0.15748
vt 0.495132 0.15748
vt 0.495132 0.19685
vt 0.536243 0.19685
f 31/113/24 19/114/8 18/115/8 56/116/24 

f 56/49/7 18/34/7 14/31/7

f 55/50/7 56/49/7 14/31/7

f 54/51/7 55/50/7 14/31/7

f 53/52/7 54/51/7 14/31/7

f 52/53/7 53/52/7 14/31/7

f 51/54/7 52/53/7 14/31/7

f 50/55/7 51/54/7 14/31/7

f 49/56/7 50/55/7 14/31/7

vt 0.708661 4.44089e-17
f 12/117/7 49/56/7 14/31/7

f 49/56/7 12/117/7 48/57/7

f 48/57/7 12/117/7 47/58/7

f 47/58/7 12/117/7 46/59/7

f 46/59/7 12/117/7 45/60/7

f 45/60/7 12/117/7 43/39/7

f 43/39/7 12/117/7 44/40/7

v 7.96472 2.32647e-14 -8.6363
f 44/40/7 12/117/7 57/41/7

v 7 2.32647e-14 -9.0359
f 57/41/7 12/117/7 58/42/7

v 6.17157 2.32647e-14 -9.67157
f 58/42/7 12/117/7 59/43/7

vt -5.66234e-17 4.44089e-17
f 12/117/7 7/118/7 59/43/7

v 5.5359 2.32647e-14 -10.5
f 59/43/7 7/118/7 60/44/7

v 5.1363 2.32647e-14 -11.4647
f 60/44/7 7/118/7 61/45/7

f 11/33/7 61/45/7 7/118/7

v 5 2.32647e-14 -12.5
f 62/46/7 61/45/7 11/33/7

vt 0.462222 0.15748
vn 1 0 -0
vt 0.421111 0.15748
vn 0.965926 0 -0.258819
vt 0.421111 0.19685
vt 0.462222 0.19685
f 28/119/25 27/120/26 61/121/26 62/122/25 

vt 0.339624 0.15748
vt 0.298513 0.15748
vn 0.866025 0 -0.5
vt 0.298513 0.19685
vt 0.339624 0.19685
f 27/123/26 26/124/27 60/125/27 61/126/26 

vt 0.195282 0.15748
vt 0.154172 0.15748
vn 0.707107 0 -0.707107
vt 0.154172 0.19685
vt 0.195282 0.19685
f 26/127/27 25/128/28 59/129/28 60/130/27 

vt 0.0390332 0.15748
vt -0.00207744 0.15748
vn 0.5 0 -0.866025
vt -0.00207744 0.19685
vt 0.0390332 0.19685
f 25/131/28 24/132/29 58/133/29 59/134/28 

vt -0.118475 0.15748
vt -0.159586 0.15748
vn 0.258819 0 -0.965926
vt -0.159586 0.19685
vt -0.118475 0.19685
f 24/135/29 23/136/30 57/137/30 58/138/29 

vt -0.266509 0.15748
vt -0.307619 0.15748
vt -0.307619 0.19685
vt -0.266509 0.19685
f 23/139/30 22/140/11 44/141/11 57/142/30 

vt 0.554721 0.15748
vn 0.965926 0 0.258819
vt 0.51361 0.15748
vt 0.51361 0.19685
v 5.1363 2.32647e-14 -13.5353
vt 0.554721 0.19685
f 29/143/31 28/144/25 62/145/25 63/146/31 

f 62/46/7 11/33/7 63/47/7

v 5.5359 2.32647e-14 -14.5
f 63/47/7 11/33/7 64/48/7

f 64/48/7 11/33/7 17/32/7

vt 0.626688 0.15748
vt 0.585577 0.15748
vn 0.866025 0 0.5
vt 0.585577 0.19685
vt 0.626688 0.19685
f 20/147/9 30/148/32 64/149/32 17/150/9 

vt 0.610817 0.15748
vt 0.569706 0.15748
vt 0.569706 0.19685
vt 0.610817 0.19685
f 30/151/32 29/152/31 63/153/31 64/154/32 

vt 1.55899e-17 0.905512
vn -1.31994e-16 1 -4.27848e-16
vt 1.55899e-17 0.0787402
vt -0.708661 0.0787402
f 3/155/33 10/156/33 15/157/33 4/7/33 

vt 3.50605e-32 -1.2852e-16
vn 4.45268e-31 -1.63221e-15 -1
vt -0.708661 -5.7261e-16
vt -0.708661 0.11811
vt 3.50605e-32 0.11811
f 9/158/34 16/159/34 15/160/34 10/161/34 

vt -0.708661 -5.67074e-31
vn -1.36401e-16 1 -1.63221e-15
vt 0 0.0787402
f 13/162/35 16/157/35 9/163/35 8/10/35 

