# Alias OBJ Model File
# Exported from SketchUp, (c) 2000-2012 Trimble Navigation Limited
# File units = millimeters

mtllib dna container lid 2.mtl

g Mesh1 Component_3_1 Model

usemtl FrontColor
v 18 7 -23
vt 0.708661 2.35402e-15
vn -2.29092e-32 -2.59966e-15 1
v -5.75294e-16 7 -23
vt -2.07446e-32 2.79811e-15
v -5.75294e-16 4 -23
vt -2.07446e-32 0.11811
v 18 4 -23
vt 0.708661 0.11811
f 1/1/1 2/2/1 3/3/1 4/4/1 

v -5.75294e-16 7 -25
vt 0 0.984252
vn 2.86403e-16 1 2.59966e-15
vt -1.27188e-31 0.905512
vt -0.708661 0.905512
v 18 7 -25
vt -0.708661 0.984252
f 5/5/2 2/6/2 1/7/2 6/8/2 

v 0 0 -0
vt 1.77636e-17 0.275591
vn -1 2.81997e-16 -0
v -5.75294e-16 7 -4.51195e-16
vt 0 0
v -5.75294e-16 7 -2
vt -0.0787402 0
v -5.75294e-16 4 -2
vt -0.0787402 0.11811
vt -0.905512 0.11811
vt -0.905512 4.44089e-16
vt -0.984252 0
v 0 0 -25
vt -0.984252 0.275591
f 7/9/3 8/10/3 9/11/3 10/12/3 3/13/3 2/14/3 5/15/3 11/16/3 

v 18 1.12799e-14 -0
vt 0.708661 0.275591
vn 0 2.81997e-16 1
v 18 7 -4.51195e-16
vt 0.708661 -4.44089e-16
vt 2.26494e-17 0.275591
f 12/17/4 13/18/4 8/10/4 7/19/4 

v 18 0 -25
vt 0.984252 0.275591
vn 1 -2.81997e-16 1.59044e-31
vt 0.984252 -1.9984e-16
vt 0.905512 -1.9984e-16
vt 0.905512 0.11811
v 18 4 -2
vt 0.0787402 0.11811
v 18 7 -2
vt 0.0787402 -6.43929e-16
vt 1.12709e-31 -6.43929e-16
vt -1.77636e-17 0.275591
f 14/20/5 6/21/5 1/22/5 4/23/5 15/24/5 16/25/5 13/26/5 12/27/5 

vt -2.26494e-17 0.275591
vn -1.59044e-31 -2.81997e-16 -1
vt -1.5654e-31 -2.77556e-16
vt -0.708661 -2.77556e-16
vt -0.708661 0.275591
f 11/28/6 5/29/6 6/30/6 14/31/6 

vt 0.708661 0.984252
vn 2.87647e-16 -1 2.25597e-16
v 6.17157 0 -15.3284
vt 0.242975 0.603481
vt -5.66234e-17 0.984252
f 14/32/7 17/33/7 11/34/7

v 7 0 -15.9641
vt 0.275591 0.628508
f 18/35/7 17/33/7 14/32/7

v 7 3 -15.9641
vt 0.601252 0.15748
vn 0.5 0 0.866025
v 6.17157 3 -15.3284
vt 0.560141 0.15748
vn 0.707107 0 0.707107
vt 0.560141 0.275591
vt 0.601252 0.275591
f 19/36/8 20/37/9 17/38/9 18/39/8 

v 10.0353 3 -8.6363
vt 0.39509 0.340012
vn 0 -1 -0
v 9 3 -8.5
vt 0.354331 0.334646
v 7.96472 3 -8.6363
vt 0.313572 0.340012
v 7 3 -9.0359
vt 0.275591 0.355744
v 6.17157 3 -9.67157
vt 0.242975 0.380771
v 5.5359 3 -10.5
vt 0.217949 0.413386
v 5.1363 3 -11.4647
vt 0.202216 0.451367
v 5 3 -12.5
vt 0.19685 0.492126
v 5.1363 3 -13.5353
vt 0.202216 0.532885
v 5.5359 3 -14.5
vt 0.217949 0.570866
v 7.96472 3 -16.3637
vt 0.313572 0.64424
v 9 3 -16.5
vt 0.354331 0.649606
v 10.0353 3 -16.3637
vt 0.39509 0.64424
v 11 3 -15.9641
vt 0.433071 0.628508
v 11.8284 3 -15.3284
vt 0.465686 0.603481
v 12.4641 3 -14.5
vt 0.490713 0.570866
v 12.8637 3 -13.5353
vt 0.506445 0.532885
v 13 3 -12.5
vt 0.511811 0.492126
v 12.8637 3 -11.4647
vt 0.506445 0.451367
v 12.4641 3 -10.5
vt 0.490713 0.413386
v 11.8284 3 -9.67157
vt 0.465686 0.380771
v 11 3 -9.0359
vt 0.433071 0.355744
f 21/40/10 22/41/10 23/42/10 24/43/10 25/44/10 26/45/10 27/46/10 28/47/10 29/48/10 30/49/10 20/33/10 19/35/10 31/50/10 32/51/10 33/52/10 34/53/10 35/54/10 36/55/10 37/56/10 38/57/10 39/58/10 40/59/10 41/60/10 42/61/10 

vt -0.394979 0.15748
vn 6.99877e-16 0 -1
vt -0.43609 0.15748
vn -0.258819 0 -0.965926
v 10.0353 0 -8.6363
vt -0.43609 0.275591
v 9 0 -8.5
vt -0.394979 0.275591
f 22/62/11 21/63/12 43/64/12 44/65/11 

vt -0.495132 0.15748
vt -0.536243 0.15748
vn -0.5 0 -0.866025
v 11 0 -9.0359
vt -0.536243 0.275591
vt -0.495132 0.275591
f 21/66/12 42/67/13 45/68/13 43/69/12 

vt -0.560141 0.15748
vt -0.601252 0.15748
vn -0.707107 0 -0.707107
v 11.8284 0 -9.67157
vt -0.601252 0.275591
vt -0.560141 0.275591
f 42/70/13 41/71/14 46/72/14 45/73/13 

vt -0.585577 0.15748
vt -0.626688 0.15748
vn -0.866025 0 -0.5
v 12.4641 0 -10.5
vt -0.626688 0.275591
vt -0.585577 0.275591
f 41/74/14 40/75/15 47/76/15 46/77/14 

vt -0.569706 0.15748
vt -0.610817 0.15748
vn -0.965926 0 -0.258819
v 12.8637 0 -11.4647
vt -0.610817 0.275591
vt -0.569706 0.275591
f 40/78/15 39/79/16 48/80/16 47/81/15 

vt -0.51361 0.15748
vt -0.554721 0.15748
vn -1 0 -6.99877e-16
v 13 0 -12.5
vt -0.554721 0.275591
vt -0.51361 0.275591
f 39/82/16 38/83/17 49/84/17 48/85/16 

vt -0.421111 0.15748
vt -0.462222 0.15748
vn -0.965926 -0 0.258819
v 12.8637 0 -13.5353
vt -0.462222 0.275591
vt -0.421111 0.275591
f 38/86/17 37/87/18 50/88/18 49/89/17 

vt -0.298513 0.15748
vt -0.339624 0.15748
vn -0.866025 -0 0.5
v 12.4641 0 -14.5
vt -0.339624 0.275591
vt -0.298513 0.275591
f 37/90/18 36/91/19 51/92/19 50/93/18 

vt -0.154172 0.15748
vt -0.195282 0.15748
vn -0.707107 -0 0.707107
v 11.8284 0 -15.3284
vt -0.195282 0.275591
vt -0.154172 0.275591
f 36/94/19 35/95/20 52/96/20 51/97/19 

vt 0.00207744 0.15748
vt -0.0390332 0.15748
vn -0.5 -0 0.866025
v 11 0 -15.9641
vt -0.0390332 0.275591
vt 0.00207744 0.275591
f 35/98/20 34/99/21 53/100/21 52/101/20 

vt 0.159586 0.15748
vt 0.118475 0.15748
vn -0.258819 -0 0.965926
v 10.0353 0 -16.3637
vt 0.118475 0.275591
vt 0.159586 0.275591
f 34/102/21 33/103/22 54/104/22 53/105/21 

vt 0.307619 0.15748
vt 0.266509 0.15748
vn 0 0 1
v 9 0 -16.5
vt 0.266509 0.275591
vt 0.307619 0.275591
f 33/106/22 32/107/23 55/108/23 54/109/22 

vt 0.43609 0.15748
vt 0.394979 0.15748
vn 0.258819 0 0.965926
v 7.96472 0 -16.3637
vt 0.394979 0.275591
vt 0.43609 0.275591
f 32/110/23 31/111/24 56/112/24 55/113/23 

vt 0.536243 0.15748
vt 0.495132 0.15748
vt 0.495132 0.275591
vt 0.536243 0.275591
f 31/114/24 19/115/8 18/116/8 56/117/24 

f 56/50/7 18/35/7 14/32/7

f 55/51/7 56/50/7 14/32/7

f 54/52/7 55/51/7 14/32/7

f 53/53/7 54/52/7 14/32/7

f 52/54/7 53/53/7 14/32/7

f 51/55/7 52/54/7 14/32/7

f 50/56/7 51/55/7 14/32/7

f 49/57/7 50/56/7 14/32/7

vt 0.708661 4.44089e-17
f 12/118/7 49/57/7 14/32/7

f 49/57/7 12/118/7 48/58/7

f 48/58/7 12/118/7 47/59/7

f 47/59/7 12/118/7 46/60/7

f 46/60/7 12/118/7 45/61/7

f 45/61/7 12/118/7 43/40/7

f 43/40/7 12/118/7 44/41/7

v 7.96472 0 -8.6363
f 44/41/7 12/118/7 57/42/7

v 7 0 -9.0359
f 57/42/7 12/118/7 58/43/7

v 6.17157 0 -9.67157
f 58/43/7 12/118/7 59/44/7

vt -5.66234e-17 4.44089e-17
f 12/118/7 7/119/7 59/44/7

v 5.5359 0 -10.5
f 59/44/7 7/119/7 60/45/7

v 5.1363 0 -11.4647
f 60/45/7 7/119/7 61/46/7

f 11/34/7 61/46/7 7/119/7

v 5 0 -12.5
f 62/47/7 61/46/7 11/34/7

vt 0.462222 0.15748
vn 1 0 -0
vt 0.421111 0.15748
vn 0.965926 0 -0.258819
vt 0.421111 0.275591
vt 0.462222 0.275591
f 28/120/25 27/121/26 61/122/26 62/123/25 

vt 0.339624 0.15748
vt 0.298513 0.15748
vn 0.866025 0 -0.5
vt 0.298513 0.275591
vt 0.339624 0.275591
f 27/124/26 26/125/27 60/126/27 61/127/26 

vt 0.195282 0.15748
vt 0.154172 0.15748
vn 0.707107 0 -0.707107
vt 0.154172 0.275591
vt 0.195282 0.275591
f 26/128/27 25/129/28 59/130/28 60/131/27 

vt 0.0390332 0.15748
vt -0.00207744 0.15748
vn 0.5 0 -0.866025
vt -0.00207744 0.275591
vt 0.0390332 0.275591
f 25/132/28 24/133/29 58/134/29 59/135/28 

vt -0.118475 0.15748
vt -0.159586 0.15748
vn 0.258819 0 -0.965926
vt -0.159586 0.275591
vt -0.118475 0.275591
f 24/136/29 23/137/30 57/138/30 58/139/29 

vt -0.266509 0.15748
vt -0.307619 0.15748
vt -0.307619 0.275591
vt -0.266509 0.275591
f 23/140/30 22/141/11 44/142/11 57/143/30 

vt 0.554721 0.15748
vn 0.965926 0 0.258819
vt 0.51361 0.15748
vt 0.51361 0.275591
v 5.1363 0 -13.5353
vt 0.554721 0.275591
f 29/144/31 28/145/25 62/146/25 63/147/31 

f 62/47/7 11/34/7 63/48/7

v 5.5359 0 -14.5
f 63/48/7 11/34/7 64/49/7

f 64/49/7 11/34/7 17/33/7

vt 0.626688 0.15748
vt 0.585577 0.15748
vn 0.866025 0 0.5
vt 0.585577 0.275591
vt 0.626688 0.275591
f 20/148/9 30/149/32 64/150/32 17/151/9 

vt 0.610817 0.15748
vt 0.569706 0.15748
vt 0.569706 0.275591
vt 0.610817 0.275591
f 30/152/32 29/153/31 63/154/31 64/155/32 

vt 1.55899e-17 0.905512
vn -1.31994e-16 1 -4.27848e-16
vt 1.55899e-17 0.0787402
vt -0.708661 0.0787402
f 3/156/33 10/157/33 15/158/33 4/7/33 

vt 3.50605e-32 -1.2852e-16
vn 4.45268e-31 -1.63221e-15 -1
vt -0.708661 -5.7261e-16
vt -0.708661 0.11811
vt 3.50605e-32 0.11811
f 9/159/34 16/160/34 15/161/34 10/162/34 

vt -0.708661 -5.67074e-31
vn -1.36401e-16 1 -1.63221e-15
vt 0 0.0787402
f 13/163/35 16/158/35 9/164/35 8/10/35 

